<?xml version="1.0" encoding="utf-8" standalone="no"?>
<!DOCTYPE svg PUBLIC "-//W3C//DTD SVG 1.1//EN"
  "http://www.w3.org/Graphics/SVG/1.1/DTD/svg11.dtd">
<svg xmlns:xlink="http://www.w3.org/1999/xlink" width="247.874609pt" height="106.2pt" viewBox="0 0 247.874609 106.2" xmlns="http://www.w3.org/2000/svg" version="1.1">
 <metadata>
  <rdf:RDF xmlns:dc="http://purl.org/dc/elements/1.1/" xmlns:cc="http://creativecommons.org/ns#" xmlns:rdf="http://www.w3.org/1999/02/22-rdf-syntax-ns#">
   <cc:Work>
    <dc:type rdf:resource="http://purl.org/dc/dcmitype/StillImage"/>
    <dc:date>2024-02-21T21:17:47.947848</dc:date>
    <dc:format>image/svg+xml</dc:format>
    <dc:creator>
     <cc:Agent>
      <dc:title>Matplotlib v3.8.2, https://matplotlib.org/</dc:title>
     </cc:Agent>
    </dc:creator>
   </cc:Work>
  </rdf:RDF>
 </metadata>
 <defs>
  <style type="text/css">*{stroke-linejoin: round; stroke-linecap: butt}</style>
 </defs>
 <g id="figure_1">
  <g id="patch_1">
   <path d="M 0 106.2 
L 247.874609 106.2 
L 247.874609 0 
L 0 0 
z
" style="fill: #ffffff"/>
  </g>
  <g id="axes_1">
   <g id="patch_2">
    <path d="M 64.739844 43.92 
C 65.885521 43.92 66.984429 43.464818 67.794545 42.654701 
C 68.604661 41.844585 69.059844 40.745677 69.059844 39.6 
C 69.059844 38.454323 68.604661 37.355415 67.794545 36.545299 
C 66.984429 35.735182 65.885521 35.28 64.739844 35.28 
C 63.594166 35.28 62.495259 35.735182 61.685142 36.545299 
C 60.875026 37.355415 60.419844 38.454323 60.419844 39.6 
C 60.419844 40.745677 60.875026 41.844585 61.685142 42.654701 
C 62.495259 43.464818 63.594166 43.92 64.739844 43.92 
L 64.739844 43.92 
z
" clip-path="url(#p3df8101a41)" style="fill: none; stroke: #000000; stroke-width: 2; stroke-linejoin: miter"/>
   </g>
   <g id="patch_3">
    <path d="M 64.739844 70.92 
C 65.885521 70.92 66.984429 70.464818 67.794545 69.654701 
C 68.604661 68.844585 69.059844 67.745677 69.059844 66.6 
C 69.059844 65.454323 68.604661 64.355415 67.794545 63.545299 
C 66.984429 62.735182 65.885521 62.28 64.739844 62.28 
C 63.594166 62.28 62.495259 62.735182 61.685142 63.545299 
C 60.875026 64.355415 60.419844 65.454323 60.419844 66.6 
C 60.419844 67.745677 60.875026 68.844585 61.685142 69.654701 
C 62.495259 70.464818 63.594166 70.92 64.739844 70.92 
L 64.739844 70.92 
z
" clip-path="url(#p3df8101a41)" style="fill: none; stroke: #000000; stroke-width: 2; stroke-linejoin: miter"/>
   </g>
   <g id="line2d_1">
    <path d="M 177.239844 70.74 
L 196.782701 70.673878 
L 198.839844 70.38 
L 200.896987 69.85102 
L 202.954129 69.086939 
L 205.011272 68.087755 
L 207.068415 66.853469 
L 209.125558 65.384082 
L 211.182701 63.679592 
L 213.754129 61.218367 
L 216.325558 58.389796 
L 218.896987 55.193878 
L 220.439844 53.1 
L 220.439844 53.1 
L 217.868415 49.683673 
L 215.296987 46.634694 
L 212.725558 43.953061 
L 210.154129 41.638776 
L 208.096987 40.051837 
L 206.039844 38.7 
L 203.982701 37.583265 
L 201.925558 36.701633 
L 199.868415 36.055102 
L 197.811272 35.643673 
L 195.754129 35.467347 
L 195.239844 35.46 
L 177.239844 35.46 
L 177.239844 35.46 
L 179.227044 37.62 
L 180.955044 39.78 
L 182.423844 41.94 
L 183.633444 44.1 
L 184.583844 46.26 
L 185.275044 48.42 
L 185.707044 50.58 
L 185.879844 52.74 
L 185.793444 54.9 
L 185.447844 57.06 
L 184.843044 59.22 
L 183.979044 61.38 
L 182.855844 63.54 
L 181.473444 65.7 
L 179.831844 67.86 
L 177.931044 70.02 
L 177.239844 70.74 
L 177.239844 70.74 
" clip-path="url(#p3df8101a41)" style="fill: none; stroke: #000000; stroke-width: 2; stroke-linecap: round"/>
   </g>
   <g id="line2d_2">
    <path d="M 164.639844 62.1 
L 183.633444 62.1 
" clip-path="url(#p3df8101a41)" style="fill: none; stroke: #000000; stroke-width: 2; stroke-linecap: round"/>
   </g>
   <g id="line2d_3">
    <path d="M 164.639844 44.1 
L 183.633444 44.1 
" clip-path="url(#p3df8101a41)" style="fill: none; stroke: #000000; stroke-width: 2; stroke-linecap: round"/>
   </g>
   <g id="line2d_4">
    <path d="M 220.439844 53.1 
L 233.039844 53.1 
" clip-path="url(#p3df8101a41)" style="fill: none; stroke: #000000; stroke-width: 2; stroke-linecap: round"/>
   </g>
   <g id="line2d_5">
    <path d="M 130.439844 44.1 
L 131.593108 44.063017 
L 132.741633 43.95222 
L 133.880699 43.768065 
L 135.005626 43.511308 
L 136.111792 43.183003 
L 137.19465 42.784502 
L 138.249751 42.31744 
L 139.27276 41.783737 
L 140.259472 41.185586 
L 141.205833 40.525445 
L 142.107955 39.806027 
L 142.96213 39.030288 
L 143.764848 38.201416 
L 144.51281 37.322816 
L 145.202944 36.3981 
L 145.832413 35.431066 
L 146.398631 34.425689 
L 146.899271 33.3861 
L 147.332275 32.316571 
L 147.695865 31.221497 
L 147.988546 30.105377 
L 148.209116 28.972798 
L 148.356668 27.828414 
L 148.430596 26.676928 
L 148.430596 25.523072 
L 148.356668 24.371586 
L 148.209116 23.227202 
L 147.988546 22.094623 
L 147.695865 20.978503 
L 147.332275 19.883429 
L 146.899271 18.8139 
L 146.398631 17.774311 
L 145.832413 16.768934 
L 145.202944 15.8019 
L 144.51281 14.877184 
L 143.764848 13.998584 
L 142.96213 13.169712 
L 142.107955 12.393973 
L 141.205833 11.674555 
L 140.259472 11.014414 
L 139.27276 10.416263 
L 138.249751 9.88256 
L 137.19465 9.415498 
L 136.111792 9.016997 
L 135.005626 8.688692 
L 133.880699 8.431935 
L 132.741633 8.24778 
L 131.593108 8.136983 
L 130.439844 8.1 
L 130.439844 8.1 
L 107.039844 8.1 
L 107.039844 26.1 
L 107.039844 44.1 
L 130.439844 44.1 
" clip-path="url(#p3df8101a41)" style="fill: none; stroke: #000000; stroke-width: 2; stroke-linecap: round"/>
   </g>
   <g id="line2d_6">
    <path d="M 94.439844 35.1 
L 107.039844 35.1 
" clip-path="url(#p3df8101a41)" style="fill: none; stroke: #000000; stroke-width: 2; stroke-linecap: round"/>
   </g>
   <g id="line2d_7">
    <path d="M 94.439844 17.1 
L 107.039844 17.1 
" clip-path="url(#p3df8101a41)" style="fill: none; stroke: #000000; stroke-width: 2; stroke-linecap: round"/>
   </g>
   <g id="line2d_8">
    <path d="M 148.439844 26.1 
L 161.039844 26.1 
" clip-path="url(#p3df8101a41)" style="fill: none; stroke: #000000; stroke-width: 2; stroke-linecap: round"/>
   </g>
   <g id="line2d_9">
    <path d="M 17.039844 39.6 
L 37.019844 39.6 
M 69.059844 39.6 
L 89.039844 39.6 
" clip-path="url(#p3df8101a41)" style="fill: none; stroke: #000000; stroke-width: 2; stroke-linecap: round"/>
   </g>
   <g id="line2d_10">
    <path d="M 37.019844 21.6 
L 60.419844 39.6 
L 37.019844 57.6 
L 37.019844 21.6 
" clip-path="url(#p3df8101a41)" style="fill: none; stroke: #000000; stroke-width: 2; stroke-linecap: round"/>
   </g>
   <g id="line2d_11">
    <path d="M 94.439844 35.1 
L 89.039844 35.1 
L 89.039844 39.6 
" clip-path="url(#p3df8101a41)" style="fill: none; stroke: #000000; stroke-width: 2; stroke-linecap: round"/>
   </g>
   <g id="line2d_12">
    <path d="M 164.639844 44.1 
L 161.039844 44.1 
L 161.039844 26.1 
" clip-path="url(#p3df8101a41)" style="fill: none; stroke: #000000; stroke-width: 2; stroke-linecap: round"/>
   </g>
   <g id="line2d_13">
    <path d="M 130.439844 98.1 
L 131.593108 98.063017 
L 132.741633 97.95222 
L 133.880699 97.768065 
L 135.005626 97.511308 
L 136.111792 97.183003 
L 137.19465 96.784502 
L 138.249751 96.31744 
L 139.27276 95.783737 
L 140.259472 95.185586 
L 141.205833 94.525445 
L 142.107955 93.806027 
L 142.96213 93.030288 
L 143.764848 92.201416 
L 144.51281 91.322816 
L 145.202944 90.3981 
L 145.832413 89.431066 
L 146.398631 88.425689 
L 146.899271 87.3861 
L 147.332275 86.316571 
L 147.695865 85.221497 
L 147.988546 84.105377 
L 148.209116 82.972798 
L 148.356668 81.828414 
L 148.430596 80.676928 
L 148.430596 79.523072 
L 148.356668 78.371586 
L 148.209116 77.227202 
L 147.988546 76.094623 
L 147.695865 74.978503 
L 147.332275 73.883429 
L 146.899271 72.8139 
L 146.398631 71.774311 
L 145.832413 70.768934 
L 145.202944 69.8019 
L 144.51281 68.877184 
L 143.764848 67.998584 
L 142.96213 67.169712 
L 142.107955 66.393973 
L 141.205833 65.674555 
L 140.259472 65.014414 
L 139.27276 64.416263 
L 138.249751 63.88256 
L 137.19465 63.415498 
L 136.111792 63.016997 
L 135.005626 62.688692 
L 133.880699 62.431935 
L 132.741633 62.24778 
L 131.593108 62.136983 
L 130.439844 62.1 
L 130.439844 62.1 
L 107.039844 62.1 
L 107.039844 80.1 
L 107.039844 98.1 
L 130.439844 98.1 
" clip-path="url(#p3df8101a41)" style="fill: none; stroke: #000000; stroke-width: 2; stroke-linecap: round"/>
   </g>
   <g id="line2d_14">
    <path d="M 94.439844 89.1 
L 107.039844 89.1 
" clip-path="url(#p3df8101a41)" style="fill: none; stroke: #000000; stroke-width: 2; stroke-linecap: round"/>
   </g>
   <g id="line2d_15">
    <path d="M 94.439844 71.1 
L 107.039844 71.1 
" clip-path="url(#p3df8101a41)" style="fill: none; stroke: #000000; stroke-width: 2; stroke-linecap: round"/>
   </g>
   <g id="line2d_16">
    <path d="M 148.439844 80.1 
L 161.039844 80.1 
" clip-path="url(#p3df8101a41)" style="fill: none; stroke: #000000; stroke-width: 2; stroke-linecap: round"/>
   </g>
   <g id="line2d_17">
    <path d="M 17.039844 66.6 
L 37.019844 66.6 
M 69.059844 66.6 
L 89.039844 66.6 
" clip-path="url(#p3df8101a41)" style="fill: none; stroke: #000000; stroke-width: 2; stroke-linecap: round"/>
   </g>
   <g id="line2d_18">
    <path d="M 37.019844 48.6 
L 60.419844 66.6 
L 37.019844 84.6 
L 37.019844 48.6 
" clip-path="url(#p3df8101a41)" style="fill: none; stroke: #000000; stroke-width: 2; stroke-linecap: round"/>
   </g>
   <g id="line2d_19">
    <path d="M 94.439844 71.1 
L 89.039844 71.1 
L 89.039844 66.6 
" clip-path="url(#p3df8101a41)" style="fill: none; stroke: #000000; stroke-width: 2; stroke-linecap: round"/>
   </g>
   <g id="line2d_20">
    <path d="M 164.639844 62.1 
L 161.039844 62.1 
L 161.039844 80.1 
" clip-path="url(#p3df8101a41)" style="fill: none; stroke: #000000; stroke-width: 2; stroke-linecap: round"/>
   </g>
   <g id="text_1">
    <!-- Y -->
    <g transform="translate(236.639844 56.549219) scale(0.125 -0.125)">
     <defs>
      <path id="DejaVuSans-59" d="M -13 4666 
L 666 4666 
L 1959 2747 
L 3244 4666 
L 3922 4666 
L 2272 2222 
L 2272 0 
L 1638 0 
L 1638 2222 
L -13 4666 
z
" transform="scale(0.015625)"/>
     </defs>
     <use xlink:href="#DejaVuSans-59"/>
    </g>
   </g>
   <g id="text_2">
    <!-- Q -->
    <g transform="translate(81 20.549219) scale(0.125 -0.125)">
     <defs>
      <path id="DejaVuSans-51" d="M 2522 4238 
Q 1834 4238 1429 3725 
Q 1025 3213 1025 2328 
Q 1025 1447 1429 934 
Q 1834 422 2522 422 
Q 3209 422 3611 934 
Q 4013 1447 4013 2328 
Q 4013 3213 3611 3725 
Q 3209 4238 2522 4238 
z
M 3406 84 
L 4238 -825 
L 3475 -825 
L 2784 -78 
Q 2681 -84 2626 -87 
Q 2572 -91 2522 -91 
Q 1538 -91 948 567 
Q 359 1225 359 2328 
Q 359 3434 948 4092 
Q 1538 4750 2522 4750 
Q 3503 4750 4090 4092 
Q 4678 3434 4678 2328 
Q 4678 1516 4351 937 
Q 4025 359 3406 84 
z
" transform="scale(0.015625)"/>
     </defs>
     <use xlink:href="#DejaVuSans-51"/>
    </g>
   </g>
   <g id="text_3">
    <!-- V -->
    <g transform="translate(4.889062 43.049219) scale(0.125 -0.125)">
     <defs>
      <path id="DejaVuSans-56" d="M 1831 0 
L 50 4666 
L 709 4666 
L 2188 738 
L 3669 4666 
L 4325 4666 
L 2547 0 
L 1831 0 
z
" transform="scale(0.015625)"/>
     </defs>
     <use xlink:href="#DejaVuSans-56"/>
    </g>
   </g>
   <g id="text_4">
    <!-- V -->
    <g transform="translate(82.289062 92.549219) scale(0.125 -0.125)">
     <use xlink:href="#DejaVuSans-56"/>
    </g>
   </g>
   <g id="text_5">
    <!-- Q -->
    <g transform="translate(3.6 70.049219) scale(0.125 -0.125)">
     <use xlink:href="#DejaVuSans-51"/>
    </g>
   </g>
  </g>
 </g>
 <defs>
  <clipPath id="p3df8101a41">
   <rect x="6.239844" y="3.6" width="237.6" height="99"/>
  </clipPath>
 </defs>
</svg>
