<?xml version="1.0" encoding="utf-8" standalone="no"?>
<!DOCTYPE svg PUBLIC "-//W3C//DTD SVG 1.1//EN"
  "http://www.w3.org/Graphics/SVG/1.1/DTD/svg11.dtd">
<svg xmlns:xlink="http://www.w3.org/1999/xlink" width="256.763281pt" height="239.454pt" viewBox="0 0 256.763281 239.454" xmlns="http://www.w3.org/2000/svg" version="1.1">
 <metadata>
  <rdf:RDF xmlns:dc="http://purl.org/dc/elements/1.1/" xmlns:cc="http://creativecommons.org/ns#" xmlns:rdf="http://www.w3.org/1999/02/22-rdf-syntax-ns#">
   <cc:Work>
    <dc:type rdf:resource="http://purl.org/dc/dcmitype/StillImage"/>
    <dc:date>2024-04-09T21:48:08.677942</dc:date>
    <dc:format>image/svg+xml</dc:format>
    <dc:creator>
     <cc:Agent>
      <dc:title>Matplotlib v3.8.2, https://matplotlib.org/</dc:title>
     </cc:Agent>
    </dc:creator>
   </cc:Work>
  </rdf:RDF>
 </metadata>
 <defs>
  <style type="text/css">*{stroke-linejoin: round; stroke-linecap: butt}</style>
 </defs>
 <g id="figure_1">
  <g id="patch_1">
   <path d="M 0 239.454 
L 256.763281 239.454 
L 256.763281 0 
L 0 0 
z
" style="fill: #ffffff"/>
  </g>
  <g id="axes_1">
   <g id="patch_2">
    <path d="M 70.788672 49.617 
C 71.934349 49.617 73.033257 49.161818 73.843373 48.351701 
C 74.653489 47.541585 75.108672 46.442677 75.108672 45.297 
C 75.108672 44.151323 74.653489 43.052415 73.843373 42.242299 
C 73.033257 41.432182 71.934349 40.977 70.788672 40.977 
C 69.642994 40.977 68.544087 41.432182 67.733971 42.242299 
C 66.923854 43.052415 66.468672 44.151323 66.468672 45.297 
C 66.468672 46.442677 66.923854 47.541585 67.733971 48.351701 
C 68.544087 49.161818 69.642994 49.617 70.788672 49.617 
L 70.788672 49.617 
z
" clip-path="url(#pf6cbb4bab1)" style="fill: none; stroke: #000000; stroke-width: 2; stroke-linejoin: miter"/>
   </g>
   <g id="patch_3">
    <path d="M 70.788672 103.617 
C 71.934349 103.617 73.033257 103.161818 73.843373 102.351701 
C 74.653489 101.541585 75.108672 100.442677 75.108672 99.297 
C 75.108672 98.151323 74.653489 97.052415 73.843373 96.242299 
C 73.033257 95.432182 71.934349 94.977 70.788672 94.977 
C 69.642994 94.977 68.544087 95.432182 67.733971 96.242299 
C 66.923854 97.052415 66.468672 98.151323 66.468672 99.297 
C 66.468672 100.442677 66.923854 101.541585 67.733971 102.351701 
C 68.544087 103.161818 69.642994 103.617 70.788672 103.617 
L 70.788672 103.617 
z
" clip-path="url(#pf6cbb4bab1)" style="fill: none; stroke: #000000; stroke-width: 2; stroke-linejoin: miter"/>
   </g>
   <g id="patch_4">
    <path d="M 70.788672 157.617 
C 71.934349 157.617 73.033257 157.161818 73.843373 156.351701 
C 74.653489 155.541585 75.108672 154.442677 75.108672 153.297 
C 75.108672 152.151323 74.653489 151.052415 73.843373 150.242299 
C 73.033257 149.432182 71.934349 148.977 70.788672 148.977 
C 69.642994 148.977 68.544087 149.432182 67.733971 150.242299 
C 66.923854 151.052415 66.468672 152.151323 66.468672 153.297 
C 66.468672 154.442677 66.923854 155.541585 67.733971 156.351701 
C 68.544087 157.161818 69.642994 157.617 70.788672 157.617 
L 70.788672 157.617 
z
" clip-path="url(#pf6cbb4bab1)" style="fill: none; stroke: #000000; stroke-width: 2; stroke-linejoin: miter"/>
   </g>
   <g id="patch_5">
    <path d="M 70.788672 211.617 
C 71.934349 211.617 73.033257 211.161818 73.843373 210.351701 
C 74.653489 209.541585 75.108672 208.442677 75.108672 207.297 
C 75.108672 206.151323 74.653489 205.052415 73.843373 204.242299 
C 73.033257 203.432182 71.934349 202.977 70.788672 202.977 
C 69.642994 202.977 68.544087 203.432182 67.733971 204.242299 
C 66.923854 205.052415 66.468672 206.151323 66.468672 207.297 
C 66.468672 208.442677 66.923854 209.541585 67.733971 210.351701 
C 68.544087 211.161818 69.642994 211.617 70.788672 211.617 
L 70.788672 211.617 
z
" clip-path="url(#pf6cbb4bab1)" style="fill: none; stroke: #000000; stroke-width: 2; stroke-linejoin: miter"/>
   </g>
   <g id="line2d_1">
    <path d="M 208.488672 130.797 
L 209.641936 130.760017 
L 210.790461 130.64922 
L 211.929527 130.465065 
L 213.054454 130.208308 
L 214.16062 129.880003 
L 215.243478 129.481502 
L 216.298579 129.01444 
L 217.321588 128.480737 
L 218.3083 127.882586 
L 219.254661 127.222445 
L 220.156783 126.503027 
L 221.010958 125.727288 
L 221.813676 124.898416 
L 222.561639 124.019816 
L 223.251772 123.0951 
L 223.881242 122.128066 
L 224.447459 121.122689 
L 224.948099 120.0831 
L 225.381103 119.013571 
L 225.744693 117.918497 
L 226.037374 116.802377 
L 226.257944 115.669798 
L 226.405496 114.525414 
L 226.479424 113.373928 
L 226.479424 112.220072 
L 226.405496 111.068586 
L 226.257944 109.924202 
L 226.037374 108.791623 
L 225.744693 107.675503 
L 225.381103 106.580429 
L 224.948099 105.5109 
L 224.447459 104.471311 
L 223.881242 103.465934 
L 223.251772 102.4989 
L 222.561639 101.574184 
L 221.813676 100.695584 
L 221.010958 99.866712 
L 220.156783 99.090973 
L 219.254661 98.371555 
L 218.3083 97.711414 
L 217.321588 97.113263 
L 216.298579 96.57956 
L 215.243478 96.112498 
L 214.16062 95.713997 
L 213.054454 95.385692 
L 211.929527 95.128935 
L 210.790461 94.94478 
L 209.641936 94.833983 
L 208.488672 94.797 
L 208.488672 94.797 
L 185.088672 94.797 
L 185.088672 112.797 
L 185.088672 130.797 
L 208.488672 130.797 
" clip-path="url(#pf6cbb4bab1)" style="fill: none; stroke: #000000; stroke-width: 2; stroke-linecap: round"/>
   </g>
   <g id="line2d_2">
    <path d="M 172.488672 134.397 
L 185.088672 134.397 
" clip-path="url(#pf6cbb4bab1)" style="fill: none; stroke: #000000; stroke-width: 2; stroke-linecap: round"/>
   </g>
   <g id="line2d_3">
    <path d="M 172.488672 119.997 
L 185.088672 119.997 
" clip-path="url(#pf6cbb4bab1)" style="fill: none; stroke: #000000; stroke-width: 2; stroke-linecap: round"/>
   </g>
   <g id="line2d_4">
    <path d="M 172.488672 105.597 
L 185.088672 105.597 
" clip-path="url(#pf6cbb4bab1)" style="fill: none; stroke: #000000; stroke-width: 2; stroke-linecap: round"/>
   </g>
   <g id="line2d_5">
    <path d="M 172.488672 91.197 
L 185.088672 91.197 
" clip-path="url(#pf6cbb4bab1)" style="fill: none; stroke: #000000; stroke-width: 2; stroke-linecap: round"/>
   </g>
   <g id="line2d_6">
    <path d="M 185.088672 83.997 
L 185.088672 141.597 
" clip-path="url(#pf6cbb4bab1)" style="fill: none; stroke: #000000; stroke-width: 2; stroke-linecap: round"/>
   </g>
   <g id="line2d_7">
    <path d="M 226.488672 112.797 
L 239.088672 112.797 
" clip-path="url(#pf6cbb4bab1)" style="fill: none; stroke: #000000; stroke-width: 2; stroke-linecap: round"/>
   </g>
   <g id="line2d_8">
    <path d="M 111.288672 49.437 
L 130.831529 49.370878 
L 132.888672 49.077 
L 134.945815 48.54802 
L 137.002958 47.783939 
L 139.0601 46.784755 
L 141.117243 45.550469 
L 143.174386 44.081082 
L 145.231529 42.376592 
L 147.802958 39.915367 
L 150.374386 37.086796 
L 152.945815 33.890878 
L 154.488672 31.797 
L 154.488672 31.797 
L 151.917243 28.380673 
L 149.345815 25.331694 
L 146.774386 22.650061 
L 144.202958 20.335776 
L 142.145815 18.748837 
L 140.088672 17.397 
L 138.031529 16.280265 
L 135.974386 15.398633 
L 133.917243 14.752102 
L 131.8601 14.340673 
L 129.802958 14.164347 
L 129.288672 14.157 
L 111.288672 14.157 
L 111.288672 14.157 
L 113.275872 16.317 
L 115.003872 18.477 
L 116.472672 20.637 
L 117.682272 22.797 
L 118.632672 24.957 
L 119.323872 27.117 
L 119.755872 29.277 
L 119.928672 31.437 
L 119.842272 33.597 
L 119.496672 35.757 
L 118.891872 37.917 
L 118.027872 40.077 
L 116.904672 42.237 
L 115.522272 44.397 
L 113.880672 46.557 
L 111.979872 48.717 
L 111.288672 49.437 
L 111.288672 49.437 
" clip-path="url(#pf6cbb4bab1)" style="fill: none; stroke: #000000; stroke-width: 2; stroke-linecap: round"/>
   </g>
   <g id="line2d_9">
    <path d="M 98.688672 40.797 
L 117.682272 40.797 
" clip-path="url(#pf6cbb4bab1)" style="fill: none; stroke: #000000; stroke-width: 2; stroke-linecap: round"/>
   </g>
   <g id="line2d_10">
    <path d="M 98.688672 22.797 
L 117.682272 22.797 
" clip-path="url(#pf6cbb4bab1)" style="fill: none; stroke: #000000; stroke-width: 2; stroke-linecap: round"/>
   </g>
   <g id="line2d_11">
    <path d="M 154.488672 31.797 
L 167.088672 31.797 
" clip-path="url(#pf6cbb4bab1)" style="fill: none; stroke: #000000; stroke-width: 2; stroke-linecap: round"/>
   </g>
   <g id="line2d_12">
    <path d="M 23.088672 45.297 
L 43.068672 45.297 
M 75.108672 45.297 
L 95.088672 45.297 
" clip-path="url(#pf6cbb4bab1)" style="fill: none; stroke: #000000; stroke-width: 2; stroke-linecap: round"/>
   </g>
   <g id="line2d_13">
    <path d="M 43.068672 27.297 
L 66.468672 45.297 
L 43.068672 63.297 
L 43.068672 27.297 
" clip-path="url(#pf6cbb4bab1)" style="fill: none; stroke: #000000; stroke-width: 2; stroke-linecap: round"/>
   </g>
   <g id="line2d_14">
    <path d="M 98.688672 40.797 
L 95.088672 40.797 
L 95.088672 45.297 
" clip-path="url(#pf6cbb4bab1)" style="fill: none; stroke: #000000; stroke-width: 2; stroke-linecap: round"/>
   </g>
   <g id="line2d_15">
    <path d="M 172.488672 91.197 
L 167.088672 91.197 
L 167.088672 31.797 
" clip-path="url(#pf6cbb4bab1)" style="fill: none; stroke: #000000; stroke-width: 2; stroke-linecap: round"/>
   </g>
   <g id="line2d_16">
    <path d="M 111.288672 103.437 
L 130.831529 103.370878 
L 132.888672 103.077 
L 134.945815 102.54802 
L 137.002958 101.783939 
L 139.0601 100.784755 
L 141.117243 99.550469 
L 143.174386 98.081082 
L 145.231529 96.376592 
L 147.802958 93.915367 
L 150.374386 91.086796 
L 152.945815 87.890878 
L 154.488672 85.797 
L 154.488672 85.797 
L 151.917243 82.380673 
L 149.345815 79.331694 
L 146.774386 76.650061 
L 144.202958 74.335776 
L 142.145815 72.748837 
L 140.088672 71.397 
L 138.031529 70.280265 
L 135.974386 69.398633 
L 133.917243 68.752102 
L 131.8601 68.340673 
L 129.802958 68.164347 
L 129.288672 68.157 
L 111.288672 68.157 
L 111.288672 68.157 
L 113.275872 70.317 
L 115.003872 72.477 
L 116.472672 74.637 
L 117.682272 76.797 
L 118.632672 78.957 
L 119.323872 81.117 
L 119.755872 83.277 
L 119.928672 85.437 
L 119.842272 87.597 
L 119.496672 89.757 
L 118.891872 91.917 
L 118.027872 94.077 
L 116.904672 96.237 
L 115.522272 98.397 
L 113.880672 100.557 
L 111.979872 102.717 
L 111.288672 103.437 
L 111.288672 103.437 
" clip-path="url(#pf6cbb4bab1)" style="fill: none; stroke: #000000; stroke-width: 2; stroke-linecap: round"/>
   </g>
   <g id="line2d_17">
    <path d="M 98.688672 94.797 
L 117.682272 94.797 
" clip-path="url(#pf6cbb4bab1)" style="fill: none; stroke: #000000; stroke-width: 2; stroke-linecap: round"/>
   </g>
   <g id="line2d_18">
    <path d="M 98.688672 76.797 
L 117.682272 76.797 
" clip-path="url(#pf6cbb4bab1)" style="fill: none; stroke: #000000; stroke-width: 2; stroke-linecap: round"/>
   </g>
   <g id="line2d_19">
    <path d="M 154.488672 85.797 
L 167.088672 85.797 
" clip-path="url(#pf6cbb4bab1)" style="fill: none; stroke: #000000; stroke-width: 2; stroke-linecap: round"/>
   </g>
   <g id="line2d_20">
    <path d="M 23.088672 99.297 
L 43.068672 99.297 
M 75.108672 99.297 
L 95.088672 99.297 
" clip-path="url(#pf6cbb4bab1)" style="fill: none; stroke: #000000; stroke-width: 2; stroke-linecap: round"/>
   </g>
   <g id="line2d_21">
    <path d="M 43.068672 81.297 
L 66.468672 99.297 
L 43.068672 117.297 
L 43.068672 81.297 
" clip-path="url(#pf6cbb4bab1)" style="fill: none; stroke: #000000; stroke-width: 2; stroke-linecap: round"/>
   </g>
   <g id="line2d_22">
    <path d="M 98.688672 94.797 
L 95.088672 94.797 
L 95.088672 99.297 
" clip-path="url(#pf6cbb4bab1)" style="fill: none; stroke: #000000; stroke-width: 2; stroke-linecap: round"/>
   </g>
   <g id="line2d_23">
    <path d="M 172.488672 105.597 
L 167.088672 105.597 
L 167.088672 85.797 
" clip-path="url(#pf6cbb4bab1)" style="fill: none; stroke: #000000; stroke-width: 2; stroke-linecap: round"/>
   </g>
   <g id="line2d_24">
    <path d="M 111.288672 157.437 
L 130.831529 157.370878 
L 132.888672 157.077 
L 134.945815 156.54802 
L 137.002958 155.783939 
L 139.0601 154.784755 
L 141.117243 153.550469 
L 143.174386 152.081082 
L 145.231529 150.376592 
L 147.802958 147.915367 
L 150.374386 145.086796 
L 152.945815 141.890878 
L 154.488672 139.797 
L 154.488672 139.797 
L 151.917243 136.380673 
L 149.345815 133.331694 
L 146.774386 130.650061 
L 144.202958 128.335776 
L 142.145815 126.748837 
L 140.088672 125.397 
L 138.031529 124.280265 
L 135.974386 123.398633 
L 133.917243 122.752102 
L 131.8601 122.340673 
L 129.802958 122.164347 
L 129.288672 122.157 
L 111.288672 122.157 
L 111.288672 122.157 
L 113.275872 124.317 
L 115.003872 126.477 
L 116.472672 128.637 
L 117.682272 130.797 
L 118.632672 132.957 
L 119.323872 135.117 
L 119.755872 137.277 
L 119.928672 139.437 
L 119.842272 141.597 
L 119.496672 143.757 
L 118.891872 145.917 
L 118.027872 148.077 
L 116.904672 150.237 
L 115.522272 152.397 
L 113.880672 154.557 
L 111.979872 156.717 
L 111.288672 157.437 
L 111.288672 157.437 
" clip-path="url(#pf6cbb4bab1)" style="fill: none; stroke: #000000; stroke-width: 2; stroke-linecap: round"/>
   </g>
   <g id="line2d_25">
    <path d="M 98.688672 148.797 
L 117.682272 148.797 
" clip-path="url(#pf6cbb4bab1)" style="fill: none; stroke: #000000; stroke-width: 2; stroke-linecap: round"/>
   </g>
   <g id="line2d_26">
    <path d="M 98.688672 130.797 
L 117.682272 130.797 
" clip-path="url(#pf6cbb4bab1)" style="fill: none; stroke: #000000; stroke-width: 2; stroke-linecap: round"/>
   </g>
   <g id="line2d_27">
    <path d="M 154.488672 139.797 
L 167.088672 139.797 
" clip-path="url(#pf6cbb4bab1)" style="fill: none; stroke: #000000; stroke-width: 2; stroke-linecap: round"/>
   </g>
   <g id="line2d_28">
    <path d="M 23.088672 153.297 
L 43.068672 153.297 
M 75.108672 153.297 
L 95.088672 153.297 
" clip-path="url(#pf6cbb4bab1)" style="fill: none; stroke: #000000; stroke-width: 2; stroke-linecap: round"/>
   </g>
   <g id="line2d_29">
    <path d="M 43.068672 135.297 
L 66.468672 153.297 
L 43.068672 171.297 
L 43.068672 135.297 
" clip-path="url(#pf6cbb4bab1)" style="fill: none; stroke: #000000; stroke-width: 2; stroke-linecap: round"/>
   </g>
   <g id="line2d_30">
    <path d="M 98.688672 148.797 
L 95.088672 148.797 
L 95.088672 153.297 
" clip-path="url(#pf6cbb4bab1)" style="fill: none; stroke: #000000; stroke-width: 2; stroke-linecap: round"/>
   </g>
   <g id="line2d_31">
    <path d="M 172.488672 119.997 
L 167.088672 119.997 
L 167.088672 139.797 
" clip-path="url(#pf6cbb4bab1)" style="fill: none; stroke: #000000; stroke-width: 2; stroke-linecap: round"/>
   </g>
   <g id="line2d_32">
    <path d="M 111.288672 211.437 
L 130.831529 211.370878 
L 132.888672 211.077 
L 134.945815 210.54802 
L 137.002958 209.783939 
L 139.0601 208.784755 
L 141.117243 207.550469 
L 143.174386 206.081082 
L 145.231529 204.376592 
L 147.802958 201.915367 
L 150.374386 199.086796 
L 152.945815 195.890878 
L 154.488672 193.797 
L 154.488672 193.797 
L 151.917243 190.380673 
L 149.345815 187.331694 
L 146.774386 184.650061 
L 144.202958 182.335776 
L 142.145815 180.748837 
L 140.088672 179.397 
L 138.031529 178.280265 
L 135.974386 177.398633 
L 133.917243 176.752102 
L 131.8601 176.340673 
L 129.802958 176.164347 
L 129.288672 176.157 
L 111.288672 176.157 
L 111.288672 176.157 
L 113.275872 178.317 
L 115.003872 180.477 
L 116.472672 182.637 
L 117.682272 184.797 
L 118.632672 186.957 
L 119.323872 189.117 
L 119.755872 191.277 
L 119.928672 193.437 
L 119.842272 195.597 
L 119.496672 197.757 
L 118.891872 199.917 
L 118.027872 202.077 
L 116.904672 204.237 
L 115.522272 206.397 
L 113.880672 208.557 
L 111.979872 210.717 
L 111.288672 211.437 
L 111.288672 211.437 
" clip-path="url(#pf6cbb4bab1)" style="fill: none; stroke: #000000; stroke-width: 2; stroke-linecap: round"/>
   </g>
   <g id="line2d_33">
    <path d="M 98.688672 202.797 
L 117.682272 202.797 
" clip-path="url(#pf6cbb4bab1)" style="fill: none; stroke: #000000; stroke-width: 2; stroke-linecap: round"/>
   </g>
   <g id="line2d_34">
    <path d="M 98.688672 184.797 
L 117.682272 184.797 
" clip-path="url(#pf6cbb4bab1)" style="fill: none; stroke: #000000; stroke-width: 2; stroke-linecap: round"/>
   </g>
   <g id="line2d_35">
    <path d="M 154.488672 193.797 
L 167.088672 193.797 
" clip-path="url(#pf6cbb4bab1)" style="fill: none; stroke: #000000; stroke-width: 2; stroke-linecap: round"/>
   </g>
   <g id="line2d_36">
    <path d="M 23.088672 207.297 
L 43.068672 207.297 
M 75.108672 207.297 
L 95.088672 207.297 
" clip-path="url(#pf6cbb4bab1)" style="fill: none; stroke: #000000; stroke-width: 2; stroke-linecap: round"/>
   </g>
   <g id="line2d_37">
    <path d="M 43.068672 189.297 
L 66.468672 207.297 
L 43.068672 225.297 
L 43.068672 189.297 
" clip-path="url(#pf6cbb4bab1)" style="fill: none; stroke: #000000; stroke-width: 2; stroke-linecap: round"/>
   </g>
   <g id="line2d_38">
    <path d="M 98.688672 202.797 
L 95.088672 202.797 
L 95.088672 207.297 
" clip-path="url(#pf6cbb4bab1)" style="fill: none; stroke: #000000; stroke-width: 2; stroke-linecap: round"/>
   </g>
   <g id="line2d_39">
    <path d="M 172.488672 134.397 
L 167.088672 134.397 
L 167.088672 193.797 
" clip-path="url(#pf6cbb4bab1)" style="fill: none; stroke: #000000; stroke-width: 2; stroke-linecap: round"/>
   </g>
   <g id="text_1">
    <!-- = -->
    <g transform="translate(242.688672 116.246219) scale(0.125 -0.125)">
     <defs>
      <path id="DejaVuSans-3d" d="M 678 2906 
L 4684 2906 
L 4684 2381 
L 678 2381 
L 678 2906 
z
M 678 1631 
L 4684 1631 
L 4684 1100 
L 678 1100 
L 678 1631 
z
" transform="scale(0.015625)"/>
     </defs>
     <use xlink:href="#DejaVuSans-3d"/>
    </g>
   </g>
   <g id="text_2">
    <!-- a0 -->
    <g transform="translate(79.475391 26.246219) scale(0.125 -0.125)">
     <defs>
      <path id="DejaVuSans-61" d="M 2194 1759 
Q 1497 1759 1228 1600 
Q 959 1441 959 1056 
Q 959 750 1161 570 
Q 1363 391 1709 391 
Q 2188 391 2477 730 
Q 2766 1069 2766 1631 
L 2766 1759 
L 2194 1759 
z
M 3341 1997 
L 3341 0 
L 2766 0 
L 2766 531 
Q 2569 213 2275 61 
Q 1981 -91 1556 -91 
Q 1019 -91 701 211 
Q 384 513 384 1019 
Q 384 1609 779 1909 
Q 1175 2209 1959 2209 
L 2766 2209 
L 2766 2266 
Q 2766 2663 2505 2880 
Q 2244 3097 1772 3097 
Q 1472 3097 1187 3025 
Q 903 2953 641 2809 
L 641 3341 
Q 956 3463 1253 3523 
Q 1550 3584 1831 3584 
Q 2591 3584 2966 3190 
Q 3341 2797 3341 1997 
z
" transform="scale(0.015625)"/>
      <path id="DejaVuSans-30" d="M 2034 4250 
Q 1547 4250 1301 3770 
Q 1056 3291 1056 2328 
Q 1056 1369 1301 889 
Q 1547 409 2034 409 
Q 2525 409 2770 889 
Q 3016 1369 3016 2328 
Q 3016 3291 2770 3770 
Q 2525 4250 2034 4250 
z
M 2034 4750 
Q 2819 4750 3233 4129 
Q 3647 3509 3647 2328 
Q 3647 1150 3233 529 
Q 2819 -91 2034 -91 
Q 1250 -91 836 529 
Q 422 1150 422 2328 
Q 422 3509 836 4129 
Q 1250 4750 2034 4750 
z
" transform="scale(0.015625)"/>
     </defs>
     <use xlink:href="#DejaVuSans-61"/>
     <use xlink:href="#DejaVuSans-30" x="61.279297"/>
    </g>
   </g>
   <g id="text_3">
    <!-- b0 -->
    <g transform="translate(3.6 48.746219) scale(0.125 -0.125)">
     <defs>
      <path id="DejaVuSans-62" d="M 3116 1747 
Q 3116 2381 2855 2742 
Q 2594 3103 2138 3103 
Q 1681 3103 1420 2742 
Q 1159 2381 1159 1747 
Q 1159 1113 1420 752 
Q 1681 391 2138 391 
Q 2594 391 2855 752 
Q 3116 1113 3116 1747 
z
M 1159 2969 
Q 1341 3281 1617 3432 
Q 1894 3584 2278 3584 
Q 2916 3584 3314 3078 
Q 3713 2572 3713 1747 
Q 3713 922 3314 415 
Q 2916 -91 2278 -91 
Q 1894 -91 1617 61 
Q 1341 213 1159 525 
L 1159 0 
L 581 0 
L 581 4863 
L 1159 4863 
L 1159 2969 
z
" transform="scale(0.015625)"/>
     </defs>
     <use xlink:href="#DejaVuSans-62"/>
     <use xlink:href="#DejaVuSans-30" x="63.476562"/>
    </g>
   </g>
   <g id="text_4">
    <!-- a1 -->
    <g transform="translate(79.475391 80.246219) scale(0.125 -0.125)">
     <defs>
      <path id="DejaVuSans-31" d="M 794 531 
L 1825 531 
L 1825 4091 
L 703 3866 
L 703 4441 
L 1819 4666 
L 2450 4666 
L 2450 531 
L 3481 531 
L 3481 0 
L 794 0 
L 794 531 
z
" transform="scale(0.015625)"/>
     </defs>
     <use xlink:href="#DejaVuSans-61"/>
     <use xlink:href="#DejaVuSans-31" x="61.279297"/>
    </g>
   </g>
   <g id="text_5">
    <!-- b1 -->
    <g transform="translate(3.6 102.746219) scale(0.125 -0.125)">
     <use xlink:href="#DejaVuSans-62"/>
     <use xlink:href="#DejaVuSans-31" x="63.476562"/>
    </g>
   </g>
   <g id="text_6">
    <!-- b0 -->
    <g transform="translate(79.2 134.246219) scale(0.125 -0.125)">
     <use xlink:href="#DejaVuSans-62"/>
     <use xlink:href="#DejaVuSans-30" x="63.476562"/>
    </g>
   </g>
   <g id="text_7">
    <!-- a0 -->
    <g transform="translate(3.875391 156.746219) scale(0.125 -0.125)">
     <use xlink:href="#DejaVuSans-61"/>
     <use xlink:href="#DejaVuSans-30" x="61.279297"/>
    </g>
   </g>
   <g id="text_8">
    <!-- b1 -->
    <g transform="translate(79.2 188.246219) scale(0.125 -0.125)">
     <use xlink:href="#DejaVuSans-62"/>
     <use xlink:href="#DejaVuSans-31" x="63.476562"/>
    </g>
   </g>
   <g id="text_9">
    <!-- a1 -->
    <g transform="translate(3.875391 210.746219) scale(0.125 -0.125)">
     <use xlink:href="#DejaVuSans-61"/>
     <use xlink:href="#DejaVuSans-31" x="61.279297"/>
    </g>
   </g>
  </g>
 </g>
 <defs>
  <clipPath id="pf6cbb4bab1">
   <rect x="12.288672" y="3.6" width="237.6" height="232.254"/>
  </clipPath>
 </defs>
</svg>
