<?xml version="1.0" encoding="utf-8" standalone="no"?>
<!DOCTYPE svg PUBLIC "-//W3C//DTD SVG 1.1//EN"
  "http://www.w3.org/Graphics/SVG/1.1/DTD/svg11.dtd">
<svg xmlns:xlink="http://www.w3.org/1999/xlink" width="114.891797pt" height="46.008pt" viewBox="0 0 114.891797 46.008" xmlns="http://www.w3.org/2000/svg" version="1.1">
 <metadata>
  <rdf:RDF xmlns:dc="http://purl.org/dc/elements/1.1/" xmlns:cc="http://creativecommons.org/ns#" xmlns:rdf="http://www.w3.org/1999/02/22-rdf-syntax-ns#">
   <cc:Work>
    <dc:type rdf:resource="http://purl.org/dc/dcmitype/StillImage"/>
    <dc:date>2024-04-18T17:23:10.987783</dc:date>
    <dc:format>image/svg+xml</dc:format>
    <dc:creator>
     <cc:Agent>
      <dc:title>Matplotlib v3.8.2, https://matplotlib.org/</dc:title>
     </cc:Agent>
    </dc:creator>
   </cc:Work>
  </rdf:RDF>
 </metadata>
 <defs>
  <style type="text/css">*{stroke-linejoin: round; stroke-linecap: butt}</style>
 </defs>
 <g id="figure_1">
  <g id="patch_1">
   <path d="M 0 46.008 
L 114.891797 46.008 
L 114.891797 0 
L 0 0 
z
" style="fill: #ffffff"/>
  </g>
  <g id="axes_1">
   <g id="line2d_1">
    <path d="M 36.303906 40.644 
L 55.846763 40.577878 
L 57.903906 40.284 
L 59.961049 39.75502 
L 62.018192 38.990939 
L 64.075335 37.991755 
L 66.132478 36.757469 
L 68.189621 35.288082 
L 70.246763 33.583592 
L 72.818192 31.122367 
L 75.389621 28.293796 
L 77.961049 25.097878 
L 79.503906 23.004 
L 79.503906 23.004 
L 76.932478 19.587673 
L 74.361049 16.538694 
L 71.789621 13.857061 
L 69.218192 11.542776 
L 67.161049 9.955837 
L 65.103906 8.604 
L 63.046763 7.487265 
L 60.989621 6.605633 
L 58.932478 5.959102 
L 56.875335 5.547673 
L 54.818192 5.371347 
L 54.303906 5.364 
L 36.303906 5.364 
L 36.303906 5.364 
L 38.291106 7.524 
L 40.019106 9.684 
L 41.487906 11.844 
L 42.697506 14.004 
L 43.647906 16.164 
L 44.339106 18.324 
L 44.771106 20.484 
L 44.943906 22.644 
L 44.857506 24.804 
L 44.511906 26.964 
L 43.907106 29.124 
L 43.043106 31.284 
L 41.919906 33.444 
L 40.537506 35.604 
L 38.895906 37.764 
L 36.995106 39.924 
L 36.303906 40.644 
L 36.303906 40.644 
" clip-path="url(#p1437836859)" style="fill: none; stroke: #000000; stroke-width: 2; stroke-linecap: round"/>
   </g>
   <g id="line2d_2">
    <path d="M 23.703906 32.004 
L 42.697506 32.004 
" clip-path="url(#p1437836859)" style="fill: none; stroke: #000000; stroke-width: 2; stroke-linecap: round"/>
   </g>
   <g id="line2d_3">
    <path d="M 23.703906 14.004 
L 42.697506 14.004 
" clip-path="url(#p1437836859)" style="fill: none; stroke: #000000; stroke-width: 2; stroke-linecap: round"/>
   </g>
   <g id="line2d_4">
    <path d="M 79.503906 23.004 
L 92.103906 23.004 
" clip-path="url(#p1437836859)" style="fill: none; stroke: #000000; stroke-width: 2; stroke-linecap: round"/>
   </g>
   <g id="text_1">
    <!-- Y0 -->
    <g transform="translate(95.703906 26.453219) scale(0.125 -0.125)">
     <defs>
      <path id="DejaVuSans-59" d="M -13 4666 
L 666 4666 
L 1959 2747 
L 3244 4666 
L 3922 4666 
L 2272 2222 
L 2272 0 
L 1638 0 
L 1638 2222 
L -13 4666 
z
" transform="scale(0.015625)"/>
      <path id="DejaVuSans-30" d="M 2034 4250 
Q 1547 4250 1301 3770 
Q 1056 3291 1056 2328 
Q 1056 1369 1301 889 
Q 1547 409 2034 409 
Q 2525 409 2770 889 
Q 3016 1369 3016 2328 
Q 3016 3291 2770 3770 
Q 2525 4250 2034 4250 
z
M 2034 4750 
Q 2819 4750 3233 4129 
Q 3647 3509 3647 2328 
Q 3647 1150 3233 529 
Q 2819 -91 2034 -91 
Q 1250 -91 836 529 
Q 422 1150 422 2328 
Q 422 3509 836 4129 
Q 1250 4750 2034 4750 
z
" transform="scale(0.015625)"/>
     </defs>
     <use xlink:href="#DejaVuSans-59"/>
     <use xlink:href="#DejaVuSans-30" x="61.083984"/>
    </g>
   </g>
   <g id="text_2">
    <!-- A1 -->
    <g transform="translate(3.6 17.453219) scale(0.125 -0.125)">
     <defs>
      <path id="DejaVuSans-41" d="M 2188 4044 
L 1331 1722 
L 3047 1722 
L 2188 4044 
z
M 1831 4666 
L 2547 4666 
L 4325 0 
L 3669 0 
L 3244 1197 
L 1141 1197 
L 716 0 
L 50 0 
L 1831 4666 
z
" transform="scale(0.015625)"/>
      <path id="DejaVuSans-31" d="M 794 531 
L 1825 531 
L 1825 4091 
L 703 3866 
L 703 4441 
L 1819 4666 
L 2450 4666 
L 2450 531 
L 3481 531 
L 3481 0 
L 794 0 
L 794 531 
z
" transform="scale(0.015625)"/>
     </defs>
     <use xlink:href="#DejaVuSans-41"/>
     <use xlink:href="#DejaVuSans-31" x="68.408203"/>
    </g>
   </g>
   <g id="text_3">
    <!-- A0 -->
    <g transform="translate(3.6 35.453219) scale(0.125 -0.125)">
     <use xlink:href="#DejaVuSans-41"/>
     <use xlink:href="#DejaVuSans-30" x="68.408203"/>
    </g>
   </g>
  </g>
 </g>
 <defs>
  <clipPath id="p1437836859">
   <rect x="20.283906" y="3.6" width="75.24" height="38.808"/>
  </clipPath>
 </defs>
</svg>
