<?xml version="1.0" encoding="utf-8" standalone="no"?>
<!DOCTYPE svg PUBLIC "-//W3C//DTD SVG 1.1//EN"
  "http://www.w3.org/Graphics/SVG/1.1/DTD/svg11.dtd">
<svg xmlns:xlink="http://www.w3.org/1999/xlink" width="100.274609pt" height="46.008pt" viewBox="0 0 100.274609 46.008" xmlns="http://www.w3.org/2000/svg" version="1.1">
 <metadata>
  <rdf:RDF xmlns:dc="http://purl.org/dc/elements/1.1/" xmlns:cc="http://creativecommons.org/ns#" xmlns:rdf="http://www.w3.org/1999/02/22-rdf-syntax-ns#">
   <cc:Work>
    <dc:type rdf:resource="http://purl.org/dc/dcmitype/StillImage"/>
    <dc:date>2024-02-21T19:39:42.430535</dc:date>
    <dc:format>image/svg+xml</dc:format>
    <dc:creator>
     <cc:Agent>
      <dc:title>Matplotlib v3.8.2, https://matplotlib.org/</dc:title>
     </cc:Agent>
    </dc:creator>
   </cc:Work>
  </rdf:RDF>
 </metadata>
 <defs>
  <style type="text/css">*{stroke-linejoin: round; stroke-linecap: butt}</style>
 </defs>
 <g id="figure_1">
  <g id="patch_1">
   <path d="M 0 46.008 
L 100.274609 46.008 
L 100.274609 0 
L 0 0 
z
" style="fill: #ffffff"/>
  </g>
  <g id="axes_1">
   <g id="line2d_1">
    <path d="M 29.639844 40.644 
L 49.182701 40.577878 
L 51.239844 40.284 
L 53.296987 39.75502 
L 55.354129 38.990939 
L 57.411272 37.991755 
L 59.468415 36.757469 
L 61.525558 35.288082 
L 63.582701 33.583592 
L 66.154129 31.122367 
L 68.725558 28.293796 
L 71.296987 25.097878 
L 72.839844 23.004 
L 72.839844 23.004 
L 70.268415 19.587673 
L 67.696987 16.538694 
L 65.125558 13.857061 
L 62.554129 11.542776 
L 60.496987 9.955837 
L 58.439844 8.604 
L 56.382701 7.487265 
L 54.325558 6.605633 
L 52.268415 5.959102 
L 50.211272 5.547673 
L 48.154129 5.371347 
L 47.639844 5.364 
L 29.639844 5.364 
L 29.639844 5.364 
L 31.627044 7.524 
L 33.355044 9.684 
L 34.823844 11.844 
L 36.033444 14.004 
L 36.983844 16.164 
L 37.675044 18.324 
L 38.107044 20.484 
L 38.279844 22.644 
L 38.193444 24.804 
L 37.847844 26.964 
L 37.243044 29.124 
L 36.379044 31.284 
L 35.255844 33.444 
L 33.873444 35.604 
L 32.231844 37.764 
L 30.331044 39.924 
L 29.639844 40.644 
L 29.639844 40.644 
" clip-path="url(#p0766d62637)" style="fill: none; stroke: #000000; stroke-width: 2; stroke-linecap: round"/>
   </g>
   <g id="line2d_2">
    <path d="M 24.239844 40.644 
L 24.931044 39.924 
L 25.593444 39.204 
L 26.227044 38.484 
L 26.831844 37.764 
L 27.407844 37.044 
L 27.955044 36.324 
L 28.473444 35.604 
L 28.963044 34.884 
L 29.423844 34.164 
L 29.855844 33.444 
L 30.259044 32.724 
L 30.633444 32.004 
L 30.979044 31.284 
L 31.295844 30.564 
L 31.583844 29.844 
L 31.843044 29.124 
L 32.073444 28.404 
L 32.275044 27.684 
L 32.447844 26.964 
L 32.591844 26.244 
L 32.707044 25.524 
L 32.793444 24.804 
L 32.851044 24.084 
L 32.879844 23.364 
L 32.879844 22.644 
L 32.851044 21.924 
L 32.793444 21.204 
L 32.707044 20.484 
L 32.591844 19.764 
L 32.447844 19.044 
L 32.275044 18.324 
L 32.073444 17.604 
L 31.843044 16.884 
L 31.583844 16.164 
L 31.295844 15.444 
L 30.979044 14.724 
L 30.633444 14.004 
L 30.259044 13.284 
L 29.855844 12.564 
L 29.423844 11.844 
L 28.963044 11.124 
L 28.473444 10.404 
L 27.955044 9.684 
L 27.407844 8.964 
L 26.831844 8.244 
L 26.227044 7.524 
L 25.593444 6.804 
L 24.931044 6.084 
L 24.239844 5.364 
" clip-path="url(#p0766d62637)" style="fill: none; stroke: #000000; stroke-width: 2; stroke-linecap: round"/>
   </g>
   <g id="line2d_3">
    <path d="M 17.039844 32.004 
L 30.633444 32.004 
" clip-path="url(#p0766d62637)" style="fill: none; stroke: #000000; stroke-width: 2; stroke-linecap: round"/>
   </g>
   <g id="line2d_4">
    <path d="M 17.039844 14.004 
L 30.633444 14.004 
" clip-path="url(#p0766d62637)" style="fill: none; stroke: #000000; stroke-width: 2; stroke-linecap: round"/>
   </g>
   <g id="line2d_5">
    <path d="M 72.839844 23.004 
L 85.439844 23.004 
" clip-path="url(#p0766d62637)" style="fill: none; stroke: #000000; stroke-width: 2; stroke-linecap: round"/>
   </g>
   <g id="text_1">
    <!-- Y -->
    <g transform="translate(89.039844 26.453219) scale(0.125 -0.125)">
     <defs>
      <path id="DejaVuSans-59" d="M -13 4666 
L 666 4666 
L 1959 2747 
L 3244 4666 
L 3922 4666 
L 2272 2222 
L 2272 0 
L 1638 0 
L 1638 2222 
L -13 4666 
z
" transform="scale(0.015625)"/>
     </defs>
     <use xlink:href="#DejaVuSans-59"/>
    </g>
   </g>
   <g id="text_2">
    <!-- Q -->
    <g transform="translate(3.6 17.453219) scale(0.125 -0.125)">
     <defs>
      <path id="DejaVuSans-51" d="M 2522 4238 
Q 1834 4238 1429 3725 
Q 1025 3213 1025 2328 
Q 1025 1447 1429 934 
Q 1834 422 2522 422 
Q 3209 422 3611 934 
Q 4013 1447 4013 2328 
Q 4013 3213 3611 3725 
Q 3209 4238 2522 4238 
z
M 3406 84 
L 4238 -825 
L 3475 -825 
L 2784 -78 
Q 2681 -84 2626 -87 
Q 2572 -91 2522 -91 
Q 1538 -91 948 567 
Q 359 1225 359 2328 
Q 359 3434 948 4092 
Q 1538 4750 2522 4750 
Q 3503 4750 4090 4092 
Q 4678 3434 4678 2328 
Q 4678 1516 4351 937 
Q 4025 359 3406 84 
z
" transform="scale(0.015625)"/>
     </defs>
     <use xlink:href="#DejaVuSans-51"/>
    </g>
   </g>
   <g id="text_3">
    <!-- V -->
    <g transform="translate(4.889063 35.453219) scale(0.125 -0.125)">
     <defs>
      <path id="DejaVuSans-56" d="M 1831 0 
L 50 4666 
L 709 4666 
L 2188 738 
L 3669 4666 
L 4325 4666 
L 2547 0 
L 1831 0 
z
" transform="scale(0.015625)"/>
     </defs>
     <use xlink:href="#DejaVuSans-56"/>
    </g>
   </g>
  </g>
 </g>
 <defs>
  <clipPath id="p0766d62637">
   <rect x="13.619844" y="3.6" width="75.24" height="38.808"/>
  </clipPath>
 </defs>
</svg>
