<?xml version="1.0" encoding="utf-8" standalone="no"?>
<!DOCTYPE svg PUBLIC "-//W3C//DTD SVG 1.1//EN"
  "http://www.w3.org/Graphics/SVG/1.1/DTD/svg11.dtd">
<svg xmlns:xlink="http://www.w3.org/1999/xlink" width="245.970312pt" height="106.2pt" viewBox="0 0 245.970312 106.2" xmlns="http://www.w3.org/2000/svg" version="1.1">
 <metadata>
  <rdf:RDF xmlns:dc="http://purl.org/dc/elements/1.1/" xmlns:cc="http://creativecommons.org/ns#" xmlns:rdf="http://www.w3.org/1999/02/22-rdf-syntax-ns#">
   <cc:Work>
    <dc:type rdf:resource="http://purl.org/dc/dcmitype/StillImage"/>
    <dc:date>2024-02-21T19:46:30.505822</dc:date>
    <dc:format>image/svg+xml</dc:format>
    <dc:creator>
     <cc:Agent>
      <dc:title>Matplotlib v3.8.2, https://matplotlib.org/</dc:title>
     </cc:Agent>
    </dc:creator>
   </cc:Work>
  </rdf:RDF>
 </metadata>
 <defs>
  <style type="text/css">*{stroke-linejoin: round; stroke-linecap: butt}</style>
 </defs>
 <g id="figure_1">
  <g id="patch_1">
   <path d="M 0 106.2 
L 245.970312 106.2 
L 245.970312 0 
L 0 0 
z
" style="fill: #ffffff"/>
  </g>
  <g id="axes_1">
   <g id="patch_2">
    <path d="M 62.835547 70.92 
C 63.981224 70.92 65.080132 70.464818 65.890248 69.654701 
C 66.700364 68.844585 67.155547 67.745677 67.155547 66.6 
C 67.155547 65.454323 66.700364 64.355415 65.890248 63.545299 
C 65.080132 62.735182 63.981224 62.28 62.835547 62.28 
C 61.689869 62.28 60.590962 62.735182 59.780846 63.545299 
C 58.970729 64.355415 58.515547 65.454323 58.515547 66.6 
C 58.515547 67.745677 58.970729 68.844585 59.780846 69.654701 
C 60.590962 70.464818 61.689869 70.92 62.835547 70.92 
L 62.835547 70.92 
z
" clip-path="url(#p2a5e25acaf)" style="fill: none; stroke: #000000; stroke-width: 2; stroke-linejoin: miter"/>
   </g>
   <g id="line2d_1">
    <path d="M 175.335547 70.74 
L 194.878404 70.673878 
L 196.935547 70.38 
L 198.99269 69.85102 
L 201.049833 69.086939 
L 203.106975 68.087755 
L 205.164118 66.853469 
L 207.221261 65.384082 
L 209.278404 63.679592 
L 211.849833 61.218367 
L 214.421261 58.389796 
L 216.99269 55.193878 
L 218.535547 53.1 
L 218.535547 53.1 
L 215.964118 49.683673 
L 213.39269 46.634694 
L 210.821261 43.953061 
L 208.249833 41.638776 
L 206.19269 40.051837 
L 204.135547 38.7 
L 202.078404 37.583265 
L 200.021261 36.701633 
L 197.964118 36.055102 
L 195.906975 35.643673 
L 193.849833 35.467347 
L 193.335547 35.46 
L 175.335547 35.46 
L 175.335547 35.46 
L 177.322747 37.62 
L 179.050747 39.78 
L 180.519547 41.94 
L 181.729147 44.1 
L 182.679547 46.26 
L 183.370747 48.42 
L 183.802747 50.58 
L 183.975547 52.74 
L 183.889147 54.9 
L 183.543547 57.06 
L 182.938747 59.22 
L 182.074747 61.38 
L 180.951547 63.54 
L 179.569147 65.7 
L 177.927547 67.86 
L 176.026747 70.02 
L 175.335547 70.74 
L 175.335547 70.74 
" clip-path="url(#p2a5e25acaf)" style="fill: none; stroke: #000000; stroke-width: 2; stroke-linecap: round"/>
   </g>
   <g id="line2d_2">
    <path d="M 162.735547 62.1 
L 181.729147 62.1 
" clip-path="url(#p2a5e25acaf)" style="fill: none; stroke: #000000; stroke-width: 2; stroke-linecap: round"/>
   </g>
   <g id="line2d_3">
    <path d="M 162.735547 44.1 
L 181.729147 44.1 
" clip-path="url(#p2a5e25acaf)" style="fill: none; stroke: #000000; stroke-width: 2; stroke-linecap: round"/>
   </g>
   <g id="line2d_4">
    <path d="M 218.535547 53.1 
L 231.135547 53.1 
" clip-path="url(#p2a5e25acaf)" style="fill: none; stroke: #000000; stroke-width: 2; stroke-linecap: round"/>
   </g>
   <g id="line2d_5">
    <path d="M 128.535547 44.1 
L 129.688811 44.063017 
L 130.837336 43.95222 
L 131.976402 43.768065 
L 133.101329 43.511308 
L 134.207495 43.183003 
L 135.290353 42.784502 
L 136.345454 42.31744 
L 137.368463 41.783737 
L 138.355175 41.185586 
L 139.301536 40.525445 
L 140.203658 39.806027 
L 141.057833 39.030288 
L 141.860551 38.201416 
L 142.608514 37.322816 
L 143.298647 36.3981 
L 143.928117 35.431066 
L 144.494334 34.425689 
L 144.994974 33.3861 
L 145.427978 32.316571 
L 145.791568 31.221497 
L 146.084249 30.105377 
L 146.304819 28.972798 
L 146.452371 27.828414 
L 146.526299 26.676928 
L 146.526299 25.523072 
L 146.452371 24.371586 
L 146.304819 23.227202 
L 146.084249 22.094623 
L 145.791568 20.978503 
L 145.427978 19.883429 
L 144.994974 18.8139 
L 144.494334 17.774311 
L 143.928117 16.768934 
L 143.298647 15.8019 
L 142.608514 14.877184 
L 141.860551 13.998584 
L 141.057833 13.169712 
L 140.203658 12.393973 
L 139.301536 11.674555 
L 138.355175 11.014414 
L 137.368463 10.416263 
L 136.345454 9.88256 
L 135.290353 9.415498 
L 134.207495 9.016997 
L 133.101329 8.688692 
L 131.976402 8.431935 
L 130.837336 8.24778 
L 129.688811 8.136983 
L 128.535547 8.1 
L 128.535547 8.1 
L 105.135547 8.1 
L 105.135547 26.1 
L 105.135547 44.1 
L 128.535547 44.1 
" clip-path="url(#p2a5e25acaf)" style="fill: none; stroke: #000000; stroke-width: 2; stroke-linecap: round"/>
   </g>
   <g id="line2d_6">
    <path d="M 92.535547 35.1 
L 105.135547 35.1 
" clip-path="url(#p2a5e25acaf)" style="fill: none; stroke: #000000; stroke-width: 2; stroke-linecap: round"/>
   </g>
   <g id="line2d_7">
    <path d="M 92.535547 17.1 
L 105.135547 17.1 
" clip-path="url(#p2a5e25acaf)" style="fill: none; stroke: #000000; stroke-width: 2; stroke-linecap: round"/>
   </g>
   <g id="line2d_8">
    <path d="M 146.535547 26.1 
L 159.135547 26.1 
" clip-path="url(#p2a5e25acaf)" style="fill: none; stroke: #000000; stroke-width: 2; stroke-linecap: round"/>
   </g>
   <g id="line2d_9">
    <path d="M 162.735547 44.1 
L 159.135547 44.1 
L 159.135547 26.1 
" clip-path="url(#p2a5e25acaf)" style="fill: none; stroke: #000000; stroke-width: 2; stroke-linecap: round"/>
   </g>
   <g id="line2d_10">
    <path d="M 128.535547 98.1 
L 129.688811 98.063017 
L 130.837336 97.95222 
L 131.976402 97.768065 
L 133.101329 97.511308 
L 134.207495 97.183003 
L 135.290353 96.784502 
L 136.345454 96.31744 
L 137.368463 95.783737 
L 138.355175 95.185586 
L 139.301536 94.525445 
L 140.203658 93.806027 
L 141.057833 93.030288 
L 141.860551 92.201416 
L 142.608514 91.322816 
L 143.298647 90.3981 
L 143.928117 89.431066 
L 144.494334 88.425689 
L 144.994974 87.3861 
L 145.427978 86.316571 
L 145.791568 85.221497 
L 146.084249 84.105377 
L 146.304819 82.972798 
L 146.452371 81.828414 
L 146.526299 80.676928 
L 146.526299 79.523072 
L 146.452371 78.371586 
L 146.304819 77.227202 
L 146.084249 76.094623 
L 145.791568 74.978503 
L 145.427978 73.883429 
L 144.994974 72.8139 
L 144.494334 71.774311 
L 143.928117 70.768934 
L 143.298647 69.8019 
L 142.608514 68.877184 
L 141.860551 67.998584 
L 141.057833 67.169712 
L 140.203658 66.393973 
L 139.301536 65.674555 
L 138.355175 65.014414 
L 137.368463 64.416263 
L 136.345454 63.88256 
L 135.290353 63.415498 
L 134.207495 63.016997 
L 133.101329 62.688692 
L 131.976402 62.431935 
L 130.837336 62.24778 
L 129.688811 62.136983 
L 128.535547 62.1 
L 128.535547 62.1 
L 105.135547 62.1 
L 105.135547 80.1 
L 105.135547 98.1 
L 128.535547 98.1 
" clip-path="url(#p2a5e25acaf)" style="fill: none; stroke: #000000; stroke-width: 2; stroke-linecap: round"/>
   </g>
   <g id="line2d_11">
    <path d="M 92.535547 89.1 
L 105.135547 89.1 
" clip-path="url(#p2a5e25acaf)" style="fill: none; stroke: #000000; stroke-width: 2; stroke-linecap: round"/>
   </g>
   <g id="line2d_12">
    <path d="M 92.535547 71.1 
L 105.135547 71.1 
" clip-path="url(#p2a5e25acaf)" style="fill: none; stroke: #000000; stroke-width: 2; stroke-linecap: round"/>
   </g>
   <g id="line2d_13">
    <path d="M 146.535547 80.1 
L 159.135547 80.1 
" clip-path="url(#p2a5e25acaf)" style="fill: none; stroke: #000000; stroke-width: 2; stroke-linecap: round"/>
   </g>
   <g id="line2d_14">
    <path d="M 15.135547 66.6 
L 35.115547 66.6 
M 67.155547 66.6 
L 87.135547 66.6 
" clip-path="url(#p2a5e25acaf)" style="fill: none; stroke: #000000; stroke-width: 2; stroke-linecap: round"/>
   </g>
   <g id="line2d_15">
    <path d="M 35.115547 48.6 
L 58.515547 66.6 
L 35.115547 84.6 
L 35.115547 48.6 
" clip-path="url(#p2a5e25acaf)" style="fill: none; stroke: #000000; stroke-width: 2; stroke-linecap: round"/>
   </g>
   <g id="line2d_16">
    <path d="M 92.535547 71.1 
L 87.135547 71.1 
L 87.135547 66.6 
" clip-path="url(#p2a5e25acaf)" style="fill: none; stroke: #000000; stroke-width: 2; stroke-linecap: round"/>
   </g>
   <g id="line2d_17">
    <path d="M 162.735547 62.1 
L 159.135547 62.1 
L 159.135547 80.1 
" clip-path="url(#p2a5e25acaf)" style="fill: none; stroke: #000000; stroke-width: 2; stroke-linecap: round"/>
   </g>
   <g id="text_1">
    <!-- Y -->
    <g transform="translate(234.735547 56.549219) scale(0.125 -0.125)">
     <defs>
      <path id="DejaVuSans-59" d="M -13 4666 
L 666 4666 
L 1959 2747 
L 3244 4666 
L 3922 4666 
L 2272 2222 
L 2272 0 
L 1638 0 
L 1638 2222 
L -13 4666 
z
" transform="scale(0.015625)"/>
     </defs>
     <use xlink:href="#DejaVuSans-59"/>
    </g>
   </g>
   <g id="text_2">
    <!-- S -->
    <g transform="translate(81 20.549219) scale(0.125 -0.125)">
     <defs>
      <path id="DejaVuSans-53" d="M 3425 4513 
L 3425 3897 
Q 3066 4069 2747 4153 
Q 2428 4238 2131 4238 
Q 1616 4238 1336 4038 
Q 1056 3838 1056 3469 
Q 1056 3159 1242 3001 
Q 1428 2844 1947 2747 
L 2328 2669 
Q 3034 2534 3370 2195 
Q 3706 1856 3706 1288 
Q 3706 609 3251 259 
Q 2797 -91 1919 -91 
Q 1588 -91 1214 -16 
Q 841 59 441 206 
L 441 856 
Q 825 641 1194 531 
Q 1563 422 1919 422 
Q 2459 422 2753 634 
Q 3047 847 3047 1241 
Q 3047 1584 2836 1778 
Q 2625 1972 2144 2069 
L 1759 2144 
Q 1053 2284 737 2584 
Q 422 2884 422 3419 
Q 422 4038 858 4394 
Q 1294 4750 2059 4750 
Q 2388 4750 2728 4690 
Q 3069 4631 3425 4513 
z
" transform="scale(0.015625)"/>
     </defs>
     <use xlink:href="#DejaVuSans-53"/>
    </g>
   </g>
   <g id="text_3">
    <!-- X0 -->
    <g transform="translate(72.419922 38.549219) scale(0.125 -0.125)">
     <defs>
      <path id="DejaVuSans-58" d="M 403 4666 
L 1081 4666 
L 2241 2931 
L 3406 4666 
L 4084 4666 
L 2584 2425 
L 4184 0 
L 3506 0 
L 2194 1984 
L 872 0 
L 191 0 
L 1856 2491 
L 403 4666 
z
" transform="scale(0.015625)"/>
      <path id="DejaVuSans-30" d="M 2034 4250 
Q 1547 4250 1301 3770 
Q 1056 3291 1056 2328 
Q 1056 1369 1301 889 
Q 1547 409 2034 409 
Q 2525 409 2770 889 
Q 3016 1369 3016 2328 
Q 3016 3291 2770 3770 
Q 2525 4250 2034 4250 
z
M 2034 4750 
Q 2819 4750 3233 4129 
Q 3647 3509 3647 2328 
Q 3647 1150 3233 529 
Q 2819 -91 2034 -91 
Q 1250 -91 836 529 
Q 422 1150 422 2328 
Q 422 3509 836 4129 
Q 1250 4750 2034 4750 
z
" transform="scale(0.015625)"/>
     </defs>
     <use xlink:href="#DejaVuSans-58"/>
     <use xlink:href="#DejaVuSans-30" x="68.505859"/>
    </g>
   </g>
   <g id="text_4">
    <!-- X1 -->
    <g transform="translate(72.419922 92.549219) scale(0.125 -0.125)">
     <defs>
      <path id="DejaVuSans-31" d="M 794 531 
L 1825 531 
L 1825 4091 
L 703 3866 
L 703 4441 
L 1819 4666 
L 2450 4666 
L 2450 531 
L 3481 531 
L 3481 0 
L 794 0 
L 794 531 
z
" transform="scale(0.015625)"/>
     </defs>
     <use xlink:href="#DejaVuSans-58"/>
     <use xlink:href="#DejaVuSans-31" x="68.505859"/>
    </g>
   </g>
   <g id="text_5">
    <!-- S -->
    <g transform="translate(3.6 70.049219) scale(0.125 -0.125)">
     <use xlink:href="#DejaVuSans-53"/>
    </g>
   </g>
  </g>
 </g>
 <defs>
  <clipPath id="p2a5e25acaf">
   <rect x="4.335547" y="3.6" width="237.6" height="99"/>
  </clipPath>
 </defs>
</svg>
