<?xml version="1.0" encoding="utf-8" standalone="no"?>
<!DOCTYPE svg PUBLIC "-//W3C//DTD SVG 1.1//EN"
  "http://www.w3.org/Graphics/SVG/1.1/DTD/svg11.dtd">
<svg xmlns:xlink="http://www.w3.org/1999/xlink" width="247.176pt" height="145.8pt" viewBox="0 0 247.176 145.8" xmlns="http://www.w3.org/2000/svg" version="1.1">
 <metadata>
  <rdf:RDF xmlns:dc="http://purl.org/dc/elements/1.1/" xmlns:cc="http://creativecommons.org/ns#" xmlns:rdf="http://www.w3.org/1999/02/22-rdf-syntax-ns#">
   <cc:Work>
    <dc:type rdf:resource="http://purl.org/dc/dcmitype/StillImage"/>
    <dc:date>2024-04-18T17:23:10.776821</dc:date>
    <dc:format>image/svg+xml</dc:format>
    <dc:creator>
     <cc:Agent>
      <dc:title>Matplotlib v3.8.2, https://matplotlib.org/</dc:title>
     </cc:Agent>
    </dc:creator>
   </cc:Work>
  </rdf:RDF>
 </metadata>
 <defs>
  <style type="text/css">*{stroke-linejoin: round; stroke-linecap: butt}</style>
 </defs>
 <g id="figure_1">
  <g id="patch_1">
   <path d="M 0 145.8 
L 247.176 145.8 
L 247.176 0 
L 0 0 
z
" style="fill: #ffffff"/>
  </g>
  <g id="axes_1">
   <g id="line2d_1">
    <path d="M 51.264 9.9 
L 51.264 135.9 
" clip-path="url(#p9e118bd9be)" style="fill: none; stroke: #000000; stroke-linecap: round"/>
   </g>
   <g id="line2d_2">
    <path d="M 85.752 9.9 
L 85.752 135.9 
" clip-path="url(#p9e118bd9be)" style="fill: none; stroke: #000000; stroke-linecap: round"/>
   </g>
   <g id="line2d_3">
    <path d="M 87.912 9.9 
L 87.912 135.9 
" clip-path="url(#p9e118bd9be)" style="fill: none; stroke: #000000; stroke-linecap: round"/>
   </g>
   <g id="line2d_4">
    <path d="M 123.588 9.9 
L 123.588 135.9 
" clip-path="url(#p9e118bd9be)" style="fill: none; stroke: #000000; stroke-linecap: round"/>
   </g>
   <g id="line2d_5">
    <path d="M 159.156 9.9 
L 159.156 135.9 
" clip-path="url(#p9e118bd9be)" style="fill: none; stroke: #000000; stroke-linecap: round"/>
   </g>
   <g id="line2d_6">
    <path d="M 195.912 9.9 
L 195.912 135.9 
" clip-path="url(#p9e118bd9be)" style="fill: none; stroke: #000000; stroke-linecap: round"/>
   </g>
   <g id="line2d_7">
    <path d="M 14.508 36.18 
L 232.668 36.18 
" clip-path="url(#p9e118bd9be)" style="fill: none; stroke: #000000; stroke-linecap: round"/>
   </g>
   <g id="line2d_8">
    <path d="M 14.508 34.02 
L 232.668 34.02 
" clip-path="url(#p9e118bd9be)" style="fill: none; stroke: #000000; stroke-linecap: round"/>
   </g>
   <g id="line2d_9">
    <path d="M 14.508 60.3 
L 232.668 60.3 
" clip-path="url(#p9e118bd9be)" style="fill: none; stroke: #000000; stroke-linecap: round"/>
   </g>
   <g id="line2d_10">
    <path d="M 14.508 85.5 
L 232.668 85.5 
" clip-path="url(#p9e118bd9be)" style="fill: none; stroke: #000000; stroke-linecap: round"/>
   </g>
   <g id="line2d_11">
    <path d="M 14.508 110.7 
L 232.668 110.7 
" clip-path="url(#p9e118bd9be)" style="fill: none; stroke: #000000; stroke-linecap: round"/>
   </g>
   <g id="text_1">
    <!-- A0 -->
    <g transform="translate(22.802953 31.570547) scale(0.165 -0.165)">
     <defs>
      <path id="TimesNewRomanPSMT-41" d="M 2928 1419 
L 1288 1419 
L 1000 750 
Q 894 503 894 381 
Q 894 284 986 211 
Q 1078 138 1384 116 
L 1384 0 
L 50 0 
L 50 116 
Q 316 163 394 238 
Q 553 388 747 847 
L 2238 4334 
L 2347 4334 
L 3822 809 
Q 4000 384 4145 257 
Q 4291 131 4550 116 
L 4550 0 
L 2878 0 
L 2878 116 
Q 3131 128 3220 200 
Q 3309 272 3309 375 
Q 3309 513 3184 809 
L 2928 1419 
z
M 2841 1650 
L 2122 3363 
L 1384 1650 
L 2841 1650 
z
" transform="scale(0.015625)"/>
      <path id="TimesNewRomanPSMT-30" d="M 231 2094 
Q 231 2819 450 3342 
Q 669 3866 1031 4122 
Q 1313 4325 1613 4325 
Q 2100 4325 2488 3828 
Q 2972 3213 2972 2159 
Q 2972 1422 2759 906 
Q 2547 391 2217 158 
Q 1888 -75 1581 -75 
Q 975 -75 572 641 
Q 231 1244 231 2094 
z
M 844 2016 
Q 844 1141 1059 588 
Q 1238 122 1591 122 
Q 1759 122 1940 273 
Q 2122 425 2216 781 
Q 2359 1319 2359 2297 
Q 2359 3022 2209 3506 
Q 2097 3866 1919 4016 
Q 1791 4119 1609 4119 
Q 1397 4119 1231 3928 
Q 1006 3669 925 3112 
Q 844 2556 844 2016 
z
" transform="scale(0.015625)"/>
     </defs>
     <use xlink:href="#TimesNewRomanPSMT-41"/>
     <use xlink:href="#TimesNewRomanPSMT-30" x="72.216797"/>
    </g>
   </g>
   <g id="text_2">
    <!-- A1 -->
    <g transform="translate(58.964953 31.570547) scale(0.165 -0.165)">
     <defs>
      <path id="TimesNewRomanPSMT-31" d="M 750 3822 
L 1781 4325 
L 1884 4325 
L 1884 747 
Q 1884 391 1914 303 
Q 1944 216 2037 169 
Q 2131 122 2419 116 
L 2419 0 
L 825 0 
L 825 116 
Q 1125 122 1212 167 
Q 1300 213 1334 289 
Q 1369 366 1369 747 
L 1369 3034 
Q 1369 3497 1338 3628 
Q 1316 3728 1258 3775 
Q 1200 3822 1119 3822 
Q 1003 3822 797 3725 
L 750 3822 
z
" transform="scale(0.015625)"/>
     </defs>
     <use xlink:href="#TimesNewRomanPSMT-41"/>
     <use xlink:href="#TimesNewRomanPSMT-31" x="72.216797"/>
    </g>
   </g>
   <g id="text_3">
    <!-- Y0 -->
    <g transform="translate(95.126953 31.570547) scale(0.165 -0.165)">
     <defs>
      <path id="TimesNewRomanPSMT-59" d="M 3050 4238 
L 4528 4238 
L 4528 4122 
L 4447 4122 
Q 4366 4122 4209 4050 
Q 4053 3978 3925 3843 
Q 3797 3709 3609 3406 
L 2588 1797 
L 2588 734 
Q 2588 344 2675 247 
Q 2794 116 3050 116 
L 3188 116 
L 3188 0 
L 1388 0 
L 1388 116 
L 1538 116 
Q 1806 116 1919 278 
Q 1988 378 1988 734 
L 1988 1738 
L 825 3513 
Q 619 3825 545 3903 
Q 472 3981 241 4091 
Q 178 4122 59 4122 
L 59 4238 
L 1872 4238 
L 1872 4122 
L 1778 4122 
Q 1631 4122 1507 4053 
Q 1384 3984 1384 3847 
Q 1384 3734 1575 3441 
L 2459 2075 
L 3291 3381 
Q 3478 3675 3478 3819 
Q 3478 3906 3433 3975 
Q 3388 4044 3303 4083 
Q 3219 4122 3050 4122 
L 3050 4238 
z
" transform="scale(0.015625)"/>
     </defs>
     <use xlink:href="#TimesNewRomanPSMT-59"/>
     <use xlink:href="#TimesNewRomanPSMT-30" x="72.216797"/>
    </g>
   </g>
   <g id="text_4">
    <!-- Y1 -->
    <g transform="translate(131.288953 31.570547) scale(0.165 -0.165)">
     <use xlink:href="#TimesNewRomanPSMT-59"/>
     <use xlink:href="#TimesNewRomanPSMT-31" x="72.216797"/>
    </g>
   </g>
   <g id="text_5">
    <!-- Y2 -->
    <g transform="translate(167.450953 31.570547) scale(0.165 -0.165)">
     <defs>
      <path id="TimesNewRomanPSMT-32" d="M 2934 816 
L 2638 0 
L 138 0 
L 138 116 
Q 1241 1122 1691 1759 
Q 2141 2397 2141 2925 
Q 2141 3328 1894 3587 
Q 1647 3847 1303 3847 
Q 991 3847 742 3664 
Q 494 3481 375 3128 
L 259 3128 
Q 338 3706 661 4015 
Q 984 4325 1469 4325 
Q 1984 4325 2329 3994 
Q 2675 3663 2675 3213 
Q 2675 2891 2525 2569 
Q 2294 2063 1775 1497 
Q 997 647 803 472 
L 1909 472 
Q 2247 472 2383 497 
Q 2519 522 2628 598 
Q 2738 675 2819 816 
L 2934 816 
z
" transform="scale(0.015625)"/>
     </defs>
     <use xlink:href="#TimesNewRomanPSMT-59"/>
     <use xlink:href="#TimesNewRomanPSMT-32" x="72.216797"/>
    </g>
   </g>
   <g id="text_6">
    <!-- Y3 -->
    <g transform="translate(204.206953 31.570547) scale(0.165 -0.165)">
     <defs>
      <path id="TimesNewRomanPSMT-33" d="M 325 3431 
Q 506 3859 782 4092 
Q 1059 4325 1472 4325 
Q 1981 4325 2253 3994 
Q 2459 3747 2459 3466 
Q 2459 3003 1878 2509 
Q 2269 2356 2469 2072 
Q 2669 1788 2669 1403 
Q 2669 853 2319 450 
Q 1863 -75 997 -75 
Q 569 -75 414 31 
Q 259 138 259 259 
Q 259 350 332 419 
Q 406 488 509 488 
Q 588 488 669 463 
Q 722 447 909 348 
Q 1097 250 1169 231 
Q 1284 197 1416 197 
Q 1734 197 1970 444 
Q 2206 691 2206 1028 
Q 2206 1275 2097 1509 
Q 2016 1684 1919 1775 
Q 1784 1900 1550 2001 
Q 1316 2103 1072 2103 
L 972 2103 
L 972 2197 
Q 1219 2228 1467 2375 
Q 1716 2522 1828 2728 
Q 1941 2934 1941 3181 
Q 1941 3503 1739 3701 
Q 1538 3900 1238 3900 
Q 753 3900 428 3381 
L 325 3431 
z
" transform="scale(0.015625)"/>
     </defs>
     <use xlink:href="#TimesNewRomanPSMT-59"/>
     <use xlink:href="#TimesNewRomanPSMT-33" x="72.216797"/>
    </g>
   </g>
   <g id="text_7">
    <!-- 0 -->
    <g transform="translate(28.761 56.770547) scale(0.165 -0.165)">
     <use xlink:href="#TimesNewRomanPSMT-30"/>
    </g>
   </g>
   <g id="text_8">
    <!-- 0 -->
    <g transform="translate(64.923 56.770547) scale(0.165 -0.165)">
     <use xlink:href="#TimesNewRomanPSMT-30"/>
    </g>
   </g>
   <g id="text_9">
    <!-- 0 -->
    <g transform="translate(101.085 56.770547) scale(0.165 -0.165)">
     <use xlink:href="#TimesNewRomanPSMT-30"/>
    </g>
   </g>
   <g id="text_10">
    <!-- 1 -->
    <g transform="translate(137.247 56.770547) scale(0.165 -0.165)">
     <use xlink:href="#TimesNewRomanPSMT-31"/>
    </g>
   </g>
   <g id="text_11">
    <!-- 1 -->
    <g transform="translate(173.409 56.770547) scale(0.165 -0.165)">
     <use xlink:href="#TimesNewRomanPSMT-31"/>
    </g>
   </g>
   <g id="text_12">
    <!-- 1 -->
    <g transform="translate(210.165 56.770547) scale(0.165 -0.165)">
     <use xlink:href="#TimesNewRomanPSMT-31"/>
    </g>
   </g>
   <g id="text_13">
    <!-- 0 -->
    <g transform="translate(28.761 81.970547) scale(0.165 -0.165)">
     <use xlink:href="#TimesNewRomanPSMT-30"/>
    </g>
   </g>
   <g id="text_14">
    <!-- 1 -->
    <g transform="translate(64.923 81.970547) scale(0.165 -0.165)">
     <use xlink:href="#TimesNewRomanPSMT-31"/>
    </g>
   </g>
   <g id="text_15">
    <!-- 1 -->
    <g transform="translate(101.085 81.970547) scale(0.165 -0.165)">
     <use xlink:href="#TimesNewRomanPSMT-31"/>
    </g>
   </g>
   <g id="text_16">
    <!-- 0 -->
    <g transform="translate(137.247 81.970547) scale(0.165 -0.165)">
     <use xlink:href="#TimesNewRomanPSMT-30"/>
    </g>
   </g>
   <g id="text_17">
    <!-- 1 -->
    <g transform="translate(173.409 81.970547) scale(0.165 -0.165)">
     <use xlink:href="#TimesNewRomanPSMT-31"/>
    </g>
   </g>
   <g id="text_18">
    <!-- 1 -->
    <g transform="translate(210.165 81.970547) scale(0.165 -0.165)">
     <use xlink:href="#TimesNewRomanPSMT-31"/>
    </g>
   </g>
   <g id="text_19">
    <!-- 1 -->
    <g transform="translate(28.761 107.170547) scale(0.165 -0.165)">
     <use xlink:href="#TimesNewRomanPSMT-31"/>
    </g>
   </g>
   <g id="text_20">
    <!-- 0 -->
    <g transform="translate(64.923 107.170547) scale(0.165 -0.165)">
     <use xlink:href="#TimesNewRomanPSMT-30"/>
    </g>
   </g>
   <g id="text_21">
    <!-- 1 -->
    <g transform="translate(101.085 107.170547) scale(0.165 -0.165)">
     <use xlink:href="#TimesNewRomanPSMT-31"/>
    </g>
   </g>
   <g id="text_22">
    <!-- 1 -->
    <g transform="translate(137.247 107.170547) scale(0.165 -0.165)">
     <use xlink:href="#TimesNewRomanPSMT-31"/>
    </g>
   </g>
   <g id="text_23">
    <!-- 0 -->
    <g transform="translate(173.409 107.170547) scale(0.165 -0.165)">
     <use xlink:href="#TimesNewRomanPSMT-30"/>
    </g>
   </g>
   <g id="text_24">
    <!-- 1 -->
    <g transform="translate(210.165 107.170547) scale(0.165 -0.165)">
     <use xlink:href="#TimesNewRomanPSMT-31"/>
    </g>
   </g>
   <g id="text_25">
    <!-- 1 -->
    <g transform="translate(28.761 132.370547) scale(0.165 -0.165)">
     <use xlink:href="#TimesNewRomanPSMT-31"/>
    </g>
   </g>
   <g id="text_26">
    <!-- 1 -->
    <g transform="translate(64.923 132.370547) scale(0.165 -0.165)">
     <use xlink:href="#TimesNewRomanPSMT-31"/>
    </g>
   </g>
   <g id="text_27">
    <!-- 1 -->
    <g transform="translate(101.085 132.370547) scale(0.165 -0.165)">
     <use xlink:href="#TimesNewRomanPSMT-31"/>
    </g>
   </g>
   <g id="text_28">
    <!-- 1 -->
    <g transform="translate(137.247 132.370547) scale(0.165 -0.165)">
     <use xlink:href="#TimesNewRomanPSMT-31"/>
    </g>
   </g>
   <g id="text_29">
    <!-- 1 -->
    <g transform="translate(173.409 132.370547) scale(0.165 -0.165)">
     <use xlink:href="#TimesNewRomanPSMT-31"/>
    </g>
   </g>
   <g id="text_30">
    <!-- 0 -->
    <g transform="translate(210.165 132.370547) scale(0.165 -0.165)">
     <use xlink:href="#TimesNewRomanPSMT-30"/>
    </g>
   </g>
  </g>
 </g>
 <defs>
  <clipPath id="p9e118bd9be">
   <rect x="3.6" y="3.6" width="239.976" height="138.6"/>
  </clipPath>
 </defs>
</svg>
