<?xml version="1.0" encoding="utf-8" standalone="no"?>
<!DOCTYPE svg PUBLIC "-//W3C//DTD SVG 1.1//EN"
  "http://www.w3.org/Graphics/SVG/1.1/DTD/svg11.dtd">
<svg xmlns:xlink="http://www.w3.org/1999/xlink" width="190.491797pt" height="61.254pt" viewBox="0 0 190.491797 61.254" xmlns="http://www.w3.org/2000/svg" version="1.1">
 <metadata>
  <rdf:RDF xmlns:dc="http://purl.org/dc/elements/1.1/" xmlns:cc="http://creativecommons.org/ns#" xmlns:rdf="http://www.w3.org/1999/02/22-rdf-syntax-ns#">
   <cc:Work>
    <dc:type rdf:resource="http://purl.org/dc/dcmitype/StillImage"/>
    <dc:date>2024-02-22T19:20:36.233409</dc:date>
    <dc:format>image/svg+xml</dc:format>
    <dc:creator>
     <cc:Agent>
      <dc:title>Matplotlib v3.8.3, https://matplotlib.org/</dc:title>
     </cc:Agent>
    </dc:creator>
   </cc:Work>
  </rdf:RDF>
 </metadata>
 <defs>
  <style type="text/css">*{stroke-linejoin: round; stroke-linecap: butt}</style>
 </defs>
 <g id="figure_1">
  <g id="patch_1">
   <path d="M 0 61.254 
L 190.491797 61.254 
L 190.491797 -0 
L 0 -0 
z
" style="fill: #ffffff"/>
  </g>
  <g id="axes_1">
   <g id="patch_2">
    <path d="M 71.403906 41.517 
C 72.549584 41.517 73.648491 41.061818 74.458608 40.251701 
C 75.268724 39.441585 75.723906 38.342677 75.723906 37.197 
C 75.723906 36.051323 75.268724 34.952415 74.458608 34.142299 
C 73.648491 33.332182 72.549584 32.877 71.403906 32.877 
C 70.258229 32.877 69.159321 33.332182 68.349205 34.142299 
C 67.539089 34.952415 67.083906 36.051323 67.083906 37.197 
C 67.083906 38.342677 67.539089 39.441585 68.349205 40.251701 
C 69.159321 41.061818 70.258229 41.517 71.403906 41.517 
L 71.403906 41.517 
z
" clip-path="url(#pc82a21594d)" style="fill: none; stroke: #000000; stroke-width: 2; stroke-linejoin: miter"/>
   </g>
   <g id="line2d_1">
    <path d="M 111.903906 41.337 
L 131.446763 41.270878 
L 133.503906 40.977 
L 135.561049 40.44802 
L 137.618192 39.683939 
L 139.675335 38.684755 
L 141.732478 37.450469 
L 143.789621 35.981082 
L 145.846763 34.276592 
L 148.418192 31.815367 
L 150.989621 28.986796 
L 153.561049 25.790878 
L 155.103906 23.697 
L 155.103906 23.697 
L 152.532478 20.280673 
L 149.961049 17.231694 
L 147.389621 14.550061 
L 144.818192 12.235776 
L 142.761049 10.648837 
L 140.703906 9.297 
L 138.646763 8.180265 
L 136.589621 7.298633 
L 134.532478 6.652102 
L 132.475335 6.240673 
L 130.418192 6.064347 
L 129.903906 6.057 
L 111.903906 6.057 
L 111.903906 6.057 
L 113.891106 8.217 
L 115.619106 10.377 
L 117.087906 12.537 
L 118.297506 14.697 
L 119.247906 16.857 
L 119.939106 19.017 
L 120.371106 21.177 
L 120.543906 23.337 
L 120.457506 25.497 
L 120.111906 27.657 
L 119.507106 29.817 
L 118.643106 31.977 
L 117.519906 34.137 
L 116.137506 36.297 
L 114.495906 38.457 
L 112.595106 40.617 
L 111.903906 41.337 
L 111.903906 41.337 
" clip-path="url(#pc82a21594d)" style="fill: none; stroke: #000000; stroke-width: 2; stroke-linecap: round"/>
   </g>
   <g id="line2d_2">
    <path d="M 99.303906 32.697 
L 118.297506 32.697 
" clip-path="url(#pc82a21594d)" style="fill: none; stroke: #000000; stroke-width: 2; stroke-linecap: round"/>
   </g>
   <g id="line2d_3">
    <path d="M 99.303906 14.697 
L 118.297506 14.697 
" clip-path="url(#pc82a21594d)" style="fill: none; stroke: #000000; stroke-width: 2; stroke-linecap: round"/>
   </g>
   <g id="line2d_4">
    <path d="M 155.103906 23.697 
L 167.703906 23.697 
" clip-path="url(#pc82a21594d)" style="fill: none; stroke: #000000; stroke-width: 2; stroke-linecap: round"/>
   </g>
   <g id="line2d_5">
    <path d="M 23.703906 37.197 
L 43.683906 37.197 
M 75.723906 37.197 
L 95.703906 37.197 
" clip-path="url(#pc82a21594d)" style="fill: none; stroke: #000000; stroke-width: 2; stroke-linecap: round"/>
   </g>
   <g id="line2d_6">
    <path d="M 43.683906 19.197 
L 67.083906 37.197 
L 43.683906 55.197 
L 43.683906 19.197 
" clip-path="url(#pc82a21594d)" style="fill: none; stroke: #000000; stroke-width: 2; stroke-linecap: round"/>
   </g>
   <g id="line2d_7">
    <path d="M 99.303906 32.697 
L 95.703906 32.697 
L 95.703906 37.197 
" clip-path="url(#pc82a21594d)" style="fill: none; stroke: #000000; stroke-width: 2; stroke-linecap: round"/>
   </g>
   <g id="text_1">
    <!-- Y2 -->
    <g transform="translate(171.303906 27.146219) scale(0.125 -0.125)">
     <defs>
      <path id="DejaVuSans-59" d="M -13 4666 
L 666 4666 
L 1959 2747 
L 3244 4666 
L 3922 4666 
L 2272 2222 
L 2272 0 
L 1638 0 
L 1638 2222 
L -13 4666 
z
" transform="scale(0.015625)"/>
      <path id="DejaVuSans-32" d="M 1228 531 
L 3431 531 
L 3431 0 
L 469 0 
L 469 531 
Q 828 903 1448 1529 
Q 2069 2156 2228 2338 
Q 2531 2678 2651 2914 
Q 2772 3150 2772 3378 
Q 2772 3750 2511 3984 
Q 2250 4219 1831 4219 
Q 1534 4219 1204 4116 
Q 875 4013 500 3803 
L 500 4441 
Q 881 4594 1212 4672 
Q 1544 4750 1819 4750 
Q 2544 4750 2975 4387 
Q 3406 4025 3406 3419 
Q 3406 3131 3298 2873 
Q 3191 2616 2906 2266 
Q 2828 2175 2409 1742 
Q 1991 1309 1228 531 
z
" transform="scale(0.015625)"/>
     </defs>
     <use xlink:href="#DejaVuSans-59"/>
     <use xlink:href="#DejaVuSans-32" x="61.083984"/>
    </g>
   </g>
   <g id="text_2">
    <!-- A0 -->
    <g transform="translate(79.2 18.146219) scale(0.125 -0.125)">
     <defs>
      <path id="DejaVuSans-41" d="M 2188 4044 
L 1331 1722 
L 3047 1722 
L 2188 4044 
z
M 1831 4666 
L 2547 4666 
L 4325 0 
L 3669 0 
L 3244 1197 
L 1141 1197 
L 716 0 
L 50 0 
L 1831 4666 
z
" transform="scale(0.015625)"/>
      <path id="DejaVuSans-30" d="M 2034 4250 
Q 1547 4250 1301 3770 
Q 1056 3291 1056 2328 
Q 1056 1369 1301 889 
Q 1547 409 2034 409 
Q 2525 409 2770 889 
Q 3016 1369 3016 2328 
Q 3016 3291 2770 3770 
Q 2525 4250 2034 4250 
z
M 2034 4750 
Q 2819 4750 3233 4129 
Q 3647 3509 3647 2328 
Q 3647 1150 3233 529 
Q 2819 -91 2034 -91 
Q 1250 -91 836 529 
Q 422 1150 422 2328 
Q 422 3509 836 4129 
Q 1250 4750 2034 4750 
z
" transform="scale(0.015625)"/>
     </defs>
     <use xlink:href="#DejaVuSans-41"/>
     <use xlink:href="#DejaVuSans-30" x="68.408203"/>
    </g>
   </g>
   <g id="text_3">
    <!-- A1 -->
    <g transform="translate(3.6 40.646219) scale(0.125 -0.125)">
     <defs>
      <path id="DejaVuSans-31" d="M 794 531 
L 1825 531 
L 1825 4091 
L 703 3866 
L 703 4441 
L 1819 4666 
L 2450 4666 
L 2450 531 
L 3481 531 
L 3481 0 
L 794 0 
L 794 531 
z
" transform="scale(0.015625)"/>
     </defs>
     <use xlink:href="#DejaVuSans-41"/>
     <use xlink:href="#DejaVuSans-31" x="68.408203"/>
    </g>
   </g>
  </g>
 </g>
 <defs>
  <clipPath id="pc82a21594d">
   <rect x="16.503906" y="3.6" width="158.4" height="54.054"/>
  </clipPath>
 </defs>
</svg>
