<?xml version="1.0" encoding="utf-8" standalone="no"?>
<!DOCTYPE svg PUBLIC "-//W3C//DTD SVG 1.1//EN"
  "http://www.w3.org/Graphics/SVG/1.1/DTD/svg11.dtd">
<svg xmlns:xlink="http://www.w3.org/1999/xlink" width="190.491797pt" height="61.254pt" viewBox="0 0 190.491797 61.254" xmlns="http://www.w3.org/2000/svg" version="1.1">
 <metadata>
  <rdf:RDF xmlns:dc="http://purl.org/dc/elements/1.1/" xmlns:cc="http://creativecommons.org/ns#" xmlns:rdf="http://www.w3.org/1999/02/22-rdf-syntax-ns#">
   <cc:Work>
    <dc:type rdf:resource="http://purl.org/dc/dcmitype/StillImage"/>
    <dc:date>2024-02-22T19:20:36.120727</dc:date>
    <dc:format>image/svg+xml</dc:format>
    <dc:creator>
     <cc:Agent>
      <dc:title>Matplotlib v3.8.3, https://matplotlib.org/</dc:title>
     </cc:Agent>
    </dc:creator>
   </cc:Work>
  </rdf:RDF>
 </metadata>
 <defs>
  <style type="text/css">*{stroke-linejoin: round; stroke-linecap: butt}</style>
 </defs>
 <g id="figure_1">
  <g id="patch_1">
   <path d="M 0 61.254 
L 190.491797 61.254 
L 190.491797 -0 
L 0 -0 
z
" style="fill: #ffffff"/>
  </g>
  <g id="axes_1">
   <g id="patch_2">
    <path d="M 71.403906 28.377 
C 72.549584 28.377 73.648491 27.921818 74.458608 27.111701 
C 75.268724 26.301585 75.723906 25.202677 75.723906 24.057 
C 75.723906 22.911323 75.268724 21.812415 74.458608 21.002299 
C 73.648491 20.192182 72.549584 19.737 71.403906 19.737 
C 70.258229 19.737 69.159321 20.192182 68.349205 21.002299 
C 67.539089 21.812415 67.083906 22.911323 67.083906 24.057 
C 67.083906 25.202677 67.539089 26.301585 68.349205 27.111701 
C 69.159321 27.921818 70.258229 28.377 71.403906 28.377 
L 71.403906 28.377 
z
" clip-path="url(#pf5c82f15d4)" style="fill: none; stroke: #000000; stroke-width: 2; stroke-linejoin: miter"/>
   </g>
   <g id="line2d_1">
    <path d="M 111.903906 55.197 
L 131.446763 55.130878 
L 133.503906 54.837 
L 135.561049 54.30802 
L 137.618192 53.543939 
L 139.675335 52.544755 
L 141.732478 51.310469 
L 143.789621 49.841082 
L 145.846763 48.136592 
L 148.418192 45.675367 
L 150.989621 42.846796 
L 153.561049 39.650878 
L 155.103906 37.557 
L 155.103906 37.557 
L 152.532478 34.140673 
L 149.961049 31.091694 
L 147.389621 28.410061 
L 144.818192 26.095776 
L 142.761049 24.508837 
L 140.703906 23.157 
L 138.646763 22.040265 
L 136.589621 21.158633 
L 134.532478 20.512102 
L 132.475335 20.100673 
L 130.418192 19.924347 
L 129.903906 19.917 
L 111.903906 19.917 
L 111.903906 19.917 
L 113.891106 22.077 
L 115.619106 24.237 
L 117.087906 26.397 
L 118.297506 28.557 
L 119.247906 30.717 
L 119.939106 32.877 
L 120.371106 35.037 
L 120.543906 37.197 
L 120.457506 39.357 
L 120.111906 41.517 
L 119.507106 43.677 
L 118.643106 45.837 
L 117.519906 47.997 
L 116.137506 50.157 
L 114.495906 52.317 
L 112.595106 54.477 
L 111.903906 55.197 
L 111.903906 55.197 
" clip-path="url(#pf5c82f15d4)" style="fill: none; stroke: #000000; stroke-width: 2; stroke-linecap: round"/>
   </g>
   <g id="line2d_2">
    <path d="M 99.303906 46.557 
L 118.297506 46.557 
" clip-path="url(#pf5c82f15d4)" style="fill: none; stroke: #000000; stroke-width: 2; stroke-linecap: round"/>
   </g>
   <g id="line2d_3">
    <path d="M 99.303906 28.557 
L 118.297506 28.557 
" clip-path="url(#pf5c82f15d4)" style="fill: none; stroke: #000000; stroke-width: 2; stroke-linecap: round"/>
   </g>
   <g id="line2d_4">
    <path d="M 155.103906 37.557 
L 167.703906 37.557 
" clip-path="url(#pf5c82f15d4)" style="fill: none; stroke: #000000; stroke-width: 2; stroke-linecap: round"/>
   </g>
   <g id="line2d_5">
    <path d="M 23.703906 24.057 
L 43.683906 24.057 
M 75.723906 24.057 
L 95.703906 24.057 
" clip-path="url(#pf5c82f15d4)" style="fill: none; stroke: #000000; stroke-width: 2; stroke-linecap: round"/>
   </g>
   <g id="line2d_6">
    <path d="M 43.683906 6.057 
L 67.083906 24.057 
L 43.683906 42.057 
L 43.683906 6.057 
" clip-path="url(#pf5c82f15d4)" style="fill: none; stroke: #000000; stroke-width: 2; stroke-linecap: round"/>
   </g>
   <g id="line2d_7">
    <path d="M 99.303906 28.557 
L 95.703906 28.557 
L 95.703906 24.057 
" clip-path="url(#pf5c82f15d4)" style="fill: none; stroke: #000000; stroke-width: 2; stroke-linecap: round"/>
   </g>
   <g id="text_1">
    <!-- Y1 -->
    <g transform="translate(171.303906 41.006219) scale(0.125 -0.125)">
     <defs>
      <path id="DejaVuSans-59" d="M -13 4666 
L 666 4666 
L 1959 2747 
L 3244 4666 
L 3922 4666 
L 2272 2222 
L 2272 0 
L 1638 0 
L 1638 2222 
L -13 4666 
z
" transform="scale(0.015625)"/>
      <path id="DejaVuSans-31" d="M 794 531 
L 1825 531 
L 1825 4091 
L 703 3866 
L 703 4441 
L 1819 4666 
L 2450 4666 
L 2450 531 
L 3481 531 
L 3481 0 
L 794 0 
L 794 531 
z
" transform="scale(0.015625)"/>
     </defs>
     <use xlink:href="#DejaVuSans-59"/>
     <use xlink:href="#DejaVuSans-31" x="61.083984"/>
    </g>
   </g>
   <g id="text_2">
    <!-- A1 -->
    <g transform="translate(79.2 50.006219) scale(0.125 -0.125)">
     <defs>
      <path id="DejaVuSans-41" d="M 2188 4044 
L 1331 1722 
L 3047 1722 
L 2188 4044 
z
M 1831 4666 
L 2547 4666 
L 4325 0 
L 3669 0 
L 3244 1197 
L 1141 1197 
L 716 0 
L 50 0 
L 1831 4666 
z
" transform="scale(0.015625)"/>
     </defs>
     <use xlink:href="#DejaVuSans-41"/>
     <use xlink:href="#DejaVuSans-31" x="68.408203"/>
    </g>
   </g>
   <g id="text_3">
    <!-- A0 -->
    <g transform="translate(3.6 27.506219) scale(0.125 -0.125)">
     <defs>
      <path id="DejaVuSans-30" d="M 2034 4250 
Q 1547 4250 1301 3770 
Q 1056 3291 1056 2328 
Q 1056 1369 1301 889 
Q 1547 409 2034 409 
Q 2525 409 2770 889 
Q 3016 1369 3016 2328 
Q 3016 3291 2770 3770 
Q 2525 4250 2034 4250 
z
M 2034 4750 
Q 2819 4750 3233 4129 
Q 3647 3509 3647 2328 
Q 3647 1150 3233 529 
Q 2819 -91 2034 -91 
Q 1250 -91 836 529 
Q 422 1150 422 2328 
Q 422 3509 836 4129 
Q 1250 4750 2034 4750 
z
" transform="scale(0.015625)"/>
     </defs>
     <use xlink:href="#DejaVuSans-41"/>
     <use xlink:href="#DejaVuSans-30" x="68.408203"/>
    </g>
   </g>
  </g>
 </g>
 <defs>
  <clipPath id="pf5c82f15d4">
   <rect x="16.503906" y="3.6" width="158.4" height="54.054"/>
  </clipPath>
 </defs>
</svg>
