<?xml version="1.0" encoding="utf-8" standalone="no"?>
<!DOCTYPE svg PUBLIC "-//W3C//DTD SVG 1.1//EN"
  "http://www.w3.org/Graphics/SVG/1.1/DTD/svg11.dtd">
<svg xmlns:xlink="http://www.w3.org/1999/xlink" width="246.597266pt" height="106.2pt" viewBox="0 0 246.597266 106.2" xmlns="http://www.w3.org/2000/svg" version="1.1">
 <metadata>
  <rdf:RDF xmlns:dc="http://purl.org/dc/elements/1.1/" xmlns:cc="http://creativecommons.org/ns#" xmlns:rdf="http://www.w3.org/1999/02/22-rdf-syntax-ns#">
   <cc:Work>
    <dc:type rdf:resource="http://purl.org/dc/dcmitype/StillImage"/>
    <dc:date>2024-04-18T17:23:10.292918</dc:date>
    <dc:format>image/svg+xml</dc:format>
    <dc:creator>
     <cc:Agent>
      <dc:title>Matplotlib v3.8.2, https://matplotlib.org/</dc:title>
     </cc:Agent>
    </dc:creator>
   </cc:Work>
  </rdf:RDF>
 </metadata>
 <defs>
  <style type="text/css">*{stroke-linejoin: round; stroke-linecap: butt}</style>
 </defs>
 <g id="figure_1">
  <g id="patch_1">
   <path d="M 0 106.2 
L 246.597266 106.2 
L 246.597266 0 
L 0 0 
z
" style="fill: #ffffff"/>
  </g>
  <g id="axes_1">
   <g id="patch_2">
    <path d="M 63.4625 43.92 
C 64.608177 43.92 65.707085 43.464818 66.517201 42.654701 
C 67.327318 41.844585 67.7825 40.745677 67.7825 39.6 
C 67.7825 38.454323 67.327318 37.355415 66.517201 36.545299 
C 65.707085 35.735182 64.608177 35.28 63.4625 35.28 
C 62.316823 35.28 61.217915 35.735182 60.407799 36.545299 
C 59.597682 37.355415 59.1425 38.454323 59.1425 39.6 
C 59.1425 40.745677 59.597682 41.844585 60.407799 42.654701 
C 61.217915 43.464818 62.316823 43.92 63.4625 43.92 
L 63.4625 43.92 
z
" clip-path="url(#p459977100b)" style="fill: none; stroke: #000000; stroke-width: 2; stroke-linejoin: miter"/>
   </g>
   <g id="patch_3">
    <path d="M 63.4625 70.92 
C 64.608177 70.92 65.707085 70.464818 66.517201 69.654701 
C 67.327318 68.844585 67.7825 67.745677 67.7825 66.6 
C 67.7825 65.454323 67.327318 64.355415 66.517201 63.545299 
C 65.707085 62.735182 64.608177 62.28 63.4625 62.28 
C 62.316823 62.28 61.217915 62.735182 60.407799 63.545299 
C 59.597682 64.355415 59.1425 65.454323 59.1425 66.6 
C 59.1425 67.745677 59.597682 68.844585 60.407799 69.654701 
C 61.217915 70.464818 62.316823 70.92 63.4625 70.92 
L 63.4625 70.92 
z
" clip-path="url(#p459977100b)" style="fill: none; stroke: #000000; stroke-width: 2; stroke-linejoin: miter"/>
   </g>
   <g id="line2d_1">
    <path d="M 175.9625 70.74 
L 195.505357 70.673878 
L 197.5625 70.38 
L 199.619643 69.85102 
L 201.676786 69.086939 
L 203.733929 68.087755 
L 205.791071 66.853469 
L 207.848214 65.384082 
L 209.905357 63.679592 
L 212.476786 61.218367 
L 215.048214 58.389796 
L 217.619643 55.193878 
L 219.1625 53.1 
L 219.1625 53.1 
L 216.591071 49.683673 
L 214.019643 46.634694 
L 211.448214 43.953061 
L 208.876786 41.638776 
L 206.819643 40.051837 
L 204.7625 38.7 
L 202.705357 37.583265 
L 200.648214 36.701633 
L 198.591071 36.055102 
L 196.533929 35.643673 
L 194.476786 35.467347 
L 193.9625 35.46 
L 175.9625 35.46 
L 175.9625 35.46 
L 177.9497 37.62 
L 179.6777 39.78 
L 181.1465 41.94 
L 182.3561 44.1 
L 183.3065 46.26 
L 183.9977 48.42 
L 184.4297 50.58 
L 184.6025 52.74 
L 184.5161 54.9 
L 184.1705 57.06 
L 183.5657 59.22 
L 182.7017 61.38 
L 181.5785 63.54 
L 180.1961 65.7 
L 178.5545 67.86 
L 176.6537 70.02 
L 175.9625 70.74 
L 175.9625 70.74 
" clip-path="url(#p459977100b)" style="fill: none; stroke: #000000; stroke-width: 2; stroke-linecap: round"/>
   </g>
   <g id="line2d_2">
    <path d="M 163.3625 62.1 
L 182.3561 62.1 
" clip-path="url(#p459977100b)" style="fill: none; stroke: #000000; stroke-width: 2; stroke-linecap: round"/>
   </g>
   <g id="line2d_3">
    <path d="M 163.3625 44.1 
L 182.3561 44.1 
" clip-path="url(#p459977100b)" style="fill: none; stroke: #000000; stroke-width: 2; stroke-linecap: round"/>
   </g>
   <g id="line2d_4">
    <path d="M 219.1625 53.1 
L 231.7625 53.1 
" clip-path="url(#p459977100b)" style="fill: none; stroke: #000000; stroke-width: 2; stroke-linecap: round"/>
   </g>
   <g id="line2d_5">
    <path d="M 129.1625 44.1 
L 130.315764 44.063017 
L 131.464289 43.95222 
L 132.603355 43.768065 
L 133.728283 43.511308 
L 134.834448 43.183003 
L 135.917306 42.784502 
L 136.972407 42.31744 
L 137.995416 41.783737 
L 138.982128 41.185586 
L 139.92849 40.525445 
L 140.830611 39.806027 
L 141.684786 39.030288 
L 142.487504 38.201416 
L 143.235467 37.322816 
L 143.925601 36.3981 
L 144.55507 35.431066 
L 145.121288 34.425689 
L 145.621927 33.3861 
L 146.054932 32.316571 
L 146.418521 31.221497 
L 146.711202 30.105377 
L 146.931772 28.972798 
L 147.079324 27.828414 
L 147.153252 26.676928 
L 147.153252 25.523072 
L 147.079324 24.371586 
L 146.931772 23.227202 
L 146.711202 22.094623 
L 146.418521 20.978503 
L 146.054932 19.883429 
L 145.621927 18.8139 
L 145.121288 17.774311 
L 144.55507 16.768934 
L 143.925601 15.8019 
L 143.235467 14.877184 
L 142.487504 13.998584 
L 141.684786 13.169712 
L 140.830611 12.393973 
L 139.92849 11.674555 
L 138.982128 11.014414 
L 137.995416 10.416263 
L 136.972407 9.88256 
L 135.917306 9.415498 
L 134.834448 9.016997 
L 133.728283 8.688692 
L 132.603355 8.431935 
L 131.464289 8.24778 
L 130.315764 8.136983 
L 129.1625 8.1 
L 129.1625 8.1 
L 105.7625 8.1 
L 105.7625 26.1 
L 105.7625 44.1 
L 129.1625 44.1 
" clip-path="url(#p459977100b)" style="fill: none; stroke: #000000; stroke-width: 2; stroke-linecap: round"/>
   </g>
   <g id="line2d_6">
    <path d="M 93.1625 35.1 
L 105.7625 35.1 
" clip-path="url(#p459977100b)" style="fill: none; stroke: #000000; stroke-width: 2; stroke-linecap: round"/>
   </g>
   <g id="line2d_7">
    <path d="M 93.1625 17.1 
L 105.7625 17.1 
" clip-path="url(#p459977100b)" style="fill: none; stroke: #000000; stroke-width: 2; stroke-linecap: round"/>
   </g>
   <g id="line2d_8">
    <path d="M 147.1625 26.1 
L 159.7625 26.1 
" clip-path="url(#p459977100b)" style="fill: none; stroke: #000000; stroke-width: 2; stroke-linecap: round"/>
   </g>
   <g id="line2d_9">
    <path d="M 15.7625 39.6 
L 35.7425 39.6 
M 67.7825 39.6 
L 87.7625 39.6 
" clip-path="url(#p459977100b)" style="fill: none; stroke: #000000; stroke-width: 2; stroke-linecap: round"/>
   </g>
   <g id="line2d_10">
    <path d="M 35.7425 21.6 
L 59.1425 39.6 
L 35.7425 57.6 
L 35.7425 21.6 
" clip-path="url(#p459977100b)" style="fill: none; stroke: #000000; stroke-width: 2; stroke-linecap: round"/>
   </g>
   <g id="line2d_11">
    <path d="M 93.1625 35.1 
L 87.7625 35.1 
L 87.7625 39.6 
" clip-path="url(#p459977100b)" style="fill: none; stroke: #000000; stroke-width: 2; stroke-linecap: round"/>
   </g>
   <g id="line2d_12">
    <path d="M 163.3625 44.1 
L 159.7625 44.1 
L 159.7625 26.1 
" clip-path="url(#p459977100b)" style="fill: none; stroke: #000000; stroke-width: 2; stroke-linecap: round"/>
   </g>
   <g id="line2d_13">
    <path d="M 129.1625 98.1 
L 130.315764 98.063017 
L 131.464289 97.95222 
L 132.603355 97.768065 
L 133.728283 97.511308 
L 134.834448 97.183003 
L 135.917306 96.784502 
L 136.972407 96.31744 
L 137.995416 95.783737 
L 138.982128 95.185586 
L 139.92849 94.525445 
L 140.830611 93.806027 
L 141.684786 93.030288 
L 142.487504 92.201416 
L 143.235467 91.322816 
L 143.925601 90.3981 
L 144.55507 89.431066 
L 145.121288 88.425689 
L 145.621927 87.3861 
L 146.054932 86.316571 
L 146.418521 85.221497 
L 146.711202 84.105377 
L 146.931772 82.972798 
L 147.079324 81.828414 
L 147.153252 80.676928 
L 147.153252 79.523072 
L 147.079324 78.371586 
L 146.931772 77.227202 
L 146.711202 76.094623 
L 146.418521 74.978503 
L 146.054932 73.883429 
L 145.621927 72.8139 
L 145.121288 71.774311 
L 144.55507 70.768934 
L 143.925601 69.8019 
L 143.235467 68.877184 
L 142.487504 67.998584 
L 141.684786 67.169712 
L 140.830611 66.393973 
L 139.92849 65.674555 
L 138.982128 65.014414 
L 137.995416 64.416263 
L 136.972407 63.88256 
L 135.917306 63.415498 
L 134.834448 63.016997 
L 133.728283 62.688692 
L 132.603355 62.431935 
L 131.464289 62.24778 
L 130.315764 62.136983 
L 129.1625 62.1 
L 129.1625 62.1 
L 105.7625 62.1 
L 105.7625 80.1 
L 105.7625 98.1 
L 129.1625 98.1 
" clip-path="url(#p459977100b)" style="fill: none; stroke: #000000; stroke-width: 2; stroke-linecap: round"/>
   </g>
   <g id="line2d_14">
    <path d="M 93.1625 89.1 
L 105.7625 89.1 
" clip-path="url(#p459977100b)" style="fill: none; stroke: #000000; stroke-width: 2; stroke-linecap: round"/>
   </g>
   <g id="line2d_15">
    <path d="M 93.1625 71.1 
L 105.7625 71.1 
" clip-path="url(#p459977100b)" style="fill: none; stroke: #000000; stroke-width: 2; stroke-linecap: round"/>
   </g>
   <g id="line2d_16">
    <path d="M 147.1625 80.1 
L 159.7625 80.1 
" clip-path="url(#p459977100b)" style="fill: none; stroke: #000000; stroke-width: 2; stroke-linecap: round"/>
   </g>
   <g id="line2d_17">
    <path d="M 15.7625 66.6 
L 35.7425 66.6 
M 67.7825 66.6 
L 87.7625 66.6 
" clip-path="url(#p459977100b)" style="fill: none; stroke: #000000; stroke-width: 2; stroke-linecap: round"/>
   </g>
   <g id="line2d_18">
    <path d="M 35.7425 48.6 
L 59.1425 66.6 
L 35.7425 84.6 
L 35.7425 48.6 
" clip-path="url(#p459977100b)" style="fill: none; stroke: #000000; stroke-width: 2; stroke-linecap: round"/>
   </g>
   <g id="line2d_19">
    <path d="M 93.1625 71.1 
L 87.7625 71.1 
L 87.7625 66.6 
" clip-path="url(#p459977100b)" style="fill: none; stroke: #000000; stroke-width: 2; stroke-linecap: round"/>
   </g>
   <g id="line2d_20">
    <path d="M 163.3625 62.1 
L 159.7625 62.1 
L 159.7625 80.1 
" clip-path="url(#p459977100b)" style="fill: none; stroke: #000000; stroke-width: 2; stroke-linecap: round"/>
   </g>
   <g id="text_1">
    <!-- Y -->
    <g transform="translate(235.3625 56.549219) scale(0.125 -0.125)">
     <defs>
      <path id="DejaVuSans-59" d="M -13 4666 
L 666 4666 
L 1959 2747 
L 3244 4666 
L 3922 4666 
L 2272 2222 
L 2272 0 
L 1638 0 
L 1638 2222 
L -13 4666 
z
" transform="scale(0.015625)"/>
     </defs>
     <use xlink:href="#DejaVuSans-59"/>
    </g>
   </g>
   <g id="text_2">
    <!-- X -->
    <g transform="translate(81 20.549219) scale(0.125 -0.125)">
     <defs>
      <path id="DejaVuSans-58" d="M 403 4666 
L 1081 4666 
L 2241 2931 
L 3406 4666 
L 4084 4666 
L 2584 2425 
L 4184 0 
L 3506 0 
L 2194 1984 
L 872 0 
L 191 0 
L 1856 2491 
L 403 4666 
z
" transform="scale(0.015625)"/>
     </defs>
     <use xlink:href="#DejaVuSans-58"/>
    </g>
   </g>
   <g id="text_3">
    <!-- V -->
    <g transform="translate(3.611719 43.049219) scale(0.125 -0.125)">
     <defs>
      <path id="DejaVuSans-56" d="M 1831 0 
L 50 4666 
L 709 4666 
L 2188 738 
L 3669 4666 
L 4325 4666 
L 2547 0 
L 1831 0 
z
" transform="scale(0.015625)"/>
     </defs>
     <use xlink:href="#DejaVuSans-56"/>
    </g>
   </g>
   <g id="text_4">
    <!-- V -->
    <g transform="translate(81.011719 92.549219) scale(0.125 -0.125)">
     <use xlink:href="#DejaVuSans-56"/>
    </g>
   </g>
   <g id="text_5">
    <!-- X -->
    <g transform="translate(3.6 70.049219) scale(0.125 -0.125)">
     <use xlink:href="#DejaVuSans-58"/>
    </g>
   </g>
  </g>
 </g>
 <defs>
  <clipPath id="p459977100b">
   <rect x="4.9625" y="3.6" width="237.6" height="99"/>
  </clipPath>
 </defs>
</svg>
