<?xml version="1.0" encoding="utf-8" standalone="no"?>
<!DOCTYPE svg PUBLIC "-//W3C//DTD SVG 1.1//EN"
  "http://www.w3.org/Graphics/SVG/1.1/DTD/svg11.dtd">
<svg xmlns:xlink="http://www.w3.org/1999/xlink" width="98.2008pt" height="145.8pt" viewBox="0 0 98.2008 145.8" xmlns="http://www.w3.org/2000/svg" version="1.1">
 <metadata>
  <rdf:RDF xmlns:dc="http://purl.org/dc/elements/1.1/" xmlns:cc="http://creativecommons.org/ns#" xmlns:rdf="http://www.w3.org/1999/02/22-rdf-syntax-ns#">
   <cc:Work>
    <dc:type rdf:resource="http://purl.org/dc/dcmitype/StillImage"/>
    <dc:date>2024-02-21T20:01:03.993959</dc:date>
    <dc:format>image/svg+xml</dc:format>
    <dc:creator>
     <cc:Agent>
      <dc:title>Matplotlib v3.8.2, https://matplotlib.org/</dc:title>
     </cc:Agent>
    </dc:creator>
   </cc:Work>
  </rdf:RDF>
 </metadata>
 <defs>
  <style type="text/css">*{stroke-linejoin: round; stroke-linecap: butt}</style>
 </defs>
 <g id="figure_1">
  <g id="patch_1">
   <path d="M 0 145.8 
L 98.2008 145.8 
L 98.2008 0 
L 0 0 
z
" style="fill: #ffffff"/>
  </g>
  <g id="axes_1">
   <g id="line2d_1">
    <path d="M 35.3124 9.9 
L 35.3124 135.9 
" clip-path="url(#pce6382f1fb)" style="fill: none; stroke: #000000; stroke-linecap: round"/>
   </g>
   <g id="line2d_2">
    <path d="M 61.8084 9.9 
L 61.8084 135.9 
" clip-path="url(#pce6382f1fb)" style="fill: none; stroke: #000000; stroke-linecap: round"/>
   </g>
   <g id="line2d_3">
    <path d="M 63.9684 9.9 
L 63.9684 135.9 
" clip-path="url(#pce6382f1fb)" style="fill: none; stroke: #000000; stroke-linecap: round"/>
   </g>
   <g id="line2d_4">
    <path d="M 7.7364 35.1 
L 90.4644 35.1 
" clip-path="url(#pce6382f1fb)" style="fill: none; stroke: #000000; stroke-linecap: round"/>
   </g>
   <g id="text_1">
    <!-- Q -->
    <g transform="translate(15.566353 31.570547) scale(0.165 -0.165)">
     <defs>
      <path id="TimesNewRomanPSMT-51" d="M 2819 -47 
Q 3138 -597 3508 -856 
Q 3878 -1116 4350 -1153 
L 4350 -1253 
Q 3919 -1238 3428 -1080 
Q 2938 -922 2498 -642 
Q 2059 -363 1741 -47 
Q 1291 134 1028 338 
Q 647 641 436 1083 
Q 225 1525 225 2128 
Q 225 3078 840 3706 
Q 1456 4334 2331 4334 
Q 3163 4334 3770 3704 
Q 4378 3075 4378 2116 
Q 4378 1338 3945 750 
Q 3513 163 2819 -47 
z
M 2294 4094 
Q 1725 4094 1378 3688 
Q 941 3178 941 2128 
Q 941 1100 1384 544 
Q 1728 116 2294 116 
Q 2881 116 3241 544 
Q 3663 1050 3663 2038 
Q 3663 2797 3431 3316 
Q 3253 3716 2958 3905 
Q 2663 4094 2294 4094 
z
" transform="scale(0.015625)"/>
     </defs>
     <use xlink:href="#TimesNewRomanPSMT-51"/>
    </g>
   </g>
   <g id="text_2">
    <!-- V -->
    <g transform="translate(43.142353 31.570547) scale(0.165 -0.165)">
     <defs>
      <path id="TimesNewRomanPSMT-56" d="M 4544 4238 
L 4544 4122 
Q 4319 4081 4203 3978 
Q 4038 3825 3909 3509 
L 2431 -97 
L 2316 -97 
L 728 3556 
Q 606 3838 556 3900 
Q 478 3997 364 4051 
Q 250 4106 56 4122 
L 56 4238 
L 1788 4238 
L 1788 4122 
Q 1494 4094 1406 4022 
Q 1319 3950 1319 3838 
Q 1319 3681 1463 3350 
L 2541 866 
L 3541 3319 
Q 3688 3681 3688 3822 
Q 3688 3913 3597 3995 
Q 3506 4078 3291 4113 
Q 3275 4116 3238 4122 
L 3238 4238 
L 4544 4238 
z
" transform="scale(0.015625)"/>
     </defs>
     <use xlink:href="#TimesNewRomanPSMT-56"/>
    </g>
   </g>
   <g id="text_3">
    <!-- Y -->
    <g transform="translate(70.718353 31.570547) scale(0.165 -0.165)">
     <defs>
      <path id="TimesNewRomanPSMT-59" d="M 3050 4238 
L 4528 4238 
L 4528 4122 
L 4447 4122 
Q 4366 4122 4209 4050 
Q 4053 3978 3925 3843 
Q 3797 3709 3609 3406 
L 2588 1797 
L 2588 734 
Q 2588 344 2675 247 
Q 2794 116 3050 116 
L 3188 116 
L 3188 0 
L 1388 0 
L 1388 116 
L 1538 116 
Q 1806 116 1919 278 
Q 1988 378 1988 734 
L 1988 1738 
L 825 3513 
Q 619 3825 545 3903 
Q 472 3981 241 4091 
Q 178 4122 59 4122 
L 59 4238 
L 1872 4238 
L 1872 4122 
L 1778 4122 
Q 1631 4122 1507 4053 
Q 1384 3984 1384 3847 
Q 1384 3734 1575 3441 
L 2459 2075 
L 3291 3381 
Q 3478 3675 3478 3819 
Q 3478 3906 3433 3975 
Q 3388 4044 3303 4083 
Q 3219 4122 3050 4122 
L 3050 4238 
z
" transform="scale(0.015625)"/>
     </defs>
     <use xlink:href="#TimesNewRomanPSMT-59"/>
    </g>
   </g>
   <g id="text_4">
    <!-- 0 -->
    <g transform="translate(17.3994 56.770547) scale(0.165 -0.165)">
     <defs>
      <path id="TimesNewRomanPSMT-30" d="M 231 2094 
Q 231 2819 450 3342 
Q 669 3866 1031 4122 
Q 1313 4325 1613 4325 
Q 2100 4325 2488 3828 
Q 2972 3213 2972 2159 
Q 2972 1422 2759 906 
Q 2547 391 2217 158 
Q 1888 -75 1581 -75 
Q 975 -75 572 641 
Q 231 1244 231 2094 
z
M 844 2016 
Q 844 1141 1059 588 
Q 1238 122 1591 122 
Q 1759 122 1940 273 
Q 2122 425 2216 781 
Q 2359 1319 2359 2297 
Q 2359 3022 2209 3506 
Q 2097 3866 1919 4016 
Q 1791 4119 1609 4119 
Q 1397 4119 1231 3928 
Q 1006 3669 925 3112 
Q 844 2556 844 2016 
z
" transform="scale(0.015625)"/>
     </defs>
     <use xlink:href="#TimesNewRomanPSMT-30"/>
    </g>
   </g>
   <g id="text_5">
    <!-- 0 -->
    <g transform="translate(44.9754 56.770547) scale(0.165 -0.165)">
     <use xlink:href="#TimesNewRomanPSMT-30"/>
    </g>
   </g>
   <g id="text_6">
    <!-- 0 -->
    <g transform="translate(72.5514 56.770547) scale(0.165 -0.165)">
     <use xlink:href="#TimesNewRomanPSMT-30"/>
    </g>
   </g>
   <g id="text_7">
    <!-- 0 -->
    <g transform="translate(17.3994 81.970547) scale(0.165 -0.165)">
     <use xlink:href="#TimesNewRomanPSMT-30"/>
    </g>
   </g>
   <g id="text_8">
    <!-- 1 -->
    <g transform="translate(44.9754 81.970547) scale(0.165 -0.165)">
     <defs>
      <path id="TimesNewRomanPSMT-31" d="M 750 3822 
L 1781 4325 
L 1884 4325 
L 1884 747 
Q 1884 391 1914 303 
Q 1944 216 2037 169 
Q 2131 122 2419 116 
L 2419 0 
L 825 0 
L 825 116 
Q 1125 122 1212 167 
Q 1300 213 1334 289 
Q 1369 366 1369 747 
L 1369 3034 
Q 1369 3497 1338 3628 
Q 1316 3728 1258 3775 
Q 1200 3822 1119 3822 
Q 1003 3822 797 3725 
L 750 3822 
z
" transform="scale(0.015625)"/>
     </defs>
     <use xlink:href="#TimesNewRomanPSMT-31"/>
    </g>
   </g>
   <g id="text_9">
    <!-- 1 -->
    <g transform="translate(72.5514 81.970547) scale(0.165 -0.165)">
     <use xlink:href="#TimesNewRomanPSMT-31"/>
    </g>
   </g>
   <g id="text_10">
    <!-- 1 -->
    <g transform="translate(17.3994 107.170547) scale(0.165 -0.165)">
     <use xlink:href="#TimesNewRomanPSMT-31"/>
    </g>
   </g>
   <g id="text_11">
    <!-- 0 -->
    <g transform="translate(44.9754 107.170547) scale(0.165 -0.165)">
     <use xlink:href="#TimesNewRomanPSMT-30"/>
    </g>
   </g>
   <g id="text_12">
    <!-- 1 -->
    <g transform="translate(72.5514 107.170547) scale(0.165 -0.165)">
     <use xlink:href="#TimesNewRomanPSMT-31"/>
    </g>
   </g>
   <g id="text_13">
    <!-- 1 -->
    <g transform="translate(17.3994 132.370547) scale(0.165 -0.165)">
     <use xlink:href="#TimesNewRomanPSMT-31"/>
    </g>
   </g>
   <g id="text_14">
    <!-- 1 -->
    <g transform="translate(44.9754 132.370547) scale(0.165 -0.165)">
     <use xlink:href="#TimesNewRomanPSMT-31"/>
    </g>
   </g>
   <g id="text_15">
    <!-- 0 -->
    <g transform="translate(72.5514 132.370547) scale(0.165 -0.165)">
     <use xlink:href="#TimesNewRomanPSMT-30"/>
    </g>
   </g>
  </g>
 </g>
 <defs>
  <clipPath id="pce6382f1fb">
   <rect x="3.6" y="3.6" width="91.0008" height="138.6"/>
  </clipPath>
 </defs>
</svg>
