<?xml version="1.0" encoding="utf-8" standalone="no"?>
<!DOCTYPE svg PUBLIC "-//W3C//DTD SVG 1.1//EN"
  "http://www.w3.org/Graphics/SVG/1.1/DTD/svg11.dtd">
<svg xmlns:xlink="http://www.w3.org/1999/xlink" width="98.997266pt" height="46.008pt" viewBox="0 0 98.997266 46.008" xmlns="http://www.w3.org/2000/svg" version="1.1">
 <metadata>
  <rdf:RDF xmlns:dc="http://purl.org/dc/elements/1.1/" xmlns:cc="http://creativecommons.org/ns#" xmlns:rdf="http://www.w3.org/1999/02/22-rdf-syntax-ns#">
   <cc:Work>
    <dc:type rdf:resource="http://purl.org/dc/dcmitype/StillImage"/>
    <dc:date>2024-02-22T19:22:05.274634</dc:date>
    <dc:format>image/svg+xml</dc:format>
    <dc:creator>
     <cc:Agent>
      <dc:title>Matplotlib v3.8.3, https://matplotlib.org/</dc:title>
     </cc:Agent>
    </dc:creator>
   </cc:Work>
  </rdf:RDF>
 </metadata>
 <defs>
  <style type="text/css">*{stroke-linejoin: round; stroke-linecap: butt}</style>
 </defs>
 <g id="figure_1">
  <g id="patch_1">
   <path d="M 0 46.008 
L 98.997266 46.008 
L 98.997266 0 
L 0 0 
z
" style="fill: #ffffff"/>
  </g>
  <g id="axes_1">
   <g id="line2d_1">
    <path d="M 28.3625 40.644 
L 47.905357 40.577878 
L 49.9625 40.284 
L 52.019643 39.75502 
L 54.076786 38.990939 
L 56.133929 37.991755 
L 58.191071 36.757469 
L 60.248214 35.288082 
L 62.305357 33.583592 
L 64.876786 31.122367 
L 67.448214 28.293796 
L 70.019643 25.097878 
L 71.5625 23.004 
L 71.5625 23.004 
L 68.991071 19.587673 
L 66.419643 16.538694 
L 63.848214 13.857061 
L 61.276786 11.542776 
L 59.219643 9.955837 
L 57.1625 8.604 
L 55.105357 7.487265 
L 53.048214 6.605633 
L 50.991071 5.959102 
L 48.933929 5.547673 
L 46.876786 5.371347 
L 46.3625 5.364 
L 28.3625 5.364 
L 28.3625 5.364 
L 30.3497 7.524 
L 32.0777 9.684 
L 33.5465 11.844 
L 34.7561 14.004 
L 35.7065 16.164 
L 36.3977 18.324 
L 36.8297 20.484 
L 37.0025 22.644 
L 36.9161 24.804 
L 36.5705 26.964 
L 35.9657 29.124 
L 35.1017 31.284 
L 33.9785 33.444 
L 32.5961 35.604 
L 30.9545 37.764 
L 29.0537 39.924 
L 28.3625 40.644 
L 28.3625 40.644 
" clip-path="url(#p57022d5173)" style="fill: none; stroke: #000000; stroke-width: 2; stroke-linecap: round"/>
   </g>
   <g id="line2d_2">
    <path d="M 22.9625 40.644 
L 23.6537 39.924 
L 24.3161 39.204 
L 24.9497 38.484 
L 25.5545 37.764 
L 26.1305 37.044 
L 26.6777 36.324 
L 27.1961 35.604 
L 27.6857 34.884 
L 28.1465 34.164 
L 28.5785 33.444 
L 28.9817 32.724 
L 29.3561 32.004 
L 29.7017 31.284 
L 30.0185 30.564 
L 30.3065 29.844 
L 30.5657 29.124 
L 30.7961 28.404 
L 30.9977 27.684 
L 31.1705 26.964 
L 31.3145 26.244 
L 31.4297 25.524 
L 31.5161 24.804 
L 31.5737 24.084 
L 31.6025 23.364 
L 31.6025 22.644 
L 31.5737 21.924 
L 31.5161 21.204 
L 31.4297 20.484 
L 31.3145 19.764 
L 31.1705 19.044 
L 30.9977 18.324 
L 30.7961 17.604 
L 30.5657 16.884 
L 30.3065 16.164 
L 30.0185 15.444 
L 29.7017 14.724 
L 29.3561 14.004 
L 28.9817 13.284 
L 28.5785 12.564 
L 28.1465 11.844 
L 27.6857 11.124 
L 27.1961 10.404 
L 26.6777 9.684 
L 26.1305 8.964 
L 25.5545 8.244 
L 24.9497 7.524 
L 24.3161 6.804 
L 23.6537 6.084 
L 22.9625 5.364 
" clip-path="url(#p57022d5173)" style="fill: none; stroke: #000000; stroke-width: 2; stroke-linecap: round"/>
   </g>
   <g id="line2d_3">
    <path d="M 15.7625 32.004 
L 29.3561 32.004 
" clip-path="url(#p57022d5173)" style="fill: none; stroke: #000000; stroke-width: 2; stroke-linecap: round"/>
   </g>
   <g id="line2d_4">
    <path d="M 15.7625 14.004 
L 29.3561 14.004 
" clip-path="url(#p57022d5173)" style="fill: none; stroke: #000000; stroke-width: 2; stroke-linecap: round"/>
   </g>
   <g id="line2d_5">
    <path d="M 71.5625 23.004 
L 84.1625 23.004 
" clip-path="url(#p57022d5173)" style="fill: none; stroke: #000000; stroke-width: 2; stroke-linecap: round"/>
   </g>
   <g id="text_1">
    <!-- Y -->
    <g transform="translate(87.7625 26.453219) scale(0.125 -0.125)">
     <defs>
      <path id="DejaVuSans-59" d="M -13 4666 
L 666 4666 
L 1959 2747 
L 3244 4666 
L 3922 4666 
L 2272 2222 
L 2272 0 
L 1638 0 
L 1638 2222 
L -13 4666 
z
" transform="scale(0.015625)"/>
     </defs>
     <use xlink:href="#DejaVuSans-59"/>
    </g>
   </g>
   <g id="text_2">
    <!-- X -->
    <g transform="translate(3.6 17.453219) scale(0.125 -0.125)">
     <defs>
      <path id="DejaVuSans-58" d="M 403 4666 
L 1081 4666 
L 2241 2931 
L 3406 4666 
L 4084 4666 
L 2584 2425 
L 4184 0 
L 3506 0 
L 2194 1984 
L 872 0 
L 191 0 
L 1856 2491 
L 403 4666 
z
" transform="scale(0.015625)"/>
     </defs>
     <use xlink:href="#DejaVuSans-58"/>
    </g>
   </g>
   <g id="text_3">
    <!-- V -->
    <g transform="translate(3.611719 35.453219) scale(0.125 -0.125)">
     <defs>
      <path id="DejaVuSans-56" d="M 1831 0 
L 50 4666 
L 709 4666 
L 2188 738 
L 3669 4666 
L 4325 4666 
L 2547 0 
L 1831 0 
z
" transform="scale(0.015625)"/>
     </defs>
     <use xlink:href="#DejaVuSans-56"/>
    </g>
   </g>
  </g>
 </g>
 <defs>
  <clipPath id="p57022d5173">
   <rect x="12.3425" y="3.6" width="75.24" height="38.808"/>
  </clipPath>
 </defs>
</svg>
