<?xml version="1.0" encoding="utf-8" standalone="no"?>
<!DOCTYPE svg PUBLIC "-//W3C//DTD SVG 1.1//EN"
  "http://www.w3.org/Graphics/SVG/1.1/DTD/svg11.dtd">
<svg xmlns:xlink="http://www.w3.org/1999/xlink" width="256.487891pt" height="298.854pt" viewBox="0 0 256.487891 298.854" xmlns="http://www.w3.org/2000/svg" version="1.1">
 <metadata>
  <rdf:RDF xmlns:dc="http://purl.org/dc/elements/1.1/" xmlns:cc="http://creativecommons.org/ns#" xmlns:rdf="http://www.w3.org/1999/02/22-rdf-syntax-ns#">
   <cc:Work>
    <dc:type rdf:resource="http://purl.org/dc/dcmitype/StillImage"/>
    <dc:date>2024-03-02T18:02:00.526345</dc:date>
    <dc:format>image/svg+xml</dc:format>
    <dc:creator>
     <cc:Agent>
      <dc:title>Matplotlib v3.8.2, https://matplotlib.org/</dc:title>
     </cc:Agent>
    </dc:creator>
   </cc:Work>
  </rdf:RDF>
 </metadata>
 <defs>
  <style type="text/css">*{stroke-linejoin: round; stroke-linecap: butt}</style>
 </defs>
 <g id="figure_1">
  <g id="patch_1">
   <path d="M 0 298.854 
L 256.487891 298.854 
L 256.487891 0 
L 0 0 
z
" style="fill: #ffffff"/>
  </g>
  <g id="axes_1">
   <g id="patch_2">
    <path d="M 70.513281 106.317 
C 71.658959 106.317 72.757866 105.861818 73.567983 105.051701 
C 74.378099 104.241585 74.833281 103.142677 74.833281 101.997 
C 74.833281 100.851323 74.378099 99.752415 73.567983 98.942299 
C 72.757866 98.132182 71.658959 97.677 70.513281 97.677 
C 69.367604 97.677 68.268696 98.132182 67.45858 98.942299 
C 66.648464 99.752415 66.193281 100.851323 66.193281 101.997 
C 66.193281 103.142677 66.648464 104.241585 67.45858 105.051701 
C 68.268696 105.861818 69.367604 106.317 70.513281 106.317 
L 70.513281 106.317 
z
" clip-path="url(#pb61a7edb62)" style="fill: none; stroke: #000000; stroke-width: 2; stroke-linejoin: miter"/>
   </g>
   <g id="patch_3">
    <path d="M 70.513281 160.317 
C 71.658959 160.317 72.757866 159.861818 73.567983 159.051701 
C 74.378099 158.241585 74.833281 157.142677 74.833281 155.997 
C 74.833281 154.851323 74.378099 153.752415 73.567983 152.942299 
C 72.757866 152.132182 71.658959 151.677 70.513281 151.677 
C 69.367604 151.677 68.268696 152.132182 67.45858 152.942299 
C 66.648464 153.752415 66.193281 154.851323 66.193281 155.997 
C 66.193281 157.142677 66.648464 158.241585 67.45858 159.051701 
C 68.268696 159.861818 69.367604 160.317 70.513281 160.317 
L 70.513281 160.317 
z
" clip-path="url(#pb61a7edb62)" style="fill: none; stroke: #000000; stroke-width: 2; stroke-linejoin: miter"/>
   </g>
   <g id="patch_4">
    <path d="M 70.513281 214.317 
C 71.658959 214.317 72.757866 213.861818 73.567983 213.051701 
C 74.378099 212.241585 74.833281 211.142677 74.833281 209.997 
C 74.833281 208.851323 74.378099 207.752415 73.567983 206.942299 
C 72.757866 206.132182 71.658959 205.677 70.513281 205.677 
C 69.367604 205.677 68.268696 206.132182 67.45858 206.942299 
C 66.648464 207.752415 66.193281 208.851323 66.193281 209.997 
C 66.193281 211.142677 66.648464 212.241585 67.45858 213.051701 
C 68.268696 213.861818 69.367604 214.317 70.513281 214.317 
L 70.513281 214.317 
z
" clip-path="url(#pb61a7edb62)" style="fill: none; stroke: #000000; stroke-width: 2; stroke-linejoin: miter"/>
   </g>
   <g id="patch_5">
    <path d="M 70.513281 241.317 
C 71.658959 241.317 72.757866 240.861818 73.567983 240.051701 
C 74.378099 239.241585 74.833281 238.142677 74.833281 236.997 
C 74.833281 235.851323 74.378099 234.752415 73.567983 233.942299 
C 72.757866 233.132182 71.658959 232.677 70.513281 232.677 
C 69.367604 232.677 68.268696 233.132182 67.45858 233.942299 
C 66.648464 234.752415 66.193281 235.851323 66.193281 236.997 
C 66.193281 238.142677 66.648464 239.241585 67.45858 240.051701 
C 68.268696 240.861818 69.367604 241.317 70.513281 241.317 
L 70.513281 241.317 
z
" clip-path="url(#pb61a7edb62)" style="fill: none; stroke: #000000; stroke-width: 2; stroke-linejoin: miter"/>
   </g>
   <g id="patch_6">
    <path d="M 70.513281 268.317 
C 71.658959 268.317 72.757866 267.861818 73.567983 267.051701 
C 74.378099 266.241585 74.833281 265.142677 74.833281 263.997 
C 74.833281 262.851323 74.378099 261.752415 73.567983 260.942299 
C 72.757866 260.132182 71.658959 259.677 70.513281 259.677 
C 69.367604 259.677 68.268696 260.132182 67.45858 260.942299 
C 66.648464 261.752415 66.193281 262.851323 66.193281 263.997 
C 66.193281 265.142677 66.648464 266.241585 67.45858 267.051701 
C 68.268696 267.861818 69.367604 268.317 70.513281 268.317 
L 70.513281 268.317 
z
" clip-path="url(#pb61a7edb62)" style="fill: none; stroke: #000000; stroke-width: 2; stroke-linejoin: miter"/>
   </g>
   <g id="line2d_1">
    <path d="M 208.213281 160.497 
L 209.366545 160.460017 
L 210.51507 160.34922 
L 211.654137 160.165065 
L 212.779064 159.908308 
L 213.885229 159.580003 
L 214.968087 159.181502 
L 216.023189 158.71444 
L 217.046197 158.180737 
L 218.032909 157.582586 
L 218.979271 156.922445 
L 219.881392 156.203027 
L 220.735567 155.427288 
L 221.538285 154.598416 
L 222.286248 153.719816 
L 222.976382 152.7951 
L 223.605851 151.828066 
L 224.172069 150.822689 
L 224.672708 149.7831 
L 225.105713 148.713571 
L 225.469303 147.618497 
L 225.761984 146.502377 
L 225.982553 145.369798 
L 226.130105 144.225414 
L 226.204033 143.073928 
L 226.204033 141.920072 
L 226.130105 140.768586 
L 225.982553 139.624202 
L 225.761984 138.491623 
L 225.469303 137.375503 
L 225.105713 136.280429 
L 224.672708 135.2109 
L 224.172069 134.171311 
L 223.605851 133.165934 
L 222.976382 132.1989 
L 222.286248 131.274184 
L 221.538285 130.395584 
L 220.735567 129.566712 
L 219.881392 128.790973 
L 218.979271 128.071555 
L 218.032909 127.411414 
L 217.046197 126.813263 
L 216.023189 126.27956 
L 214.968087 125.812498 
L 213.885229 125.413997 
L 212.779064 125.085692 
L 211.654137 124.828935 
L 210.51507 124.64478 
L 209.366545 124.533983 
L 208.213281 124.497 
L 208.213281 124.497 
L 184.813281 124.497 
L 184.813281 142.497 
L 184.813281 160.497 
L 208.213281 160.497 
" clip-path="url(#pb61a7edb62)" style="fill: none; stroke: #000000; stroke-width: 2; stroke-linecap: round"/>
   </g>
   <g id="line2d_2">
    <path d="M 172.213281 171.297 
L 184.813281 171.297 
" clip-path="url(#pb61a7edb62)" style="fill: none; stroke: #000000; stroke-width: 2; stroke-linecap: round"/>
   </g>
   <g id="line2d_3">
    <path d="M 172.213281 156.897 
L 184.813281 156.897 
" clip-path="url(#pb61a7edb62)" style="fill: none; stroke: #000000; stroke-width: 2; stroke-linecap: round"/>
   </g>
   <g id="line2d_4">
    <path d="M 172.213281 142.497 
L 184.813281 142.497 
" clip-path="url(#pb61a7edb62)" style="fill: none; stroke: #000000; stroke-width: 2; stroke-linecap: round"/>
   </g>
   <g id="line2d_5">
    <path d="M 172.213281 128.097 
L 184.813281 128.097 
" clip-path="url(#pb61a7edb62)" style="fill: none; stroke: #000000; stroke-width: 2; stroke-linecap: round"/>
   </g>
   <g id="line2d_6">
    <path d="M 172.213281 113.697 
L 184.813281 113.697 
" clip-path="url(#pb61a7edb62)" style="fill: none; stroke: #000000; stroke-width: 2; stroke-linecap: round"/>
   </g>
   <g id="line2d_7">
    <path d="M 184.813281 106.497 
L 184.813281 178.497 
" clip-path="url(#pb61a7edb62)" style="fill: none; stroke: #000000; stroke-width: 2; stroke-linecap: round"/>
   </g>
   <g id="line2d_8">
    <path d="M 226.213281 142.497 
L 238.813281 142.497 
" clip-path="url(#pb61a7edb62)" style="fill: none; stroke: #000000; stroke-width: 2; stroke-linecap: round"/>
   </g>
   <g id="line2d_9">
    <path d="M 111.013281 52.137 
L 130.556138 52.070878 
L 132.613281 51.777 
L 134.670424 51.24802 
L 136.727567 50.483939 
L 138.78471 49.484755 
L 140.841853 48.250469 
L 142.898996 46.781082 
L 144.956138 45.076592 
L 147.527567 42.615367 
L 150.098996 39.786796 
L 152.670424 36.590878 
L 154.213281 34.497 
L 154.213281 34.497 
L 151.641853 31.080673 
L 149.070424 28.031694 
L 146.498996 25.350061 
L 143.927567 23.035776 
L 141.870424 21.448837 
L 139.813281 20.097 
L 137.756138 18.980265 
L 135.698996 18.098633 
L 133.641853 17.452102 
L 131.58471 17.040673 
L 129.527567 16.864347 
L 129.013281 16.857 
L 111.013281 16.857 
L 111.013281 16.857 
L 113.000481 19.017 
L 114.728481 21.177 
L 116.197281 23.337 
L 117.406881 25.497 
L 118.357281 27.657 
L 119.048481 29.817 
L 119.480481 31.977 
L 119.653281 34.137 
L 119.566881 36.297 
L 119.221281 38.457 
L 118.616481 40.617 
L 117.752481 42.777 
L 116.629281 44.937 
L 115.246881 47.097 
L 113.605281 49.257 
L 111.704481 51.417 
L 111.013281 52.137 
L 111.013281 52.137 
" clip-path="url(#pb61a7edb62)" style="fill: none; stroke: #000000; stroke-width: 2; stroke-linecap: round"/>
   </g>
   <g id="line2d_10">
    <path d="M 98.413281 43.497 
L 117.406881 43.497 
" clip-path="url(#pb61a7edb62)" style="fill: none; stroke: #000000; stroke-width: 2; stroke-linecap: round"/>
   </g>
   <g id="line2d_11">
    <path d="M 98.413281 25.497 
L 117.406881 25.497 
" clip-path="url(#pb61a7edb62)" style="fill: none; stroke: #000000; stroke-width: 2; stroke-linecap: round"/>
   </g>
   <g id="line2d_12">
    <path d="M 154.213281 34.497 
L 166.813281 34.497 
" clip-path="url(#pb61a7edb62)" style="fill: none; stroke: #000000; stroke-width: 2; stroke-linecap: round"/>
   </g>
   <g id="line2d_13">
    <path d="M 172.213281 113.697 
L 166.813281 113.697 
L 166.813281 34.497 
" clip-path="url(#pb61a7edb62)" style="fill: none; stroke: #000000; stroke-width: 2; stroke-linecap: round"/>
   </g>
   <g id="line2d_14">
    <path d="M 111.013281 106.137 
L 130.556138 106.070878 
L 132.613281 105.777 
L 134.670424 105.24802 
L 136.727567 104.483939 
L 138.78471 103.484755 
L 140.841853 102.250469 
L 142.898996 100.781082 
L 144.956138 99.076592 
L 147.527567 96.615367 
L 150.098996 93.786796 
L 152.670424 90.590878 
L 154.213281 88.497 
L 154.213281 88.497 
L 151.641853 85.080673 
L 149.070424 82.031694 
L 146.498996 79.350061 
L 143.927567 77.035776 
L 141.870424 75.448837 
L 139.813281 74.097 
L 137.756138 72.980265 
L 135.698996 72.098633 
L 133.641853 71.452102 
L 131.58471 71.040673 
L 129.527567 70.864347 
L 129.013281 70.857 
L 111.013281 70.857 
L 111.013281 70.857 
L 113.000481 73.017 
L 114.728481 75.177 
L 116.197281 77.337 
L 117.406881 79.497 
L 118.357281 81.657 
L 119.048481 83.817 
L 119.480481 85.977 
L 119.653281 88.137 
L 119.566881 90.297 
L 119.221281 92.457 
L 118.616481 94.617 
L 117.752481 96.777 
L 116.629281 98.937 
L 115.246881 101.097 
L 113.605281 103.257 
L 111.704481 105.417 
L 111.013281 106.137 
L 111.013281 106.137 
" clip-path="url(#pb61a7edb62)" style="fill: none; stroke: #000000; stroke-width: 2; stroke-linecap: round"/>
   </g>
   <g id="line2d_15">
    <path d="M 98.413281 97.497 
L 117.406881 97.497 
" clip-path="url(#pb61a7edb62)" style="fill: none; stroke: #000000; stroke-width: 2; stroke-linecap: round"/>
   </g>
   <g id="line2d_16">
    <path d="M 98.413281 79.497 
L 117.406881 79.497 
" clip-path="url(#pb61a7edb62)" style="fill: none; stroke: #000000; stroke-width: 2; stroke-linecap: round"/>
   </g>
   <g id="line2d_17">
    <path d="M 154.213281 88.497 
L 166.813281 88.497 
" clip-path="url(#pb61a7edb62)" style="fill: none; stroke: #000000; stroke-width: 2; stroke-linecap: round"/>
   </g>
   <g id="line2d_18">
    <path d="M 22.813281 101.997 
L 42.793281 101.997 
M 74.833281 101.997 
L 94.813281 101.997 
" clip-path="url(#pb61a7edb62)" style="fill: none; stroke: #000000; stroke-width: 2; stroke-linecap: round"/>
   </g>
   <g id="line2d_19">
    <path d="M 42.793281 83.997 
L 66.193281 101.997 
L 42.793281 119.997 
L 42.793281 83.997 
" clip-path="url(#pb61a7edb62)" style="fill: none; stroke: #000000; stroke-width: 2; stroke-linecap: round"/>
   </g>
   <g id="line2d_20">
    <path d="M 98.413281 97.497 
L 94.813281 97.497 
L 94.813281 101.997 
" clip-path="url(#pb61a7edb62)" style="fill: none; stroke: #000000; stroke-width: 2; stroke-linecap: round"/>
   </g>
   <g id="line2d_21">
    <path d="M 172.213281 128.097 
L 166.813281 128.097 
L 166.813281 88.497 
" clip-path="url(#pb61a7edb62)" style="fill: none; stroke: #000000; stroke-width: 2; stroke-linecap: round"/>
   </g>
   <g id="line2d_22">
    <path d="M 111.013281 160.137 
L 130.556138 160.070878 
L 132.613281 159.777 
L 134.670424 159.24802 
L 136.727567 158.483939 
L 138.78471 157.484755 
L 140.841853 156.250469 
L 142.898996 154.781082 
L 144.956138 153.076592 
L 147.527567 150.615367 
L 150.098996 147.786796 
L 152.670424 144.590878 
L 154.213281 142.497 
L 154.213281 142.497 
L 151.641853 139.080673 
L 149.070424 136.031694 
L 146.498996 133.350061 
L 143.927567 131.035776 
L 141.870424 129.448837 
L 139.813281 128.097 
L 137.756138 126.980265 
L 135.698996 126.098633 
L 133.641853 125.452102 
L 131.58471 125.040673 
L 129.527567 124.864347 
L 129.013281 124.857 
L 111.013281 124.857 
L 111.013281 124.857 
L 113.000481 127.017 
L 114.728481 129.177 
L 116.197281 131.337 
L 117.406881 133.497 
L 118.357281 135.657 
L 119.048481 137.817 
L 119.480481 139.977 
L 119.653281 142.137 
L 119.566881 144.297 
L 119.221281 146.457 
L 118.616481 148.617 
L 117.752481 150.777 
L 116.629281 152.937 
L 115.246881 155.097 
L 113.605281 157.257 
L 111.704481 159.417 
L 111.013281 160.137 
L 111.013281 160.137 
" clip-path="url(#pb61a7edb62)" style="fill: none; stroke: #000000; stroke-width: 2; stroke-linecap: round"/>
   </g>
   <g id="line2d_23">
    <path d="M 98.413281 151.497 
L 117.406881 151.497 
" clip-path="url(#pb61a7edb62)" style="fill: none; stroke: #000000; stroke-width: 2; stroke-linecap: round"/>
   </g>
   <g id="line2d_24">
    <path d="M 98.413281 133.497 
L 117.406881 133.497 
" clip-path="url(#pb61a7edb62)" style="fill: none; stroke: #000000; stroke-width: 2; stroke-linecap: round"/>
   </g>
   <g id="line2d_25">
    <path d="M 154.213281 142.497 
L 166.813281 142.497 
" clip-path="url(#pb61a7edb62)" style="fill: none; stroke: #000000; stroke-width: 2; stroke-linecap: round"/>
   </g>
   <g id="line2d_26">
    <path d="M 22.813281 155.997 
L 42.793281 155.997 
M 74.833281 155.997 
L 94.813281 155.997 
" clip-path="url(#pb61a7edb62)" style="fill: none; stroke: #000000; stroke-width: 2; stroke-linecap: round"/>
   </g>
   <g id="line2d_27">
    <path d="M 42.793281 137.997 
L 66.193281 155.997 
L 42.793281 173.997 
L 42.793281 137.997 
" clip-path="url(#pb61a7edb62)" style="fill: none; stroke: #000000; stroke-width: 2; stroke-linecap: round"/>
   </g>
   <g id="line2d_28">
    <path d="M 98.413281 151.497 
L 94.813281 151.497 
L 94.813281 155.997 
" clip-path="url(#pb61a7edb62)" style="fill: none; stroke: #000000; stroke-width: 2; stroke-linecap: round"/>
   </g>
   <g id="line2d_29">
    <path d="M 172.213281 142.497 
L 166.813281 142.497 
L 166.813281 142.497 
" clip-path="url(#pb61a7edb62)" style="fill: none; stroke: #000000; stroke-width: 2; stroke-linecap: round"/>
   </g>
   <g id="line2d_30">
    <path d="M 111.013281 214.137 
L 130.556138 214.070878 
L 132.613281 213.777 
L 134.670424 213.24802 
L 136.727567 212.483939 
L 138.78471 211.484755 
L 140.841853 210.250469 
L 142.898996 208.781082 
L 144.956138 207.076592 
L 147.527567 204.615367 
L 150.098996 201.786796 
L 152.670424 198.590878 
L 154.213281 196.497 
L 154.213281 196.497 
L 151.641853 193.080673 
L 149.070424 190.031694 
L 146.498996 187.350061 
L 143.927567 185.035776 
L 141.870424 183.448837 
L 139.813281 182.097 
L 137.756138 180.980265 
L 135.698996 180.098633 
L 133.641853 179.452102 
L 131.58471 179.040673 
L 129.527567 178.864347 
L 129.013281 178.857 
L 111.013281 178.857 
L 111.013281 178.857 
L 113.000481 181.017 
L 114.728481 183.177 
L 116.197281 185.337 
L 117.406881 187.497 
L 118.357281 189.657 
L 119.048481 191.817 
L 119.480481 193.977 
L 119.653281 196.137 
L 119.566881 198.297 
L 119.221281 200.457 
L 118.616481 202.617 
L 117.752481 204.777 
L 116.629281 206.937 
L 115.246881 209.097 
L 113.605281 211.257 
L 111.704481 213.417 
L 111.013281 214.137 
L 111.013281 214.137 
" clip-path="url(#pb61a7edb62)" style="fill: none; stroke: #000000; stroke-width: 2; stroke-linecap: round"/>
   </g>
   <g id="line2d_31">
    <path d="M 98.413281 205.497 
L 117.406881 205.497 
" clip-path="url(#pb61a7edb62)" style="fill: none; stroke: #000000; stroke-width: 2; stroke-linecap: round"/>
   </g>
   <g id="line2d_32">
    <path d="M 98.413281 187.497 
L 117.406881 187.497 
" clip-path="url(#pb61a7edb62)" style="fill: none; stroke: #000000; stroke-width: 2; stroke-linecap: round"/>
   </g>
   <g id="line2d_33">
    <path d="M 154.213281 196.497 
L 166.813281 196.497 
" clip-path="url(#pb61a7edb62)" style="fill: none; stroke: #000000; stroke-width: 2; stroke-linecap: round"/>
   </g>
   <g id="line2d_34">
    <path d="M 22.813281 209.997 
L 42.793281 209.997 
M 74.833281 209.997 
L 94.813281 209.997 
" clip-path="url(#pb61a7edb62)" style="fill: none; stroke: #000000; stroke-width: 2; stroke-linecap: round"/>
   </g>
   <g id="line2d_35">
    <path d="M 42.793281 191.997 
L 66.193281 209.997 
L 42.793281 227.997 
L 42.793281 191.997 
" clip-path="url(#pb61a7edb62)" style="fill: none; stroke: #000000; stroke-width: 2; stroke-linecap: round"/>
   </g>
   <g id="line2d_36">
    <path d="M 98.413281 205.497 
L 94.813281 205.497 
L 94.813281 209.997 
" clip-path="url(#pb61a7edb62)" style="fill: none; stroke: #000000; stroke-width: 2; stroke-linecap: round"/>
   </g>
   <g id="line2d_37">
    <path d="M 172.213281 156.897 
L 166.813281 156.897 
L 166.813281 196.497 
" clip-path="url(#pb61a7edb62)" style="fill: none; stroke: #000000; stroke-width: 2; stroke-linecap: round"/>
   </g>
   <g id="line2d_38">
    <path d="M 111.013281 268.137 
L 130.556138 268.070878 
L 132.613281 267.777 
L 134.670424 267.24802 
L 136.727567 266.483939 
L 138.78471 265.484755 
L 140.841853 264.250469 
L 142.898996 262.781082 
L 144.956138 261.076592 
L 147.527567 258.615367 
L 150.098996 255.786796 
L 152.670424 252.590878 
L 154.213281 250.497 
L 154.213281 250.497 
L 151.641853 247.080673 
L 149.070424 244.031694 
L 146.498996 241.350061 
L 143.927567 239.035776 
L 141.870424 237.448837 
L 139.813281 236.097 
L 137.756138 234.980265 
L 135.698996 234.098633 
L 133.641853 233.452102 
L 131.58471 233.040673 
L 129.527567 232.864347 
L 129.013281 232.857 
L 111.013281 232.857 
L 111.013281 232.857 
L 113.000481 235.017 
L 114.728481 237.177 
L 116.197281 239.337 
L 117.406881 241.497 
L 118.357281 243.657 
L 119.048481 245.817 
L 119.480481 247.977 
L 119.653281 250.137 
L 119.566881 252.297 
L 119.221281 254.457 
L 118.616481 256.617 
L 117.752481 258.777 
L 116.629281 260.937 
L 115.246881 263.097 
L 113.605281 265.257 
L 111.704481 267.417 
L 111.013281 268.137 
L 111.013281 268.137 
" clip-path="url(#pb61a7edb62)" style="fill: none; stroke: #000000; stroke-width: 2; stroke-linecap: round"/>
   </g>
   <g id="line2d_39">
    <path d="M 98.413281 259.497 
L 117.406881 259.497 
" clip-path="url(#pb61a7edb62)" style="fill: none; stroke: #000000; stroke-width: 2; stroke-linecap: round"/>
   </g>
   <g id="line2d_40">
    <path d="M 98.413281 241.497 
L 117.406881 241.497 
" clip-path="url(#pb61a7edb62)" style="fill: none; stroke: #000000; stroke-width: 2; stroke-linecap: round"/>
   </g>
   <g id="line2d_41">
    <path d="M 154.213281 250.497 
L 166.813281 250.497 
" clip-path="url(#pb61a7edb62)" style="fill: none; stroke: #000000; stroke-width: 2; stroke-linecap: round"/>
   </g>
   <g id="line2d_42">
    <path d="M 22.813281 236.997 
L 42.793281 236.997 
M 74.833281 236.997 
L 94.813281 236.997 
" clip-path="url(#pb61a7edb62)" style="fill: none; stroke: #000000; stroke-width: 2; stroke-linecap: round"/>
   </g>
   <g id="line2d_43">
    <path d="M 42.793281 218.997 
L 66.193281 236.997 
L 42.793281 254.997 
L 42.793281 218.997 
" clip-path="url(#pb61a7edb62)" style="fill: none; stroke: #000000; stroke-width: 2; stroke-linecap: round"/>
   </g>
   <g id="line2d_44">
    <path d="M 98.413281 241.497 
L 94.813281 241.497 
L 94.813281 236.997 
" clip-path="url(#pb61a7edb62)" style="fill: none; stroke: #000000; stroke-width: 2; stroke-linecap: round"/>
   </g>
   <g id="line2d_45">
    <path d="M 22.813281 263.997 
L 42.793281 263.997 
M 74.833281 263.997 
L 94.813281 263.997 
" clip-path="url(#pb61a7edb62)" style="fill: none; stroke: #000000; stroke-width: 2; stroke-linecap: round"/>
   </g>
   <g id="line2d_46">
    <path d="M 42.793281 245.997 
L 66.193281 263.997 
L 42.793281 281.997 
L 42.793281 245.997 
" clip-path="url(#pb61a7edb62)" style="fill: none; stroke: #000000; stroke-width: 2; stroke-linecap: round"/>
   </g>
   <g id="line2d_47">
    <path d="M 98.413281 259.497 
L 94.813281 259.497 
L 94.813281 263.997 
" clip-path="url(#pb61a7edb62)" style="fill: none; stroke: #000000; stroke-width: 2; stroke-linecap: round"/>
   </g>
   <g id="line2d_48">
    <path d="M 172.213281 171.297 
L 166.813281 171.297 
L 166.813281 250.497 
" clip-path="url(#pb61a7edb62)" style="fill: none; stroke: #000000; stroke-width: 2; stroke-linecap: round"/>
   </g>
   <g id="text_1">
    <!-- &lt; -->
    <g transform="translate(242.413281 145.946219) scale(0.125 -0.125)">
     <defs>
      <path id="DejaVuSans-3c" d="M 4684 3150 
L 1459 2003 
L 4684 863 
L 4684 294 
L 678 1747 
L 678 2266 
L 4684 3719 
L 4684 3150 
z
" transform="scale(0.015625)"/>
     </defs>
     <use xlink:href="#DejaVuSans-3c"/>
    </g>
   </g>
   <g id="text_2">
    <!-- b0 -->
    <g transform="translate(78.924609 28.946219) scale(0.125 -0.125)">
     <defs>
      <path id="DejaVuSans-62" d="M 3116 1747 
Q 3116 2381 2855 2742 
Q 2594 3103 2138 3103 
Q 1681 3103 1420 2742 
Q 1159 2381 1159 1747 
Q 1159 1113 1420 752 
Q 1681 391 2138 391 
Q 2594 391 2855 752 
Q 3116 1113 3116 1747 
z
M 1159 2969 
Q 1341 3281 1617 3432 
Q 1894 3584 2278 3584 
Q 2916 3584 3314 3078 
Q 3713 2572 3713 1747 
Q 3713 922 3314 415 
Q 2916 -91 2278 -91 
Q 1894 -91 1617 61 
Q 1341 213 1159 525 
L 1159 0 
L 581 0 
L 581 4863 
L 1159 4863 
L 1159 2969 
z
" transform="scale(0.015625)"/>
      <path id="DejaVuSans-30" d="M 2034 4250 
Q 1547 4250 1301 3770 
Q 1056 3291 1056 2328 
Q 1056 1369 1301 889 
Q 1547 409 2034 409 
Q 2525 409 2770 889 
Q 3016 1369 3016 2328 
Q 3016 3291 2770 3770 
Q 2525 4250 2034 4250 
z
M 2034 4750 
Q 2819 4750 3233 4129 
Q 3647 3509 3647 2328 
Q 3647 1150 3233 529 
Q 2819 -91 2034 -91 
Q 1250 -91 836 529 
Q 422 1150 422 2328 
Q 422 3509 836 4129 
Q 1250 4750 2034 4750 
z
" transform="scale(0.015625)"/>
     </defs>
     <use xlink:href="#DejaVuSans-62"/>
     <use xlink:href="#DejaVuSans-30" x="63.476562"/>
    </g>
   </g>
   <g id="text_3">
    <!-- b1 -->
    <g transform="translate(78.924609 46.946219) scale(0.125 -0.125)">
     <defs>
      <path id="DejaVuSans-31" d="M 794 531 
L 1825 531 
L 1825 4091 
L 703 3866 
L 703 4441 
L 1819 4666 
L 2450 4666 
L 2450 531 
L 3481 531 
L 3481 0 
L 794 0 
L 794 531 
z
" transform="scale(0.015625)"/>
     </defs>
     <use xlink:href="#DejaVuSans-62"/>
     <use xlink:href="#DejaVuSans-31" x="63.476562"/>
    </g>
   </g>
   <g id="text_4">
    <!-- b0 -->
    <g transform="translate(78.924609 82.946219) scale(0.125 -0.125)">
     <use xlink:href="#DejaVuSans-62"/>
     <use xlink:href="#DejaVuSans-30" x="63.476562"/>
    </g>
   </g>
   <g id="text_5">
    <!-- a1 -->
    <g transform="translate(3.6 105.446219) scale(0.125 -0.125)">
     <defs>
      <path id="DejaVuSans-61" d="M 2194 1759 
Q 1497 1759 1228 1600 
Q 959 1441 959 1056 
Q 959 750 1161 570 
Q 1363 391 1709 391 
Q 2188 391 2477 730 
Q 2766 1069 2766 1631 
L 2766 1759 
L 2194 1759 
z
M 3341 1997 
L 3341 0 
L 2766 0 
L 2766 531 
Q 2569 213 2275 61 
Q 1981 -91 1556 -91 
Q 1019 -91 701 211 
Q 384 513 384 1019 
Q 384 1609 779 1909 
Q 1175 2209 1959 2209 
L 2766 2209 
L 2766 2266 
Q 2766 2663 2505 2880 
Q 2244 3097 1772 3097 
Q 1472 3097 1187 3025 
Q 903 2953 641 2809 
L 641 3341 
Q 956 3463 1253 3523 
Q 1550 3584 1831 3584 
Q 2591 3584 2966 3190 
Q 3341 2797 3341 1997 
z
" transform="scale(0.015625)"/>
     </defs>
     <use xlink:href="#DejaVuSans-61"/>
     <use xlink:href="#DejaVuSans-31" x="61.279297"/>
    </g>
   </g>
   <g id="text_6">
    <!-- b1 -->
    <g transform="translate(78.924609 136.946219) scale(0.125 -0.125)">
     <use xlink:href="#DejaVuSans-62"/>
     <use xlink:href="#DejaVuSans-31" x="63.476562"/>
    </g>
   </g>
   <g id="text_7">
    <!-- a0 -->
    <g transform="translate(3.6 159.446219) scale(0.125 -0.125)">
     <use xlink:href="#DejaVuSans-61"/>
     <use xlink:href="#DejaVuSans-30" x="61.279297"/>
    </g>
   </g>
   <g id="text_8">
    <!-- b1 -->
    <g transform="translate(78.924609 190.946219) scale(0.125 -0.125)">
     <use xlink:href="#DejaVuSans-62"/>
     <use xlink:href="#DejaVuSans-31" x="63.476562"/>
    </g>
   </g>
   <g id="text_9">
    <!-- a1 -->
    <g transform="translate(3.6 213.446219) scale(0.125 -0.125)">
     <use xlink:href="#DejaVuSans-61"/>
     <use xlink:href="#DejaVuSans-31" x="61.279297"/>
    </g>
   </g>
   <g id="text_10">
    <!-- a0 -->
    <g transform="translate(3.6 240.446219) scale(0.125 -0.125)">
     <use xlink:href="#DejaVuSans-61"/>
     <use xlink:href="#DejaVuSans-30" x="61.279297"/>
    </g>
   </g>
   <g id="text_11">
    <!-- a1 -->
    <g transform="translate(3.6 267.446219) scale(0.125 -0.125)">
     <use xlink:href="#DejaVuSans-61"/>
     <use xlink:href="#DejaVuSans-31" x="61.279297"/>
    </g>
   </g>
  </g>
 </g>
 <defs>
  <clipPath id="pb61a7edb62">
   <rect x="12.013281" y="3.6" width="237.6" height="291.654"/>
  </clipPath>
 </defs>
</svg>
