<?xml version="1.0" encoding="utf-8" standalone="no"?>
<!DOCTYPE svg PUBLIC "-//W3C//DTD SVG 1.1//EN"
  "http://www.w3.org/Graphics/SVG/1.1/DTD/svg11.dtd">
<svg xmlns:xlink="http://www.w3.org/1999/xlink" width="256.763281pt" height="269.154pt" viewBox="0 0 256.763281 269.154" xmlns="http://www.w3.org/2000/svg" version="1.1">
 <metadata>
  <rdf:RDF xmlns:dc="http://purl.org/dc/elements/1.1/" xmlns:cc="http://creativecommons.org/ns#" xmlns:rdf="http://www.w3.org/1999/02/22-rdf-syntax-ns#">
   <cc:Work>
    <dc:type rdf:resource="http://purl.org/dc/dcmitype/StillImage"/>
    <dc:date>2024-03-02T18:02:00.177898</dc:date>
    <dc:format>image/svg+xml</dc:format>
    <dc:creator>
     <cc:Agent>
      <dc:title>Matplotlib v3.8.2, https://matplotlib.org/</dc:title>
     </cc:Agent>
    </dc:creator>
   </cc:Work>
  </rdf:RDF>
 </metadata>
 <defs>
  <style type="text/css">*{stroke-linejoin: round; stroke-linecap: butt}</style>
 </defs>
 <g id="figure_1">
  <g id="patch_1">
   <path d="M 0 269.154 
L 256.763281 269.154 
L 256.763281 0 
L 0 0 
z
" style="fill: #ffffff"/>
  </g>
  <g id="axes_1">
   <g id="patch_2">
    <path d="M 70.788672 50.967 
C 71.934349 50.967 73.033257 50.511818 73.843373 49.701701 
C 74.653489 48.891585 75.108672 47.792677 75.108672 46.647 
C 75.108672 45.501323 74.653489 44.402415 73.843373 43.592299 
C 73.033257 42.782182 71.934349 42.327 70.788672 42.327 
C 69.642994 42.327 68.544087 42.782182 67.733971 43.592299 
C 66.923854 44.402415 66.468672 45.501323 66.468672 46.647 
C 66.468672 47.792677 66.923854 48.891585 67.733971 49.701701 
C 68.544087 50.511818 69.642994 50.967 70.788672 50.967 
L 70.788672 50.967 
z
" clip-path="url(#p0e30f1b668)" style="fill: none; stroke: #000000; stroke-width: 2; stroke-linejoin: miter"/>
   </g>
   <g id="patch_3">
    <path d="M 70.788672 104.967 
C 71.934349 104.967 73.033257 104.511818 73.843373 103.701701 
C 74.653489 102.891585 75.108672 101.792677 75.108672 100.647 
C 75.108672 99.501323 74.653489 98.402415 73.843373 97.592299 
C 73.033257 96.782182 71.934349 96.327 70.788672 96.327 
C 69.642994 96.327 68.544087 96.782182 67.733971 97.592299 
C 66.923854 98.402415 66.468672 99.501323 66.468672 100.647 
C 66.468672 101.792677 66.923854 102.891585 67.733971 103.701701 
C 68.544087 104.511818 69.642994 104.967 70.788672 104.967 
L 70.788672 104.967 
z
" clip-path="url(#p0e30f1b668)" style="fill: none; stroke: #000000; stroke-width: 2; stroke-linejoin: miter"/>
   </g>
   <g id="patch_4">
    <path d="M 70.788672 158.967 
C 71.934349 158.967 73.033257 158.511818 73.843373 157.701701 
C 74.653489 156.891585 75.108672 155.792677 75.108672 154.647 
C 75.108672 153.501323 74.653489 152.402415 73.843373 151.592299 
C 73.033257 150.782182 71.934349 150.327 70.788672 150.327 
C 69.642994 150.327 68.544087 150.782182 67.733971 151.592299 
C 66.923854 152.402415 66.468672 153.501323 66.468672 154.647 
C 66.468672 155.792677 66.923854 156.891585 67.733971 157.701701 
C 68.544087 158.511818 69.642994 158.967 70.788672 158.967 
L 70.788672 158.967 
z
" clip-path="url(#p0e30f1b668)" style="fill: none; stroke: #000000; stroke-width: 2; stroke-linejoin: miter"/>
   </g>
   <g id="patch_5">
    <path d="M 70.788672 212.967 
C 71.934349 212.967 73.033257 212.511818 73.843373 211.701701 
C 74.653489 210.891585 75.108672 209.792677 75.108672 208.647 
C 75.108672 207.501323 74.653489 206.402415 73.843373 205.592299 
C 73.033257 204.782182 71.934349 204.327 70.788672 204.327 
C 69.642994 204.327 68.544087 204.782182 67.733971 205.592299 
C 66.923854 206.402415 66.468672 207.501323 66.468672 208.647 
C 66.468672 209.792677 66.923854 210.891585 67.733971 211.701701 
C 68.544087 212.511818 69.642994 212.967 70.788672 212.967 
L 70.788672 212.967 
z
" clip-path="url(#p0e30f1b668)" style="fill: none; stroke: #000000; stroke-width: 2; stroke-linejoin: miter"/>
   </g>
   <g id="patch_6">
    <path d="M 70.788672 239.967 
C 71.934349 239.967 73.033257 239.511818 73.843373 238.701701 
C 74.653489 237.891585 75.108672 236.792677 75.108672 235.647 
C 75.108672 234.501323 74.653489 233.402415 73.843373 232.592299 
C 73.033257 231.782182 71.934349 231.327 70.788672 231.327 
C 69.642994 231.327 68.544087 231.782182 67.733971 232.592299 
C 66.923854 233.402415 66.468672 234.501323 66.468672 235.647 
C 66.468672 236.792677 66.923854 237.891585 67.733971 238.701701 
C 68.544087 239.511818 69.642994 239.967 70.788672 239.967 
L 70.788672 239.967 
z
" clip-path="url(#p0e30f1b668)" style="fill: none; stroke: #000000; stroke-width: 2; stroke-linejoin: miter"/>
   </g>
   <g id="line2d_1">
    <path d="M 208.488672 138.897 
L 209.641936 138.860017 
L 210.790461 138.74922 
L 211.929527 138.565065 
L 213.054454 138.308308 
L 214.16062 137.980003 
L 215.243478 137.581502 
L 216.298579 137.11444 
L 217.321588 136.580737 
L 218.3083 135.982586 
L 219.254661 135.322445 
L 220.156783 134.603027 
L 221.010958 133.827288 
L 221.813676 132.998416 
L 222.561639 132.119816 
L 223.251772 131.1951 
L 223.881242 130.228066 
L 224.447459 129.222689 
L 224.948099 128.1831 
L 225.381103 127.113571 
L 225.744693 126.018497 
L 226.037374 124.902377 
L 226.257944 123.769798 
L 226.405496 122.625414 
L 226.479424 121.473928 
L 226.479424 120.320072 
L 226.405496 119.168586 
L 226.257944 118.024202 
L 226.037374 116.891623 
L 225.744693 115.775503 
L 225.381103 114.680429 
L 224.948099 113.6109 
L 224.447459 112.571311 
L 223.881242 111.565934 
L 223.251772 110.5989 
L 222.561639 109.674184 
L 221.813676 108.795584 
L 221.010958 107.966712 
L 220.156783 107.190973 
L 219.254661 106.471555 
L 218.3083 105.811414 
L 217.321588 105.213263 
L 216.298579 104.67956 
L 215.243478 104.212498 
L 214.16062 103.813997 
L 213.054454 103.485692 
L 211.929527 103.228935 
L 210.790461 103.04478 
L 209.641936 102.933983 
L 208.488672 102.897 
L 208.488672 102.897 
L 185.088672 102.897 
L 185.088672 120.897 
L 185.088672 138.897 
L 208.488672 138.897 
" clip-path="url(#p0e30f1b668)" style="fill: none; stroke: #000000; stroke-width: 2; stroke-linecap: round"/>
   </g>
   <g id="line2d_2">
    <path d="M 172.488672 142.497 
L 185.088672 142.497 
" clip-path="url(#p0e30f1b668)" style="fill: none; stroke: #000000; stroke-width: 2; stroke-linecap: round"/>
   </g>
   <g id="line2d_3">
    <path d="M 172.488672 128.097 
L 185.088672 128.097 
" clip-path="url(#p0e30f1b668)" style="fill: none; stroke: #000000; stroke-width: 2; stroke-linecap: round"/>
   </g>
   <g id="line2d_4">
    <path d="M 172.488672 113.697 
L 185.088672 113.697 
" clip-path="url(#p0e30f1b668)" style="fill: none; stroke: #000000; stroke-width: 2; stroke-linecap: round"/>
   </g>
   <g id="line2d_5">
    <path d="M 172.488672 99.297 
L 185.088672 99.297 
" clip-path="url(#p0e30f1b668)" style="fill: none; stroke: #000000; stroke-width: 2; stroke-linecap: round"/>
   </g>
   <g id="line2d_6">
    <path d="M 185.088672 92.097 
L 185.088672 149.697 
" clip-path="url(#p0e30f1b668)" style="fill: none; stroke: #000000; stroke-width: 2; stroke-linecap: round"/>
   </g>
   <g id="line2d_7">
    <path d="M 226.488672 120.897 
L 239.088672 120.897 
" clip-path="url(#p0e30f1b668)" style="fill: none; stroke: #000000; stroke-width: 2; stroke-linecap: round"/>
   </g>
   <g id="line2d_8">
    <path d="M 111.288672 50.787 
L 130.831529 50.720878 
L 132.888672 50.427 
L 134.945815 49.89802 
L 137.002958 49.133939 
L 139.0601 48.134755 
L 141.117243 46.900469 
L 143.174386 45.431082 
L 145.231529 43.726592 
L 147.802958 41.265367 
L 150.374386 38.436796 
L 152.945815 35.240878 
L 154.488672 33.147 
L 154.488672 33.147 
L 151.917243 29.730673 
L 149.345815 26.681694 
L 146.774386 24.000061 
L 144.202958 21.685776 
L 142.145815 20.098837 
L 140.088672 18.747 
L 138.031529 17.630265 
L 135.974386 16.748633 
L 133.917243 16.102102 
L 131.8601 15.690673 
L 129.802958 15.514347 
L 129.288672 15.507 
L 111.288672 15.507 
L 111.288672 15.507 
L 113.275872 17.667 
L 115.003872 19.827 
L 116.472672 21.987 
L 117.682272 24.147 
L 118.632672 26.307 
L 119.323872 28.467 
L 119.755872 30.627 
L 119.928672 32.787 
L 119.842272 34.947 
L 119.496672 37.107 
L 118.891872 39.267 
L 118.027872 41.427 
L 116.904672 43.587 
L 115.522272 45.747 
L 113.880672 47.907 
L 111.979872 50.067 
L 111.288672 50.787 
L 111.288672 50.787 
" clip-path="url(#p0e30f1b668)" style="fill: none; stroke: #000000; stroke-width: 2; stroke-linecap: round"/>
   </g>
   <g id="line2d_9">
    <path d="M 98.688672 42.147 
L 117.682272 42.147 
" clip-path="url(#p0e30f1b668)" style="fill: none; stroke: #000000; stroke-width: 2; stroke-linecap: round"/>
   </g>
   <g id="line2d_10">
    <path d="M 98.688672 24.147 
L 117.682272 24.147 
" clip-path="url(#p0e30f1b668)" style="fill: none; stroke: #000000; stroke-width: 2; stroke-linecap: round"/>
   </g>
   <g id="line2d_11">
    <path d="M 154.488672 33.147 
L 167.088672 33.147 
" clip-path="url(#p0e30f1b668)" style="fill: none; stroke: #000000; stroke-width: 2; stroke-linecap: round"/>
   </g>
   <g id="line2d_12">
    <path d="M 23.088672 46.647 
L 43.068672 46.647 
M 75.108672 46.647 
L 95.088672 46.647 
" clip-path="url(#p0e30f1b668)" style="fill: none; stroke: #000000; stroke-width: 2; stroke-linecap: round"/>
   </g>
   <g id="line2d_13">
    <path d="M 43.068672 28.647 
L 66.468672 46.647 
L 43.068672 64.647 
L 43.068672 28.647 
" clip-path="url(#p0e30f1b668)" style="fill: none; stroke: #000000; stroke-width: 2; stroke-linecap: round"/>
   </g>
   <g id="line2d_14">
    <path d="M 98.688672 42.147 
L 95.088672 42.147 
L 95.088672 46.647 
" clip-path="url(#p0e30f1b668)" style="fill: none; stroke: #000000; stroke-width: 2; stroke-linecap: round"/>
   </g>
   <g id="line2d_15">
    <path d="M 172.488672 99.297 
L 167.088672 99.297 
L 167.088672 33.147 
" clip-path="url(#p0e30f1b668)" style="fill: none; stroke: #000000; stroke-width: 2; stroke-linecap: round"/>
   </g>
   <g id="line2d_16">
    <path d="M 111.288672 104.787 
L 130.831529 104.720878 
L 132.888672 104.427 
L 134.945815 103.89802 
L 137.002958 103.133939 
L 139.0601 102.134755 
L 141.117243 100.900469 
L 143.174386 99.431082 
L 145.231529 97.726592 
L 147.802958 95.265367 
L 150.374386 92.436796 
L 152.945815 89.240878 
L 154.488672 87.147 
L 154.488672 87.147 
L 151.917243 83.730673 
L 149.345815 80.681694 
L 146.774386 78.000061 
L 144.202958 75.685776 
L 142.145815 74.098837 
L 140.088672 72.747 
L 138.031529 71.630265 
L 135.974386 70.748633 
L 133.917243 70.102102 
L 131.8601 69.690673 
L 129.802958 69.514347 
L 129.288672 69.507 
L 111.288672 69.507 
L 111.288672 69.507 
L 113.275872 71.667 
L 115.003872 73.827 
L 116.472672 75.987 
L 117.682272 78.147 
L 118.632672 80.307 
L 119.323872 82.467 
L 119.755872 84.627 
L 119.928672 86.787 
L 119.842272 88.947 
L 119.496672 91.107 
L 118.891872 93.267 
L 118.027872 95.427 
L 116.904672 97.587 
L 115.522272 99.747 
L 113.880672 101.907 
L 111.979872 104.067 
L 111.288672 104.787 
L 111.288672 104.787 
" clip-path="url(#p0e30f1b668)" style="fill: none; stroke: #000000; stroke-width: 2; stroke-linecap: round"/>
   </g>
   <g id="line2d_17">
    <path d="M 98.688672 96.147 
L 117.682272 96.147 
" clip-path="url(#p0e30f1b668)" style="fill: none; stroke: #000000; stroke-width: 2; stroke-linecap: round"/>
   </g>
   <g id="line2d_18">
    <path d="M 98.688672 78.147 
L 117.682272 78.147 
" clip-path="url(#p0e30f1b668)" style="fill: none; stroke: #000000; stroke-width: 2; stroke-linecap: round"/>
   </g>
   <g id="line2d_19">
    <path d="M 154.488672 87.147 
L 167.088672 87.147 
" clip-path="url(#p0e30f1b668)" style="fill: none; stroke: #000000; stroke-width: 2; stroke-linecap: round"/>
   </g>
   <g id="line2d_20">
    <path d="M 23.088672 100.647 
L 43.068672 100.647 
M 75.108672 100.647 
L 95.088672 100.647 
" clip-path="url(#p0e30f1b668)" style="fill: none; stroke: #000000; stroke-width: 2; stroke-linecap: round"/>
   </g>
   <g id="line2d_21">
    <path d="M 43.068672 82.647 
L 66.468672 100.647 
L 43.068672 118.647 
L 43.068672 82.647 
" clip-path="url(#p0e30f1b668)" style="fill: none; stroke: #000000; stroke-width: 2; stroke-linecap: round"/>
   </g>
   <g id="line2d_22">
    <path d="M 98.688672 96.147 
L 95.088672 96.147 
L 95.088672 100.647 
" clip-path="url(#p0e30f1b668)" style="fill: none; stroke: #000000; stroke-width: 2; stroke-linecap: round"/>
   </g>
   <g id="line2d_23">
    <path d="M 172.488672 113.697 
L 167.088672 113.697 
L 167.088672 87.147 
" clip-path="url(#p0e30f1b668)" style="fill: none; stroke: #000000; stroke-width: 2; stroke-linecap: round"/>
   </g>
   <g id="line2d_24">
    <path d="M 111.288672 158.787 
L 130.831529 158.720878 
L 132.888672 158.427 
L 134.945815 157.89802 
L 137.002958 157.133939 
L 139.0601 156.134755 
L 141.117243 154.900469 
L 143.174386 153.431082 
L 145.231529 151.726592 
L 147.802958 149.265367 
L 150.374386 146.436796 
L 152.945815 143.240878 
L 154.488672 141.147 
L 154.488672 141.147 
L 151.917243 137.730673 
L 149.345815 134.681694 
L 146.774386 132.000061 
L 144.202958 129.685776 
L 142.145815 128.098837 
L 140.088672 126.747 
L 138.031529 125.630265 
L 135.974386 124.748633 
L 133.917243 124.102102 
L 131.8601 123.690673 
L 129.802958 123.514347 
L 129.288672 123.507 
L 111.288672 123.507 
L 111.288672 123.507 
L 113.275872 125.667 
L 115.003872 127.827 
L 116.472672 129.987 
L 117.682272 132.147 
L 118.632672 134.307 
L 119.323872 136.467 
L 119.755872 138.627 
L 119.928672 140.787 
L 119.842272 142.947 
L 119.496672 145.107 
L 118.891872 147.267 
L 118.027872 149.427 
L 116.904672 151.587 
L 115.522272 153.747 
L 113.880672 155.907 
L 111.979872 158.067 
L 111.288672 158.787 
L 111.288672 158.787 
" clip-path="url(#p0e30f1b668)" style="fill: none; stroke: #000000; stroke-width: 2; stroke-linecap: round"/>
   </g>
   <g id="line2d_25">
    <path d="M 98.688672 150.147 
L 117.682272 150.147 
" clip-path="url(#p0e30f1b668)" style="fill: none; stroke: #000000; stroke-width: 2; stroke-linecap: round"/>
   </g>
   <g id="line2d_26">
    <path d="M 98.688672 132.147 
L 117.682272 132.147 
" clip-path="url(#p0e30f1b668)" style="fill: none; stroke: #000000; stroke-width: 2; stroke-linecap: round"/>
   </g>
   <g id="line2d_27">
    <path d="M 154.488672 141.147 
L 167.088672 141.147 
" clip-path="url(#p0e30f1b668)" style="fill: none; stroke: #000000; stroke-width: 2; stroke-linecap: round"/>
   </g>
   <g id="line2d_28">
    <path d="M 23.088672 154.647 
L 43.068672 154.647 
M 75.108672 154.647 
L 95.088672 154.647 
" clip-path="url(#p0e30f1b668)" style="fill: none; stroke: #000000; stroke-width: 2; stroke-linecap: round"/>
   </g>
   <g id="line2d_29">
    <path d="M 43.068672 136.647 
L 66.468672 154.647 
L 43.068672 172.647 
L 43.068672 136.647 
" clip-path="url(#p0e30f1b668)" style="fill: none; stroke: #000000; stroke-width: 2; stroke-linecap: round"/>
   </g>
   <g id="line2d_30">
    <path d="M 98.688672 150.147 
L 95.088672 150.147 
L 95.088672 154.647 
" clip-path="url(#p0e30f1b668)" style="fill: none; stroke: #000000; stroke-width: 2; stroke-linecap: round"/>
   </g>
   <g id="line2d_31">
    <path d="M 172.488672 128.097 
L 167.088672 128.097 
L 167.088672 141.147 
" clip-path="url(#p0e30f1b668)" style="fill: none; stroke: #000000; stroke-width: 2; stroke-linecap: round"/>
   </g>
   <g id="line2d_32">
    <path d="M 111.288672 226.287 
L 130.831529 226.220878 
L 132.888672 225.927 
L 134.945815 225.39802 
L 137.002958 224.633939 
L 139.0601 223.634755 
L 141.117243 222.400469 
L 143.174386 220.931082 
L 145.231529 219.226592 
L 147.802958 216.765367 
L 150.374386 213.936796 
L 152.945815 210.740878 
L 154.488672 208.647 
L 154.488672 208.647 
L 151.917243 205.230673 
L 149.345815 202.181694 
L 146.774386 199.500061 
L 144.202958 197.185776 
L 142.145815 195.598837 
L 140.088672 194.247 
L 138.031529 193.130265 
L 135.974386 192.248633 
L 133.917243 191.602102 
L 131.8601 191.190673 
L 129.802958 191.014347 
L 129.288672 191.007 
L 111.288672 191.007 
L 111.288672 191.007 
L 113.275872 193.167 
L 115.003872 195.327 
L 116.472672 197.487 
L 117.682272 199.647 
L 118.632672 201.807 
L 119.323872 203.967 
L 119.755872 206.127 
L 119.928672 208.287 
L 119.842272 210.447 
L 119.496672 212.607 
L 118.891872 214.767 
L 118.027872 216.927 
L 116.904672 219.087 
L 115.522272 221.247 
L 113.880672 223.407 
L 111.979872 225.567 
L 111.288672 226.287 
L 111.288672 226.287 
" clip-path="url(#p0e30f1b668)" style="fill: none; stroke: #000000; stroke-width: 2; stroke-linecap: round"/>
   </g>
   <g id="line2d_33">
    <path d="M 98.688672 220.527 
L 116.011872 220.527 
" clip-path="url(#p0e30f1b668)" style="fill: none; stroke: #000000; stroke-width: 2; stroke-linecap: round"/>
   </g>
   <g id="line2d_34">
    <path d="M 98.688672 208.647 
L 119.932272 208.647 
" clip-path="url(#p0e30f1b668)" style="fill: none; stroke: #000000; stroke-width: 2; stroke-linecap: round"/>
   </g>
   <g id="line2d_35">
    <path d="M 98.688672 196.767 
L 116.011872 196.767 
" clip-path="url(#p0e30f1b668)" style="fill: none; stroke: #000000; stroke-width: 2; stroke-linecap: round"/>
   </g>
   <g id="line2d_36">
    <path d="M 154.488672 208.647 
L 167.088672 208.647 
" clip-path="url(#p0e30f1b668)" style="fill: none; stroke: #000000; stroke-width: 2; stroke-linecap: round"/>
   </g>
   <g id="line2d_37">
    <path d="M 23.088672 208.647 
L 43.068672 208.647 
M 75.108672 208.647 
L 95.088672 208.647 
" clip-path="url(#p0e30f1b668)" style="fill: none; stroke: #000000; stroke-width: 2; stroke-linecap: round"/>
   </g>
   <g id="line2d_38">
    <path d="M 43.068672 190.647 
L 66.468672 208.647 
L 43.068672 226.647 
L 43.068672 190.647 
" clip-path="url(#p0e30f1b668)" style="fill: none; stroke: #000000; stroke-width: 2; stroke-linecap: round"/>
   </g>
   <g id="line2d_39">
    <path d="M 98.688672 208.647 
L 95.088672 208.647 
L 95.088672 208.647 
" clip-path="url(#p0e30f1b668)" style="fill: none; stroke: #000000; stroke-width: 2; stroke-linecap: round"/>
   </g>
   <g id="line2d_40">
    <path d="M 23.088672 235.647 
L 43.068672 235.647 
M 75.108672 235.647 
L 95.088672 235.647 
" clip-path="url(#p0e30f1b668)" style="fill: none; stroke: #000000; stroke-width: 2; stroke-linecap: round"/>
   </g>
   <g id="line2d_41">
    <path d="M 43.068672 217.647 
L 66.468672 235.647 
L 43.068672 253.647 
L 43.068672 217.647 
" clip-path="url(#p0e30f1b668)" style="fill: none; stroke: #000000; stroke-width: 2; stroke-linecap: round"/>
   </g>
   <g id="line2d_42">
    <path d="M 98.688672 220.527 
L 95.088672 220.527 
L 95.088672 235.647 
" clip-path="url(#p0e30f1b668)" style="fill: none; stroke: #000000; stroke-width: 2; stroke-linecap: round"/>
   </g>
   <g id="line2d_43">
    <path d="M 172.488672 142.497 
L 167.088672 142.497 
L 167.088672 208.647 
" clip-path="url(#p0e30f1b668)" style="fill: none; stroke: #000000; stroke-width: 2; stroke-linecap: round"/>
   </g>
   <g id="text_1">
    <!-- = -->
    <g transform="translate(242.688672 124.346219) scale(0.125 -0.125)">
     <defs>
      <path id="DejaVuSans-3d" d="M 678 2906 
L 4684 2906 
L 4684 2381 
L 678 2381 
L 678 2906 
z
M 678 1631 
L 4684 1631 
L 4684 1100 
L 678 1100 
L 678 1631 
z
" transform="scale(0.015625)"/>
     </defs>
     <use xlink:href="#DejaVuSans-3d"/>
    </g>
   </g>
   <g id="text_2">
    <!-- a0 -->
    <g transform="translate(79.475391 27.596219) scale(0.125 -0.125)">
     <defs>
      <path id="DejaVuSans-61" d="M 2194 1759 
Q 1497 1759 1228 1600 
Q 959 1441 959 1056 
Q 959 750 1161 570 
Q 1363 391 1709 391 
Q 2188 391 2477 730 
Q 2766 1069 2766 1631 
L 2766 1759 
L 2194 1759 
z
M 3341 1997 
L 3341 0 
L 2766 0 
L 2766 531 
Q 2569 213 2275 61 
Q 1981 -91 1556 -91 
Q 1019 -91 701 211 
Q 384 513 384 1019 
Q 384 1609 779 1909 
Q 1175 2209 1959 2209 
L 2766 2209 
L 2766 2266 
Q 2766 2663 2505 2880 
Q 2244 3097 1772 3097 
Q 1472 3097 1187 3025 
Q 903 2953 641 2809 
L 641 3341 
Q 956 3463 1253 3523 
Q 1550 3584 1831 3584 
Q 2591 3584 2966 3190 
Q 3341 2797 3341 1997 
z
" transform="scale(0.015625)"/>
      <path id="DejaVuSans-30" d="M 2034 4250 
Q 1547 4250 1301 3770 
Q 1056 3291 1056 2328 
Q 1056 1369 1301 889 
Q 1547 409 2034 409 
Q 2525 409 2770 889 
Q 3016 1369 3016 2328 
Q 3016 3291 2770 3770 
Q 2525 4250 2034 4250 
z
M 2034 4750 
Q 2819 4750 3233 4129 
Q 3647 3509 3647 2328 
Q 3647 1150 3233 529 
Q 2819 -91 2034 -91 
Q 1250 -91 836 529 
Q 422 1150 422 2328 
Q 422 3509 836 4129 
Q 1250 4750 2034 4750 
z
" transform="scale(0.015625)"/>
     </defs>
     <use xlink:href="#DejaVuSans-61"/>
     <use xlink:href="#DejaVuSans-30" x="61.279297"/>
    </g>
   </g>
   <g id="text_3">
    <!-- b0 -->
    <g transform="translate(3.6 50.096219) scale(0.125 -0.125)">
     <defs>
      <path id="DejaVuSans-62" d="M 3116 1747 
Q 3116 2381 2855 2742 
Q 2594 3103 2138 3103 
Q 1681 3103 1420 2742 
Q 1159 2381 1159 1747 
Q 1159 1113 1420 752 
Q 1681 391 2138 391 
Q 2594 391 2855 752 
Q 3116 1113 3116 1747 
z
M 1159 2969 
Q 1341 3281 1617 3432 
Q 1894 3584 2278 3584 
Q 2916 3584 3314 3078 
Q 3713 2572 3713 1747 
Q 3713 922 3314 415 
Q 2916 -91 2278 -91 
Q 1894 -91 1617 61 
Q 1341 213 1159 525 
L 1159 0 
L 581 0 
L 581 4863 
L 1159 4863 
L 1159 2969 
z
" transform="scale(0.015625)"/>
     </defs>
     <use xlink:href="#DejaVuSans-62"/>
     <use xlink:href="#DejaVuSans-30" x="63.476562"/>
    </g>
   </g>
   <g id="text_4">
    <!-- a1 -->
    <g transform="translate(79.475391 81.596219) scale(0.125 -0.125)">
     <defs>
      <path id="DejaVuSans-31" d="M 794 531 
L 1825 531 
L 1825 4091 
L 703 3866 
L 703 4441 
L 1819 4666 
L 2450 4666 
L 2450 531 
L 3481 531 
L 3481 0 
L 794 0 
L 794 531 
z
" transform="scale(0.015625)"/>
     </defs>
     <use xlink:href="#DejaVuSans-61"/>
     <use xlink:href="#DejaVuSans-31" x="61.279297"/>
    </g>
   </g>
   <g id="text_5">
    <!-- b1 -->
    <g transform="translate(3.6 104.096219) scale(0.125 -0.125)">
     <use xlink:href="#DejaVuSans-62"/>
     <use xlink:href="#DejaVuSans-31" x="63.476562"/>
    </g>
   </g>
   <g id="text_6">
    <!-- b1 -->
    <g transform="translate(79.2 135.596219) scale(0.125 -0.125)">
     <use xlink:href="#DejaVuSans-62"/>
     <use xlink:href="#DejaVuSans-31" x="63.476562"/>
    </g>
   </g>
   <g id="text_7">
    <!-- a1 -->
    <g transform="translate(3.875391 158.096219) scale(0.125 -0.125)">
     <use xlink:href="#DejaVuSans-61"/>
     <use xlink:href="#DejaVuSans-31" x="61.279297"/>
    </g>
   </g>
   <g id="text_8">
    <!-- b0 -->
    <g transform="translate(79.2 200.216219) scale(0.125 -0.125)">
     <use xlink:href="#DejaVuSans-62"/>
     <use xlink:href="#DejaVuSans-30" x="63.476562"/>
    </g>
   </g>
   <g id="text_9">
    <!-- a0 -->
    <g transform="translate(3.875391 212.096219) scale(0.125 -0.125)">
     <use xlink:href="#DejaVuSans-61"/>
     <use xlink:href="#DejaVuSans-30" x="61.279297"/>
    </g>
   </g>
   <g id="text_10">
    <!-- b1 -->
    <g transform="translate(3.6 239.096219) scale(0.125 -0.125)">
     <use xlink:href="#DejaVuSans-62"/>
     <use xlink:href="#DejaVuSans-31" x="63.476562"/>
    </g>
   </g>
  </g>
 </g>
 <defs>
  <clipPath id="p0e30f1b668">
   <rect x="12.288672" y="3.6" width="237.6" height="261.954"/>
  </clipPath>
 </defs>
</svg>
