<?xml version="1.0" encoding="utf-8" standalone="no"?>
<!DOCTYPE svg PUBLIC "-//W3C//DTD SVG 1.1//EN"
  "http://www.w3.org/Graphics/SVG/1.1/DTD/svg11.dtd">
<svg xmlns:xlink="http://www.w3.org/1999/xlink" width="256.763281pt" height="298.854pt" viewBox="0 0 256.763281 298.854" xmlns="http://www.w3.org/2000/svg" version="1.1">
 <metadata>
  <rdf:RDF xmlns:dc="http://purl.org/dc/elements/1.1/" xmlns:cc="http://creativecommons.org/ns#" xmlns:rdf="http://www.w3.org/1999/02/22-rdf-syntax-ns#">
   <cc:Work>
    <dc:type rdf:resource="http://purl.org/dc/dcmitype/StillImage"/>
    <dc:date>2024-04-09T21:48:09.007947</dc:date>
    <dc:format>image/svg+xml</dc:format>
    <dc:creator>
     <cc:Agent>
      <dc:title>Matplotlib v3.8.2, https://matplotlib.org/</dc:title>
     </cc:Agent>
    </dc:creator>
   </cc:Work>
  </rdf:RDF>
 </metadata>
 <defs>
  <style type="text/css">*{stroke-linejoin: round; stroke-linecap: butt}</style>
 </defs>
 <g id="figure_1">
  <g id="patch_1">
   <path d="M 0 298.854 
L 256.763281 298.854 
L 256.763281 0 
L 0 0 
z
" style="fill: #ffffff"/>
  </g>
  <g id="axes_1">
   <g id="patch_2">
    <path d="M 70.788672 106.317 
C 71.934349 106.317 73.033257 105.861818 73.843373 105.051701 
C 74.653489 104.241585 75.108672 103.142677 75.108672 101.997 
C 75.108672 100.851323 74.653489 99.752415 73.843373 98.942299 
C 73.033257 98.132182 71.934349 97.677 70.788672 97.677 
C 69.642994 97.677 68.544087 98.132182 67.733971 98.942299 
C 66.923854 99.752415 66.468672 100.851323 66.468672 101.997 
C 66.468672 103.142677 66.923854 104.241585 67.733971 105.051701 
C 68.544087 105.861818 69.642994 106.317 70.788672 106.317 
L 70.788672 106.317 
z
" clip-path="url(#p9657669988)" style="fill: none; stroke: #000000; stroke-width: 2; stroke-linejoin: miter"/>
   </g>
   <g id="patch_3">
    <path d="M 70.788672 160.317 
C 71.934349 160.317 73.033257 159.861818 73.843373 159.051701 
C 74.653489 158.241585 75.108672 157.142677 75.108672 155.997 
C 75.108672 154.851323 74.653489 153.752415 73.843373 152.942299 
C 73.033257 152.132182 71.934349 151.677 70.788672 151.677 
C 69.642994 151.677 68.544087 152.132182 67.733971 152.942299 
C 66.923854 153.752415 66.468672 154.851323 66.468672 155.997 
C 66.468672 157.142677 66.923854 158.241585 67.733971 159.051701 
C 68.544087 159.861818 69.642994 160.317 70.788672 160.317 
L 70.788672 160.317 
z
" clip-path="url(#p9657669988)" style="fill: none; stroke: #000000; stroke-width: 2; stroke-linejoin: miter"/>
   </g>
   <g id="patch_4">
    <path d="M 70.788672 214.317 
C 71.934349 214.317 73.033257 213.861818 73.843373 213.051701 
C 74.653489 212.241585 75.108672 211.142677 75.108672 209.997 
C 75.108672 208.851323 74.653489 207.752415 73.843373 206.942299 
C 73.033257 206.132182 71.934349 205.677 70.788672 205.677 
C 69.642994 205.677 68.544087 206.132182 67.733971 206.942299 
C 66.923854 207.752415 66.468672 208.851323 66.468672 209.997 
C 66.468672 211.142677 66.923854 212.241585 67.733971 213.051701 
C 68.544087 213.861818 69.642994 214.317 70.788672 214.317 
L 70.788672 214.317 
z
" clip-path="url(#p9657669988)" style="fill: none; stroke: #000000; stroke-width: 2; stroke-linejoin: miter"/>
   </g>
   <g id="patch_5">
    <path d="M 70.788672 241.317 
C 71.934349 241.317 73.033257 240.861818 73.843373 240.051701 
C 74.653489 239.241585 75.108672 238.142677 75.108672 236.997 
C 75.108672 235.851323 74.653489 234.752415 73.843373 233.942299 
C 73.033257 233.132182 71.934349 232.677 70.788672 232.677 
C 69.642994 232.677 68.544087 233.132182 67.733971 233.942299 
C 66.923854 234.752415 66.468672 235.851323 66.468672 236.997 
C 66.468672 238.142677 66.923854 239.241585 67.733971 240.051701 
C 68.544087 240.861818 69.642994 241.317 70.788672 241.317 
L 70.788672 241.317 
z
" clip-path="url(#p9657669988)" style="fill: none; stroke: #000000; stroke-width: 2; stroke-linejoin: miter"/>
   </g>
   <g id="patch_6">
    <path d="M 70.788672 268.317 
C 71.934349 268.317 73.033257 267.861818 73.843373 267.051701 
C 74.653489 266.241585 75.108672 265.142677 75.108672 263.997 
C 75.108672 262.851323 74.653489 261.752415 73.843373 260.942299 
C 73.033257 260.132182 71.934349 259.677 70.788672 259.677 
C 69.642994 259.677 68.544087 260.132182 67.733971 260.942299 
C 66.923854 261.752415 66.468672 262.851323 66.468672 263.997 
C 66.468672 265.142677 66.923854 266.241585 67.733971 267.051701 
C 68.544087 267.861818 69.642994 268.317 70.788672 268.317 
L 70.788672 268.317 
z
" clip-path="url(#p9657669988)" style="fill: none; stroke: #000000; stroke-width: 2; stroke-linejoin: miter"/>
   </g>
   <g id="line2d_1">
    <path d="M 208.488672 160.497 
L 209.641936 160.460017 
L 210.790461 160.34922 
L 211.929527 160.165065 
L 213.054454 159.908308 
L 214.16062 159.580003 
L 215.243478 159.181502 
L 216.298579 158.71444 
L 217.321588 158.180737 
L 218.3083 157.582586 
L 219.254661 156.922445 
L 220.156783 156.203027 
L 221.010958 155.427288 
L 221.813676 154.598416 
L 222.561639 153.719816 
L 223.251772 152.7951 
L 223.881242 151.828066 
L 224.447459 150.822689 
L 224.948099 149.7831 
L 225.381103 148.713571 
L 225.744693 147.618497 
L 226.037374 146.502377 
L 226.257944 145.369798 
L 226.405496 144.225414 
L 226.479424 143.073928 
L 226.479424 141.920072 
L 226.405496 140.768586 
L 226.257944 139.624202 
L 226.037374 138.491623 
L 225.744693 137.375503 
L 225.381103 136.280429 
L 224.948099 135.2109 
L 224.447459 134.171311 
L 223.881242 133.165934 
L 223.251772 132.1989 
L 222.561639 131.274184 
L 221.813676 130.395584 
L 221.010958 129.566712 
L 220.156783 128.790973 
L 219.254661 128.071555 
L 218.3083 127.411414 
L 217.321588 126.813263 
L 216.298579 126.27956 
L 215.243478 125.812498 
L 214.16062 125.413997 
L 213.054454 125.085692 
L 211.929527 124.828935 
L 210.790461 124.64478 
L 209.641936 124.533983 
L 208.488672 124.497 
L 208.488672 124.497 
L 185.088672 124.497 
L 185.088672 142.497 
L 185.088672 160.497 
L 208.488672 160.497 
" clip-path="url(#p9657669988)" style="fill: none; stroke: #000000; stroke-width: 2; stroke-linecap: round"/>
   </g>
   <g id="line2d_2">
    <path d="M 172.488672 171.297 
L 185.088672 171.297 
" clip-path="url(#p9657669988)" style="fill: none; stroke: #000000; stroke-width: 2; stroke-linecap: round"/>
   </g>
   <g id="line2d_3">
    <path d="M 172.488672 156.897 
L 185.088672 156.897 
" clip-path="url(#p9657669988)" style="fill: none; stroke: #000000; stroke-width: 2; stroke-linecap: round"/>
   </g>
   <g id="line2d_4">
    <path d="M 172.488672 142.497 
L 185.088672 142.497 
" clip-path="url(#p9657669988)" style="fill: none; stroke: #000000; stroke-width: 2; stroke-linecap: round"/>
   </g>
   <g id="line2d_5">
    <path d="M 172.488672 128.097 
L 185.088672 128.097 
" clip-path="url(#p9657669988)" style="fill: none; stroke: #000000; stroke-width: 2; stroke-linecap: round"/>
   </g>
   <g id="line2d_6">
    <path d="M 172.488672 113.697 
L 185.088672 113.697 
" clip-path="url(#p9657669988)" style="fill: none; stroke: #000000; stroke-width: 2; stroke-linecap: round"/>
   </g>
   <g id="line2d_7">
    <path d="M 185.088672 106.497 
L 185.088672 178.497 
" clip-path="url(#p9657669988)" style="fill: none; stroke: #000000; stroke-width: 2; stroke-linecap: round"/>
   </g>
   <g id="line2d_8">
    <path d="M 226.488672 142.497 
L 239.088672 142.497 
" clip-path="url(#p9657669988)" style="fill: none; stroke: #000000; stroke-width: 2; stroke-linecap: round"/>
   </g>
   <g id="line2d_9">
    <path d="M 111.288672 52.137 
L 130.831529 52.070878 
L 132.888672 51.777 
L 134.945815 51.24802 
L 137.002958 50.483939 
L 139.0601 49.484755 
L 141.117243 48.250469 
L 143.174386 46.781082 
L 145.231529 45.076592 
L 147.802958 42.615367 
L 150.374386 39.786796 
L 152.945815 36.590878 
L 154.488672 34.497 
L 154.488672 34.497 
L 151.917243 31.080673 
L 149.345815 28.031694 
L 146.774386 25.350061 
L 144.202958 23.035776 
L 142.145815 21.448837 
L 140.088672 20.097 
L 138.031529 18.980265 
L 135.974386 18.098633 
L 133.917243 17.452102 
L 131.8601 17.040673 
L 129.802958 16.864347 
L 129.288672 16.857 
L 111.288672 16.857 
L 111.288672 16.857 
L 113.275872 19.017 
L 115.003872 21.177 
L 116.472672 23.337 
L 117.682272 25.497 
L 118.632672 27.657 
L 119.323872 29.817 
L 119.755872 31.977 
L 119.928672 34.137 
L 119.842272 36.297 
L 119.496672 38.457 
L 118.891872 40.617 
L 118.027872 42.777 
L 116.904672 44.937 
L 115.522272 47.097 
L 113.880672 49.257 
L 111.979872 51.417 
L 111.288672 52.137 
L 111.288672 52.137 
" clip-path="url(#p9657669988)" style="fill: none; stroke: #000000; stroke-width: 2; stroke-linecap: round"/>
   </g>
   <g id="line2d_10">
    <path d="M 98.688672 43.497 
L 117.682272 43.497 
" clip-path="url(#p9657669988)" style="fill: none; stroke: #000000; stroke-width: 2; stroke-linecap: round"/>
   </g>
   <g id="line2d_11">
    <path d="M 98.688672 25.497 
L 117.682272 25.497 
" clip-path="url(#p9657669988)" style="fill: none; stroke: #000000; stroke-width: 2; stroke-linecap: round"/>
   </g>
   <g id="line2d_12">
    <path d="M 154.488672 34.497 
L 167.088672 34.497 
" clip-path="url(#p9657669988)" style="fill: none; stroke: #000000; stroke-width: 2; stroke-linecap: round"/>
   </g>
   <g id="line2d_13">
    <path d="M 172.488672 113.697 
L 167.088672 113.697 
L 167.088672 34.497 
" clip-path="url(#p9657669988)" style="fill: none; stroke: #000000; stroke-width: 2; stroke-linecap: round"/>
   </g>
   <g id="line2d_14">
    <path d="M 111.288672 106.137 
L 130.831529 106.070878 
L 132.888672 105.777 
L 134.945815 105.24802 
L 137.002958 104.483939 
L 139.0601 103.484755 
L 141.117243 102.250469 
L 143.174386 100.781082 
L 145.231529 99.076592 
L 147.802958 96.615367 
L 150.374386 93.786796 
L 152.945815 90.590878 
L 154.488672 88.497 
L 154.488672 88.497 
L 151.917243 85.080673 
L 149.345815 82.031694 
L 146.774386 79.350061 
L 144.202958 77.035776 
L 142.145815 75.448837 
L 140.088672 74.097 
L 138.031529 72.980265 
L 135.974386 72.098633 
L 133.917243 71.452102 
L 131.8601 71.040673 
L 129.802958 70.864347 
L 129.288672 70.857 
L 111.288672 70.857 
L 111.288672 70.857 
L 113.275872 73.017 
L 115.003872 75.177 
L 116.472672 77.337 
L 117.682272 79.497 
L 118.632672 81.657 
L 119.323872 83.817 
L 119.755872 85.977 
L 119.928672 88.137 
L 119.842272 90.297 
L 119.496672 92.457 
L 118.891872 94.617 
L 118.027872 96.777 
L 116.904672 98.937 
L 115.522272 101.097 
L 113.880672 103.257 
L 111.979872 105.417 
L 111.288672 106.137 
L 111.288672 106.137 
" clip-path="url(#p9657669988)" style="fill: none; stroke: #000000; stroke-width: 2; stroke-linecap: round"/>
   </g>
   <g id="line2d_15">
    <path d="M 98.688672 97.497 
L 117.682272 97.497 
" clip-path="url(#p9657669988)" style="fill: none; stroke: #000000; stroke-width: 2; stroke-linecap: round"/>
   </g>
   <g id="line2d_16">
    <path d="M 98.688672 79.497 
L 117.682272 79.497 
" clip-path="url(#p9657669988)" style="fill: none; stroke: #000000; stroke-width: 2; stroke-linecap: round"/>
   </g>
   <g id="line2d_17">
    <path d="M 154.488672 88.497 
L 167.088672 88.497 
" clip-path="url(#p9657669988)" style="fill: none; stroke: #000000; stroke-width: 2; stroke-linecap: round"/>
   </g>
   <g id="line2d_18">
    <path d="M 23.088672 101.997 
L 43.068672 101.997 
M 75.108672 101.997 
L 95.088672 101.997 
" clip-path="url(#p9657669988)" style="fill: none; stroke: #000000; stroke-width: 2; stroke-linecap: round"/>
   </g>
   <g id="line2d_19">
    <path d="M 43.068672 83.997 
L 66.468672 101.997 
L 43.068672 119.997 
L 43.068672 83.997 
" clip-path="url(#p9657669988)" style="fill: none; stroke: #000000; stroke-width: 2; stroke-linecap: round"/>
   </g>
   <g id="line2d_20">
    <path d="M 98.688672 97.497 
L 95.088672 97.497 
L 95.088672 101.997 
" clip-path="url(#p9657669988)" style="fill: none; stroke: #000000; stroke-width: 2; stroke-linecap: round"/>
   </g>
   <g id="line2d_21">
    <path d="M 172.488672 128.097 
L 167.088672 128.097 
L 167.088672 88.497 
" clip-path="url(#p9657669988)" style="fill: none; stroke: #000000; stroke-width: 2; stroke-linecap: round"/>
   </g>
   <g id="line2d_22">
    <path d="M 111.288672 160.137 
L 130.831529 160.070878 
L 132.888672 159.777 
L 134.945815 159.24802 
L 137.002958 158.483939 
L 139.0601 157.484755 
L 141.117243 156.250469 
L 143.174386 154.781082 
L 145.231529 153.076592 
L 147.802958 150.615367 
L 150.374386 147.786796 
L 152.945815 144.590878 
L 154.488672 142.497 
L 154.488672 142.497 
L 151.917243 139.080673 
L 149.345815 136.031694 
L 146.774386 133.350061 
L 144.202958 131.035776 
L 142.145815 129.448837 
L 140.088672 128.097 
L 138.031529 126.980265 
L 135.974386 126.098633 
L 133.917243 125.452102 
L 131.8601 125.040673 
L 129.802958 124.864347 
L 129.288672 124.857 
L 111.288672 124.857 
L 111.288672 124.857 
L 113.275872 127.017 
L 115.003872 129.177 
L 116.472672 131.337 
L 117.682272 133.497 
L 118.632672 135.657 
L 119.323872 137.817 
L 119.755872 139.977 
L 119.928672 142.137 
L 119.842272 144.297 
L 119.496672 146.457 
L 118.891872 148.617 
L 118.027872 150.777 
L 116.904672 152.937 
L 115.522272 155.097 
L 113.880672 157.257 
L 111.979872 159.417 
L 111.288672 160.137 
L 111.288672 160.137 
" clip-path="url(#p9657669988)" style="fill: none; stroke: #000000; stroke-width: 2; stroke-linecap: round"/>
   </g>
   <g id="line2d_23">
    <path d="M 98.688672 151.497 
L 117.682272 151.497 
" clip-path="url(#p9657669988)" style="fill: none; stroke: #000000; stroke-width: 2; stroke-linecap: round"/>
   </g>
   <g id="line2d_24">
    <path d="M 98.688672 133.497 
L 117.682272 133.497 
" clip-path="url(#p9657669988)" style="fill: none; stroke: #000000; stroke-width: 2; stroke-linecap: round"/>
   </g>
   <g id="line2d_25">
    <path d="M 154.488672 142.497 
L 167.088672 142.497 
" clip-path="url(#p9657669988)" style="fill: none; stroke: #000000; stroke-width: 2; stroke-linecap: round"/>
   </g>
   <g id="line2d_26">
    <path d="M 23.088672 155.997 
L 43.068672 155.997 
M 75.108672 155.997 
L 95.088672 155.997 
" clip-path="url(#p9657669988)" style="fill: none; stroke: #000000; stroke-width: 2; stroke-linecap: round"/>
   </g>
   <g id="line2d_27">
    <path d="M 43.068672 137.997 
L 66.468672 155.997 
L 43.068672 173.997 
L 43.068672 137.997 
" clip-path="url(#p9657669988)" style="fill: none; stroke: #000000; stroke-width: 2; stroke-linecap: round"/>
   </g>
   <g id="line2d_28">
    <path d="M 98.688672 151.497 
L 95.088672 151.497 
L 95.088672 155.997 
" clip-path="url(#p9657669988)" style="fill: none; stroke: #000000; stroke-width: 2; stroke-linecap: round"/>
   </g>
   <g id="line2d_29">
    <path d="M 172.488672 142.497 
L 167.088672 142.497 
L 167.088672 142.497 
" clip-path="url(#p9657669988)" style="fill: none; stroke: #000000; stroke-width: 2; stroke-linecap: round"/>
   </g>
   <g id="line2d_30">
    <path d="M 111.288672 214.137 
L 130.831529 214.070878 
L 132.888672 213.777 
L 134.945815 213.24802 
L 137.002958 212.483939 
L 139.0601 211.484755 
L 141.117243 210.250469 
L 143.174386 208.781082 
L 145.231529 207.076592 
L 147.802958 204.615367 
L 150.374386 201.786796 
L 152.945815 198.590878 
L 154.488672 196.497 
L 154.488672 196.497 
L 151.917243 193.080673 
L 149.345815 190.031694 
L 146.774386 187.350061 
L 144.202958 185.035776 
L 142.145815 183.448837 
L 140.088672 182.097 
L 138.031529 180.980265 
L 135.974386 180.098633 
L 133.917243 179.452102 
L 131.8601 179.040673 
L 129.802958 178.864347 
L 129.288672 178.857 
L 111.288672 178.857 
L 111.288672 178.857 
L 113.275872 181.017 
L 115.003872 183.177 
L 116.472672 185.337 
L 117.682272 187.497 
L 118.632672 189.657 
L 119.323872 191.817 
L 119.755872 193.977 
L 119.928672 196.137 
L 119.842272 198.297 
L 119.496672 200.457 
L 118.891872 202.617 
L 118.027872 204.777 
L 116.904672 206.937 
L 115.522272 209.097 
L 113.880672 211.257 
L 111.979872 213.417 
L 111.288672 214.137 
L 111.288672 214.137 
" clip-path="url(#p9657669988)" style="fill: none; stroke: #000000; stroke-width: 2; stroke-linecap: round"/>
   </g>
   <g id="line2d_31">
    <path d="M 98.688672 205.497 
L 117.682272 205.497 
" clip-path="url(#p9657669988)" style="fill: none; stroke: #000000; stroke-width: 2; stroke-linecap: round"/>
   </g>
   <g id="line2d_32">
    <path d="M 98.688672 187.497 
L 117.682272 187.497 
" clip-path="url(#p9657669988)" style="fill: none; stroke: #000000; stroke-width: 2; stroke-linecap: round"/>
   </g>
   <g id="line2d_33">
    <path d="M 154.488672 196.497 
L 167.088672 196.497 
" clip-path="url(#p9657669988)" style="fill: none; stroke: #000000; stroke-width: 2; stroke-linecap: round"/>
   </g>
   <g id="line2d_34">
    <path d="M 23.088672 209.997 
L 43.068672 209.997 
M 75.108672 209.997 
L 95.088672 209.997 
" clip-path="url(#p9657669988)" style="fill: none; stroke: #000000; stroke-width: 2; stroke-linecap: round"/>
   </g>
   <g id="line2d_35">
    <path d="M 43.068672 191.997 
L 66.468672 209.997 
L 43.068672 227.997 
L 43.068672 191.997 
" clip-path="url(#p9657669988)" style="fill: none; stroke: #000000; stroke-width: 2; stroke-linecap: round"/>
   </g>
   <g id="line2d_36">
    <path d="M 98.688672 205.497 
L 95.088672 205.497 
L 95.088672 209.997 
" clip-path="url(#p9657669988)" style="fill: none; stroke: #000000; stroke-width: 2; stroke-linecap: round"/>
   </g>
   <g id="line2d_37">
    <path d="M 172.488672 156.897 
L 167.088672 156.897 
L 167.088672 196.497 
" clip-path="url(#p9657669988)" style="fill: none; stroke: #000000; stroke-width: 2; stroke-linecap: round"/>
   </g>
   <g id="line2d_38">
    <path d="M 111.288672 268.137 
L 130.831529 268.070878 
L 132.888672 267.777 
L 134.945815 267.24802 
L 137.002958 266.483939 
L 139.0601 265.484755 
L 141.117243 264.250469 
L 143.174386 262.781082 
L 145.231529 261.076592 
L 147.802958 258.615367 
L 150.374386 255.786796 
L 152.945815 252.590878 
L 154.488672 250.497 
L 154.488672 250.497 
L 151.917243 247.080673 
L 149.345815 244.031694 
L 146.774386 241.350061 
L 144.202958 239.035776 
L 142.145815 237.448837 
L 140.088672 236.097 
L 138.031529 234.980265 
L 135.974386 234.098633 
L 133.917243 233.452102 
L 131.8601 233.040673 
L 129.802958 232.864347 
L 129.288672 232.857 
L 111.288672 232.857 
L 111.288672 232.857 
L 113.275872 235.017 
L 115.003872 237.177 
L 116.472672 239.337 
L 117.682272 241.497 
L 118.632672 243.657 
L 119.323872 245.817 
L 119.755872 247.977 
L 119.928672 250.137 
L 119.842272 252.297 
L 119.496672 254.457 
L 118.891872 256.617 
L 118.027872 258.777 
L 116.904672 260.937 
L 115.522272 263.097 
L 113.880672 265.257 
L 111.979872 267.417 
L 111.288672 268.137 
L 111.288672 268.137 
" clip-path="url(#p9657669988)" style="fill: none; stroke: #000000; stroke-width: 2; stroke-linecap: round"/>
   </g>
   <g id="line2d_39">
    <path d="M 98.688672 259.497 
L 117.682272 259.497 
" clip-path="url(#p9657669988)" style="fill: none; stroke: #000000; stroke-width: 2; stroke-linecap: round"/>
   </g>
   <g id="line2d_40">
    <path d="M 98.688672 241.497 
L 117.682272 241.497 
" clip-path="url(#p9657669988)" style="fill: none; stroke: #000000; stroke-width: 2; stroke-linecap: round"/>
   </g>
   <g id="line2d_41">
    <path d="M 154.488672 250.497 
L 167.088672 250.497 
" clip-path="url(#p9657669988)" style="fill: none; stroke: #000000; stroke-width: 2; stroke-linecap: round"/>
   </g>
   <g id="line2d_42">
    <path d="M 23.088672 236.997 
L 43.068672 236.997 
M 75.108672 236.997 
L 95.088672 236.997 
" clip-path="url(#p9657669988)" style="fill: none; stroke: #000000; stroke-width: 2; stroke-linecap: round"/>
   </g>
   <g id="line2d_43">
    <path d="M 43.068672 218.997 
L 66.468672 236.997 
L 43.068672 254.997 
L 43.068672 218.997 
" clip-path="url(#p9657669988)" style="fill: none; stroke: #000000; stroke-width: 2; stroke-linecap: round"/>
   </g>
   <g id="line2d_44">
    <path d="M 98.688672 241.497 
L 95.088672 241.497 
L 95.088672 236.997 
" clip-path="url(#p9657669988)" style="fill: none; stroke: #000000; stroke-width: 2; stroke-linecap: round"/>
   </g>
   <g id="line2d_45">
    <path d="M 23.088672 263.997 
L 43.068672 263.997 
M 75.108672 263.997 
L 95.088672 263.997 
" clip-path="url(#p9657669988)" style="fill: none; stroke: #000000; stroke-width: 2; stroke-linecap: round"/>
   </g>
   <g id="line2d_46">
    <path d="M 43.068672 245.997 
L 66.468672 263.997 
L 43.068672 281.997 
L 43.068672 245.997 
" clip-path="url(#p9657669988)" style="fill: none; stroke: #000000; stroke-width: 2; stroke-linecap: round"/>
   </g>
   <g id="line2d_47">
    <path d="M 98.688672 259.497 
L 95.088672 259.497 
L 95.088672 263.997 
" clip-path="url(#p9657669988)" style="fill: none; stroke: #000000; stroke-width: 2; stroke-linecap: round"/>
   </g>
   <g id="line2d_48">
    <path d="M 172.488672 171.297 
L 167.088672 171.297 
L 167.088672 250.497 
" clip-path="url(#p9657669988)" style="fill: none; stroke: #000000; stroke-width: 2; stroke-linecap: round"/>
   </g>
   <g id="text_1">
    <!-- &gt; -->
    <g transform="translate(242.688672 145.946219) scale(0.125 -0.125)">
     <defs>
      <path id="DejaVuSans-3e" d="M 678 3150 
L 678 3719 
L 4684 2266 
L 4684 1747 
L 678 294 
L 678 863 
L 3897 2003 
L 678 3150 
z
" transform="scale(0.015625)"/>
     </defs>
     <use xlink:href="#DejaVuSans-3e"/>
    </g>
   </g>
   <g id="text_2">
    <!-- a0 -->
    <g transform="translate(79.475391 28.946219) scale(0.125 -0.125)">
     <defs>
      <path id="DejaVuSans-61" d="M 2194 1759 
Q 1497 1759 1228 1600 
Q 959 1441 959 1056 
Q 959 750 1161 570 
Q 1363 391 1709 391 
Q 2188 391 2477 730 
Q 2766 1069 2766 1631 
L 2766 1759 
L 2194 1759 
z
M 3341 1997 
L 3341 0 
L 2766 0 
L 2766 531 
Q 2569 213 2275 61 
Q 1981 -91 1556 -91 
Q 1019 -91 701 211 
Q 384 513 384 1019 
Q 384 1609 779 1909 
Q 1175 2209 1959 2209 
L 2766 2209 
L 2766 2266 
Q 2766 2663 2505 2880 
Q 2244 3097 1772 3097 
Q 1472 3097 1187 3025 
Q 903 2953 641 2809 
L 641 3341 
Q 956 3463 1253 3523 
Q 1550 3584 1831 3584 
Q 2591 3584 2966 3190 
Q 3341 2797 3341 1997 
z
" transform="scale(0.015625)"/>
      <path id="DejaVuSans-30" d="M 2034 4250 
Q 1547 4250 1301 3770 
Q 1056 3291 1056 2328 
Q 1056 1369 1301 889 
Q 1547 409 2034 409 
Q 2525 409 2770 889 
Q 3016 1369 3016 2328 
Q 3016 3291 2770 3770 
Q 2525 4250 2034 4250 
z
M 2034 4750 
Q 2819 4750 3233 4129 
Q 3647 3509 3647 2328 
Q 3647 1150 3233 529 
Q 2819 -91 2034 -91 
Q 1250 -91 836 529 
Q 422 1150 422 2328 
Q 422 3509 836 4129 
Q 1250 4750 2034 4750 
z
" transform="scale(0.015625)"/>
     </defs>
     <use xlink:href="#DejaVuSans-61"/>
     <use xlink:href="#DejaVuSans-30" x="61.279297"/>
    </g>
   </g>
   <g id="text_3">
    <!-- a1 -->
    <g transform="translate(79.475391 46.946219) scale(0.125 -0.125)">
     <defs>
      <path id="DejaVuSans-31" d="M 794 531 
L 1825 531 
L 1825 4091 
L 703 3866 
L 703 4441 
L 1819 4666 
L 2450 4666 
L 2450 531 
L 3481 531 
L 3481 0 
L 794 0 
L 794 531 
z
" transform="scale(0.015625)"/>
     </defs>
     <use xlink:href="#DejaVuSans-61"/>
     <use xlink:href="#DejaVuSans-31" x="61.279297"/>
    </g>
   </g>
   <g id="text_4">
    <!-- a0 -->
    <g transform="translate(79.475391 82.946219) scale(0.125 -0.125)">
     <use xlink:href="#DejaVuSans-61"/>
     <use xlink:href="#DejaVuSans-30" x="61.279297"/>
    </g>
   </g>
   <g id="text_5">
    <!-- b1 -->
    <g transform="translate(3.6 105.446219) scale(0.125 -0.125)">
     <defs>
      <path id="DejaVuSans-62" d="M 3116 1747 
Q 3116 2381 2855 2742 
Q 2594 3103 2138 3103 
Q 1681 3103 1420 2742 
Q 1159 2381 1159 1747 
Q 1159 1113 1420 752 
Q 1681 391 2138 391 
Q 2594 391 2855 752 
Q 3116 1113 3116 1747 
z
M 1159 2969 
Q 1341 3281 1617 3432 
Q 1894 3584 2278 3584 
Q 2916 3584 3314 3078 
Q 3713 2572 3713 1747 
Q 3713 922 3314 415 
Q 2916 -91 2278 -91 
Q 1894 -91 1617 61 
Q 1341 213 1159 525 
L 1159 0 
L 581 0 
L 581 4863 
L 1159 4863 
L 1159 2969 
z
" transform="scale(0.015625)"/>
     </defs>
     <use xlink:href="#DejaVuSans-62"/>
     <use xlink:href="#DejaVuSans-31" x="63.476562"/>
    </g>
   </g>
   <g id="text_6">
    <!-- a1 -->
    <g transform="translate(79.475391 136.946219) scale(0.125 -0.125)">
     <use xlink:href="#DejaVuSans-61"/>
     <use xlink:href="#DejaVuSans-31" x="61.279297"/>
    </g>
   </g>
   <g id="text_7">
    <!-- b0 -->
    <g transform="translate(3.6 159.446219) scale(0.125 -0.125)">
     <use xlink:href="#DejaVuSans-62"/>
     <use xlink:href="#DejaVuSans-30" x="63.476562"/>
    </g>
   </g>
   <g id="text_8">
    <!-- a1 -->
    <g transform="translate(79.475391 190.946219) scale(0.125 -0.125)">
     <use xlink:href="#DejaVuSans-61"/>
     <use xlink:href="#DejaVuSans-31" x="61.279297"/>
    </g>
   </g>
   <g id="text_9">
    <!-- b1 -->
    <g transform="translate(3.6 213.446219) scale(0.125 -0.125)">
     <use xlink:href="#DejaVuSans-62"/>
     <use xlink:href="#DejaVuSans-31" x="63.476562"/>
    </g>
   </g>
   <g id="text_10">
    <!-- b0 -->
    <g transform="translate(3.6 240.446219) scale(0.125 -0.125)">
     <use xlink:href="#DejaVuSans-62"/>
     <use xlink:href="#DejaVuSans-30" x="63.476562"/>
    </g>
   </g>
   <g id="text_11">
    <!-- b1 -->
    <g transform="translate(3.6 267.446219) scale(0.125 -0.125)">
     <use xlink:href="#DejaVuSans-62"/>
     <use xlink:href="#DejaVuSans-31" x="63.476562"/>
    </g>
   </g>
  </g>
 </g>
 <defs>
  <clipPath id="p9657669988">
   <rect x="12.288672" y="3.6" width="237.6" height="291.654"/>
  </clipPath>
 </defs>
</svg>
